<svg xmlns="http://www.w3.org/2000/svg" viewBox="0 0 101.3 101.3"><defs><style>.cls-1{fill:#5e49d2;}</style></defs><title>book</title><g id="Layer_2" data-name="Layer 2"><g id="Layer_1-2" data-name="Layer 1"><path class="cls-1" d="M57.59,48a1.69,1.69,0,0,0,2.27.74c.1-.05,10-5.1,14.94-6.65a1.69,1.69,0,0,0-1-3.22c-5.16,1.63-15,6.65-15.45,6.86A1.69,1.69,0,0,0,57.59,48Z" transform="translate(0 0)"/><path class="cls-1" d="M59.09,28.7a1.69,1.69,0,0,0,.76-.18c.1-.05,10-5.1,14.94-6.65a1.69,1.69,0,0,0-1-3.22c-5.16,1.63-15,6.65-15.45,6.86a1.69,1.69,0,0,0,.77,3.19Z" transform="translate(0 0)"/><path class="cls-1" d="M99.61,25.33A1.69,1.69,0,0,0,97.93,27V92.86a5.07,5.07,0,0,1-5.07,5.07H52.34V94a49.76,49.76,0,0,1,15.2-2.87c14.71,0,24.69,3.26,24.79,3.29a1.69,1.69,0,0,0,2.22-1.6V18.57a1.69,1.69,0,0,0-1.32-1.65s-1.32-.3-3.59-.71A1.69,1.69,0,0,0,89,19.54l2.14.41V90.62A95.35,95.35,0,0,0,67.54,87.8,53,53,0,0,0,50.72,91,39.55,39.55,0,0,0,35.46,87.8a113.78,113.78,0,0,0-25.33,2.89V19.88a111.13,111.13,0,0,1,25.33-3A36.61,36.61,0,0,1,49,19.67V86.11a1.69,1.69,0,0,0,2.56,1.45c.17-.1,16.9-10.09,31.74-15a1.69,1.69,0,0,0,1.15-1.6V1.69A1.69,1.69,0,0,0,82.14.11C68.63,5.17,55,13.68,54.82,13.76a1.69,1.69,0,0,0,1.79,2.86A180.46,180.46,0,0,1,81,4.16V69.7c-11.52,4-23.56,10.54-28.7,13.47V18.57a1.69,1.69,0,0,0-.93-1.51,39.1,39.1,0,0,0-16-3.55A109.58,109.58,0,0,0,8,17a1.69,1.69,0,0,0-1.22,1.62V92.86a1.69,1.69,0,0,0,1.69,1.69,1.66,1.66,0,0,0,.46-.07,108.46,108.46,0,0,1,26.55-3.31A36.53,36.53,0,0,1,49,94v4H8.44a5.07,5.07,0,0,1-5.07-5.07V27A1.69,1.69,0,1,0,0,27V92.86a8.45,8.45,0,0,0,8.44,8.44H92.86a8.45,8.45,0,0,0,8.44-8.44V27A1.69,1.69,0,0,0,99.61,25.33Z" transform="translate(0 0)"/><path class="cls-1" d="M57.59,37.91a1.69,1.69,0,0,0,2.27.74c.1-.05,10-5.1,14.94-6.65a1.69,1.69,0,0,0-1-3.22c-5.16,1.63-15,6.65-15.45,6.86A1.69,1.69,0,0,0,57.59,37.91Z" transform="translate(0 0)"/><path class="cls-1" d="M57.59,58.17a1.69,1.69,0,0,0,2.27.74c.1-.05,10-5.1,14.94-6.65a1.69,1.69,0,0,0-1-3.22c-5.16,1.63-15,6.65-15.45,6.86A1.69,1.69,0,0,0,57.59,58.17Z" transform="translate(0 0)"/><path class="cls-1" d="M40.91,31.33c-10.43-2.45-22.27.67-22.77.8a1.69,1.69,0,0,0,.44,3.32A1.72,1.72,0,0,0,19,35.4c.11,0,11.52-3,21.13-.78a1.69,1.69,0,1,0,.77-3.29Z" transform="translate(0 0)"/><path class="cls-1" d="M40.91,41.46c-10.43-2.44-22.27.67-22.77.8a1.69,1.69,0,0,0,.44,3.32,1.72,1.72,0,0,0,.44-.06c.11,0,11.52-3,21.13-.78a1.69,1.69,0,1,0,.77-3.29Z" transform="translate(0 0)"/><path class="cls-1" d="M57.59,68.3a1.69,1.69,0,0,0,2.27.74c.1-.05,10-5.1,14.94-6.65a1.69,1.69,0,0,0-1-3.22c-5.16,1.63-15,6.65-15.45,6.86A1.69,1.69,0,0,0,57.59,68.3Z" transform="translate(0 0)"/><path class="cls-1" d="M40.91,51.59c-10.43-2.44-22.27.67-22.77.8a1.69,1.69,0,0,0,.44,3.32,1.71,1.71,0,0,0,.44-.06c.11,0,11.52-3,21.13-.78a1.69,1.69,0,1,0,.77-3.29Z" transform="translate(0 0)"/><path class="cls-1" d="M40.91,71.86c-10.43-2.45-22.27.67-22.77.8A1.69,1.69,0,0,0,18.57,76a1.71,1.71,0,0,0,.44-.06c.11,0,11.52-3,21.13-.78a1.69,1.69,0,1,0,.77-3.29Z" transform="translate(0 0)"/><path class="cls-1" d="M40.91,61.72c-10.43-2.45-22.27.67-22.77.8a1.69,1.69,0,0,0,.44,3.32,1.71,1.71,0,0,0,.44-.06c.11,0,11.52-3,21.13-.78a1.69,1.69,0,1,0,.77-3.29Z" transform="translate(0 0)"/></g></g></svg>