<svg xmlns="http://www.w3.org/2000/svg" viewBox="0 0 98.3 109.72"><defs><style>.cls-1{fill:#5e49d2;}</style></defs><title>doc</title><g id="Layer_2" data-name="Layer 2"><g id="Layer_1-2" data-name="Layer 1"><path class="cls-1" d="M98.27,22.18a1.34,1.34,0,0,0-.13-.46l-.08-.16a1.8,1.8,0,0,0-.45-.49h0L69.54.5a2.51,2.51,0,0,0-.68-.33L68.63.11A3,3,0,0,0,68,0l-.15,0H2.34C1,0,0,.77,0,1.71V108c0,.95,1,1.71,2.34,1.71H96c1.29,0,2.34-.77,2.34-1.71V22.29S98.28,22.22,98.27,22.18ZM70.22,5.85l20.1,14.72H70.22ZM4.68,106.29V3.43H65.53V22.29c0,.95,1,1.71,2.34,1.71H93.62v82.29Z"/><path class="cls-1" d="M25.75,51.43H49.15c1.29,0,2.34-.77,2.34-1.71V29.14c0-.95-1-1.71-2.34-1.71H25.75c-1.29,0-2.34.77-2.34,1.71V49.72C23.41,50.66,24.45,51.43,25.75,51.43Zm2.34-20.57H46.81V48H28.09Z"/><path class="cls-1" d="M74.9,56.57H32.77c-1.29,0-2.34.77-2.34,1.71s1,1.71,2.34,1.71H74.9c1.29,0,2.34-.77,2.34-1.71S76.19,56.57,74.9,56.57Z"/><path class="cls-1" d="M74.9,65.15H23.41c-1.29,0-2.34.77-2.34,1.71s1,1.71,2.34,1.71H74.9c1.29,0,2.34-.77,2.34-1.71S76.19,65.15,74.9,65.15Z"/><path class="cls-1" d="M74.9,73.72H23.41c-1.29,0-2.34.77-2.34,1.71s1,1.71,2.34,1.71H74.9c1.29,0,2.34-.77,2.34-1.71S76.19,73.72,74.9,73.72Z"/><path class="cls-1" d="M74.9,82.29h-7c-1.29,0-2.34.77-2.34,1.71s1,1.71,2.34,1.71h7c1.29,0,2.34-.77,2.34-1.71S76.19,82.29,74.9,82.29Z"/><path class="cls-1" d="M57.73,82.29H23.41c-1.29,0-2.34.77-2.34,1.71s1,1.71,2.34,1.71H57.73c1.29,0,2.34-.77,2.34-1.71S59,82.29,57.73,82.29Z"/></g></g></svg>