<svg xmlns="http://www.w3.org/2000/svg" viewBox="0 0 733.69 609.63"><defs><style>.cls-1{fill:#4141bf;}</style></defs><title>fruits</title><g id="Layer_2" data-name="Layer 2"><g id="Layer_1-2" data-name="Layer 1"><path class="cls-1" d="M673.85,228.76c2.34.85,4.66,1.75,7,2.55,6.57,2.24,13.13,4.52,19.75,6.62a53.35,53.35,0,0,0,8.21,1.87c4.82.73,9.67,1.2,14.51,1.81,2.49.31,5,.68,7.44,1,1.21.17,2.47.52,2.79,1.82a3.71,3.71,0,0,1-1.28,4,12,12,0,0,1-1.86,1.2c-4.18,2.19-8.33,4.46-12.59,6.48-3.06,1.45-6.26,2.61-9.43,3.82s-6.38,1.22-9.62,1.3A120.91,120.91,0,0,1,680.68,260c-2.17-.27-4.28-1.08-6.43-1.55-.42-.09-.94.3-1.36.45.1,1.62,1.3,1.87,2.09,2.39a95.91,95.91,0,0,1,25.59,24.21c1.44,2,3.21,3.81,4.87,5.75a2.16,2.16,0,0,1-2.52-.86c-1.85-2.11-3.7-4.22-5.45-6.42a56.8,56.8,0,0,0-7.76-8.49c-2.49-2.09-4.87-4.31-7.34-6.43-5.41-4.65-11.56-8.18-17.74-11.67-3.82-2.16-8-3-12.19-3.79a5.14,5.14,0,0,0-1.28.1c.58,2.08.61,2.09,1.58,2.75,2.31,1.58,4.62,3.18,6.93,4.75a5.48,5.48,0,0,1,2.57,3.06c-.47,0-1,.13-1.26,0-5.1-3-10.17-6-15.27-8.94-.89-.52-1.85-.9-2.76-1.39a10.48,10.48,0,0,1-1.87-1.15c-.89-.76-1.56-1.87-2.56-2.38-1.93-1-4-1.65-6.95-2.81a23.45,23.45,0,0,0,2.36,2.85c7,5.69,13.8,11.6,21,16.94A136.85,136.85,0,0,0,684.14,284a170.52,170.52,0,0,1,20.84,9.8c1.44.84,2.7,1.59,3.26,3.61a6.13,6.13,0,0,1-1.8-.08c-8.5-3.4-17-6.72-25.45-10.29-7.35-3.12-14.54-6.58-21-11.35q-5.17-3.81-10.41-7.52a4.89,4.89,0,0,0-1.46-.35c.2,1.42,1.09,2.19,1.68,3.11,4.57,7.1,8.82,14.41,11,22.6,1.23,4.53,1.57,9.3,2.23,14a49.53,49.53,0,0,1-.26,17.2c-.21,1,0,2.08-.19,3.09a4.58,4.58,0,0,0,1,4.12,2.3,2.3,0,0,1-.05,3.41,9.41,9.41,0,0,1-1.95-1.34,231.38,231.38,0,0,1-15.21-19.6c-2.8-4-5.33-8.16-8-12.26-.4-.61-.8-1.22-1.17-1.78-1.19.24-1,1-1,1.71a125.69,125.69,0,0,1,.16,15.5A53.58,53.58,0,0,1,632,336a52.85,52.85,0,0,0-4.79,17,4.52,4.52,0,0,1-.49,1.19c-2.86-1.23-4.28-3-3.72-5.56a8.42,8.42,0,0,0-.37-4.76c-1.19-3.49-2.62-6.9-3.76-10.4-2.6-8-6.33-15.6-7.43-24.07-.46-3.5-1.44-6.94-2.22-10.39a16.61,16.61,0,0,0-1-2.25c-.53,3.57-1,6.31-1.33,9.06-.31,2.49-.52,5-.75,7.5a36.64,36.64,0,0,1-2.39,9.88c-.48,1.24-1,2.48-1.33,3.76a64.46,64.46,0,0,1-7.06,15.71c-1.06,1.76-2.28,3.43-3.51,5.09-1.07,1.44-2.53,1.91-4.56,1.26-.16-2.37-.39-4.83-.49-7.31-.24-5.91-.42-11.81-.65-17.72,0-1-.06-2.17-1.57-2.24.08-2.06.15-4,.23-5.84.25-5.37-.81-10.57-1.84-15.79a76.22,76.22,0,0,1-1-7.9,34.31,34.31,0,0,0-1-7,23.79,23.79,0,0,1-.49-4.68c-1.1-.31-1.15.44-1.27.94-2.9,11.38-8,21.58-16.39,29.9a85,85,0,0,1-8,6.31,2.5,2.5,0,0,1-1.16.61c-.54,0-1.31,0-1.6-.3a3.71,3.71,0,0,1-.7-1.92,1.73,1.73,0,0,1,.53-1.19c3.2-3.32,4.34-7.67,5.87-11.81,1.08-2.91,1.9-5.91,2.81-8.87a25.82,25.82,0,0,0,.8-3q1.78-9.81,3.48-19.63a15.32,15.32,0,0,0,0-2.52c-1.61-.34-2,.87-2.56,1.58-2.66,3.39-6.41,5.11-10.13,6.9a2,2,0,0,1-.43.12c-.75.17-1.55.25-1.89-.58a2.54,2.54,0,0,1,0-1.67,4.32,4.32,0,0,1,1-1.41,16.34,16.34,0,0,0,3.94-8.3,77.14,77.14,0,0,0,1.87-14.94,68.81,68.81,0,0,1,1.44-11c1-5.87,3.37-11.31,4.94-17a25.89,25.89,0,0,1,5.72-9.9c.37-.44.71-.9,1.41-1.8a12,12,0,0,0-2.5.39c-2.58,1.1-5.15,2.23-7.67,3.46A21.68,21.68,0,0,1,546.72,217a28.51,28.51,0,0,0-4-.42,12.68,12.68,0,0,0-2.49.43c-.4,2.52,2.5,4.48.68,6.91-2.18-.4-3.06-2.19-3.95-3.82a4.42,4.42,0,0,0-4.7-2.52c-6.23.44-11.52-2.1-16.5-5.47-2.42-1.64-4.64-3.59-7.57-4.79l-1.54,2.74c-.23-1.23-.42-2-.53-2.83a3.61,3.61,0,0,0-1.93-2.83c-3.83-2-6.95-5-10.44-7.46-.45-.32-1-.54-1.81-1-.61,3.26.33,6.5-1.37,9.23a23.28,23.28,0,0,1-1.91,2.35c-1.07-.75-.36-1.38-.17-2a17.68,17.68,0,0,0,.44-9.19c-.52-2.54-1.31-4.55-3.85-6-3.43-2-6-5.18-8.65-8.17-.75-.86-1.56-1.66-2.32-2.47-1.31.75-.95,1.93-1.17,2.86-.28,1.14-.39,2.32-.61,3.48a5.93,5.93,0,0,1-1.11,2.76c.12-1.41.24-2.81.35-4.22s.22-2.94.34-4.41a5.62,5.62,0,0,0-2.3-5,35.35,35.35,0,0,0-2.81-2.17,27.5,27.5,0,0,1-9-9.65,26.31,26.31,0,0,0-1.73-2.37c-2.13,3-1.8,7.08-5.13,9.48-.29-5.37.82-10.22,2-14.82-.75-2.23-2.46-3.3-4-4.31a23.4,23.4,0,0,1-10.31-13.91,3.36,3.36,0,0,0-.67-1.14,4.12,4.12,0,0,0-1-.58c-1.16,3.37-1,7.27-4.29,10.35a9.51,9.51,0,0,1-.28-2.05c.44-3.07,1-6.12,1.4-9.19a2.9,2.9,0,0,1,1.83-2.31c-.67-1.44-2.07-2.05-3.24-2.88a22.68,22.68,0,0,1-7.31-8.64,59.81,59.81,0,0,1-5-13.17,15.38,15.38,0,0,0-2.41-4.71c-2.69-4-4.06-8.51-5.13-13.13a13.73,13.73,0,0,1,1.31-9.47c2.3-4.51,3.6-9.36,5-14.18s3.6-9,5.52-13.5a56.6,56.6,0,0,1,10.07-15c2.44-2.76,4.59-5.78,7-8.56a22.1,22.1,0,0,1,4.25-3.83c1.55-1,2.93-2,2.64-4.21,2.84-.41,4.5-1.9,6.13-3.73,2-2.27,4.29-4.29,7.57-5.11A20.93,20.93,0,0,0,469,8.72a8.59,8.59,0,0,1,4.34-1.94A25.46,25.46,0,0,0,480.18,5a14.14,14.14,0,0,1,3.39-1,10.4,10.4,0,0,0,6.32-2.92A12,12,0,0,0,496,1a33.81,33.81,0,0,1,19.22.92,32.62,32.62,0,0,0,4.22,1.35A16.88,16.88,0,0,1,528.35,8c2.34,2.42,5.44,2.93,8.57,3,4.71.16,8.87,1.92,13,3.84-.51,2-.87,2.34-2.12,2-1-.24-1.9-.6-3.37-1.07.48.92.61,1.51,1,1.81a37.29,37.29,0,0,0,5.55,4.33,16,16,0,0,1,7.53,8.37c.16.41.41.79.57,1.2,1.6,4,4.82,6.19,8.76,7.5.79.26,1.57.58,2.67,1l-2.23,2c1,1.9,2.85,3,4.5,4.16,1.31,1,2.71,1.8,4.09,2.66a34.46,34.46,0,0,1,13.31,15.61c.91,2,2,4,2.77,6a5,5,0,0,0,4.26,3.37c1.74.27,3.5.41,5.3.61-1.43,2.8-1.43,2.8-5.4,3.82a10.16,10.16,0,0,0,.66,2.38c1.66,3,3.43,5.87,5.15,8.8a5.65,5.65,0,0,0,4.13,3c2.43.42,4.81,1.21,7.61,1.94-2,1.49-4.27,1.06-6.26,2.18.82,1.28,1.42,2.42,2.22,3.41a31.94,31.94,0,0,1,7.24,16.88c.08.73.29,1.45.35,2.19a4.92,4.92,0,0,0,3,4.52c.86.39,1.49,1.28,2.71,2.38l-3.69-.23a9.77,9.77,0,0,0,0,1.83c.26,1.45.63,2.89.91,4.34a29.2,29.2,0,0,1-1,14.88,17.68,17.68,0,0,1-.55,1.69c-1.42,3.21-.74,6,1.46,8.64.81,1,2,1.83,1.41,3.5-1.71.54-2.26-1.8-3.92-1.51-1,2.86-1.81,5.83-3.65,8.38a29.92,29.92,0,0,1-6.63,7,13,13,0,0,0-3.35,3.49,49.19,49.19,0,0,1-3.39,4.07c-.82,1-1.59,2-2.77,3.5,1.43,0,2.26,0,3.08,0,2.79-.09,5.61-.54,8,1.55a3.69,3.69,0,0,0,2.11.46,51.62,51.62,0,0,1,11.28,2.15,39.74,39.74,0,0,0,15.82.84c3.22-.45,6.41-1.06,9.63-1.49a47.34,47.34,0,0,0,15.9-5.25,54.86,54.86,0,0,0,5.77-4.1c.71-.5,1.47-.94,2.19-1.39a3.57,3.57,0,0,1,1.21,4.8c-2.17,4.69-5.06,8.63-10.21,10.49a24.84,24.84,0,0,0-5,2.76c-5.06,3.32-10.08,6.67-15.8,8.4-.22,1.37.69,1.47,1.28,1.7A51.84,51.84,0,0,0,661.7,210c5.17.11,10.32.18,15.5-.2a86.55,86.55,0,0,1,11.06.39c3,.16,5.86.42,8.68-1,.94-.47,2.32-.92,3.25.32s.61,2.42-.17,3.68a15,15,0,0,1-5.92,5.83c-4,2-7.89,4-11.89,5.93a48.41,48.41,0,0,1-5,1.86c-1.08.38-2.19.68-3.29,1Zm-59.71-20.08.59.58-.62-.48c-1.21-3.29-1.7-3.56-5.86-3.11a15,15,0,0,0,4.72,3.26C613.26,209.06,613.74,208.76,614.13,208.68ZM529.57,67.37a18.91,18.91,0,0,0,1.92,7.14c2.64,6.73,2.94,13.45,0,20.18-.1.23,0,.56.07,1.27,3.64.67,5.83,4.46,10.58,5.3-1.26-1.2-2-1.84-2.67-2.56a2,2,0,0,1,0-3.06c3,0,4.77,2,6.77,4l-.82,3.81a21.56,21.56,0,0,0,6.53,3.66c2.31.74,4.86,1.14,6.82-.36,3.42-2.61,6.29-5.67,6.71-10.42.37-4.21-.56-8.19-1.36-12.22-.69-3.51-2.49-6.55-4.17-9.63a12.19,12.19,0,0,0-2.12-2.24c-1.34.7-2.48,1.35-3.66,1.91a12,12,0,0,1-8.61,1c-3.9-1.18-7.93-2.24-11.25-4.9A44.46,44.46,0,0,0,529.57,67.37Zm-61.81,47.33c5,6,11.47,8.93,19.21,9.25a16.14,16.14,0,0,0,3.52-.17,7.51,7.51,0,0,0,5.29-3.56,14.84,14.84,0,0,0,2.43-7.86,53.78,53.78,0,0,0-1.31-11.81,21.35,21.35,0,0,0-4.13-9.19c-.68-.87-1.48-1.56-2.6-1.33-4,.85-7.09-1-10.17-3.16a74.48,74.48,0,0,1-7.33-5.64c-.78-.71-1.68-1.71-3.21-1.12a12.12,12.12,0,0,0,.12,1.68c.75,3.6,1.67,7.17,2.25,10.8.87,5.43,1.13,10.85-1.43,16C469.44,110.57,468.66,112.61,467.76,114.69Zm34.66,3.94c1.95,1.09,3.78,2,5.49,3.12s3.59,2.58,5.42,3.82,3.89,2.67,5.94,3.84a30.69,30.69,0,0,0,5.58,2.64c4.19,1.36,8-.4,9.82-4.48,1.45-3.26,2.5-6.61,1.67-10.29a17.23,17.23,0,0,1-.27-3.52,15.26,15.26,0,0,0-2.59-8.33c-1.05-1.6-1.93-3.32-3-4.93A17.09,17.09,0,0,0,529,98.62c-2.47.93-4.62,1.88-6.86,2.56a16.94,16.94,0,0,1-12.51-.7q-3.6-1.7-7.24-3.3c-.75-.33-1.58-.5-2.86-.9.75,2.6,1.31,4.7,2,6.76C503,108.15,504.23,113.29,502.42,118.63ZM659.72,326c.38-.85.59-1.1.59-1.36a165.63,165.63,0,0,0-2-23.36,42.07,42.07,0,0,0-3.19-11.95,109.78,109.78,0,0,0-14.85-24.59c-3.28-4-6.76-7.8-9.48-12.26-1.68-2.76-4.38-4.72-7.09-6.53-.07,0-.26.09-.58.21,1.83,3.5,3.87,6.89,5.39,10.5s2.57,7.53,3.84,11.36c3.25,1.38,3.24,1.38,4.67,4.61a11.86,11.86,0,0,0,1.22,2.35c2.62,3.49,3.77,7.68,5.6,11.54.2.43.62,1.1-.48,1.62-1.89-1.76-2.64-4.38-4.15-6.46s-2.53-5-5.73-6.61c.25,2.87-.1,5.42.63,7.79a51.56,51.56,0,0,0,3.58,9c5.14,9.63,10,19.42,17.19,27.82,1.15,1.35,2.06,2.88,3.12,4.31C658.45,324.58,658.95,325.09,659.72,326Zm-95-219.73a46.15,46.15,0,0,1,3.7,2.9c3,2.83,6.74,4.19,10.46,5.53a10.17,10.17,0,0,0,10.75-2c1.66-1.47,3.34-2.91,4.9-4.48,4.35-4.38,4.75-11.54,2.43-16-1.54-3-3.54-5.7-5.39-8.62a17.83,17.83,0,0,0-2.6.79,16,16,0,0,1-12.06.6,26.76,26.76,0,0,1-8-3.61c-.88-.63-1.78-1.64-3.14-1.12C568.54,94.85,568.73,94,564.69,106.25ZM532.93,34.34a36.5,36.5,0,0,1,.68,5c0,8.15-.74,16.17-5.34,23.24.17.31.24.67.45.8A43.67,43.67,0,0,0,549.4,70.5a6.83,6.83,0,0,0,5.85-2.56,16.6,16.6,0,0,0,3.11-5.27c1.52-4.49,2.43-9.13,1.28-13.89-.48-2,.05-4.17-1.52-6.09-2-.36-4.19-.69-6.35-1.13-5.13-1-9.74-3.35-14.27-5.84C536.23,35,535,34.12,532.93,34.34Zm-62,87.92c1.53,7.21,2.95,14,.73,20.81,3.13,2.37,6.18,4.7,9.25,7a35.55,35.55,0,0,0,13.36,6.68c4.34,1,7.2,0,9.28-3.94a25.1,25.1,0,0,0,2.17-18,3.49,3.49,0,0,0-.14-.42c-1.16-3-2.28-6.08-3.51-9.08a11.72,11.72,0,0,0-1.54-2.14c-.79.58-1.34,1-1.94,1.42-1.49.94-2.89,2.22-4.52,2.69-6,1.77-12,1.53-17.53-1.77C474.81,124.44,473.06,123.48,470.93,122.27Zm-30.19-21.39c1.69-1.56.32-3.87,2.31-5.09,1.43,2.44.23,5.34,1.82,8.17,3.75,1.93,7.89,4.19,12.15,6.17a17.74,17.74,0,0,0,5.13,1.15,4,4,0,0,0,4.05-2.19c2.3-3.87,4-7.94,3.09-12.59-1.22-6.06-2.53-12.11-3.83-18.15-.05-.24-.39-.42-.75-.79a15,15,0,0,0-2,0,8.86,8.86,0,0,1-6.55-2.19c-.92-.73-1.74-1.6-2.68-2.31-.51-.39-1-1.13-2.06-.42a23.83,23.83,0,0,1,0,2.93c-.23,2-.56,4.07-.89,6.1-.73,4.47-3.62,6.94-7.76,8.15a15.53,15.53,0,0,1-3,.45c-1.15.1-2.32.11-3.65.16-.2.8-.66,1.57-.5,2.16A15.77,15.77,0,0,0,440.74,100.88Zm63.72-73c.67,3.92,1.81,7.72.93,11.74a30,30,0,0,1-4.32,10.9,34.18,34.18,0,0,0,16.47,10.21,7.49,7.49,0,0,0,7.73-2.05,11.28,11.28,0,0,0,3.07-4.75,37.31,37.31,0,0,0,.6-18.33c-1-4.12-3.39-7.39-5.32-11.12-3.2.9-6.23,2-9.36,2.56S507.92,27.56,504.46,27.84ZM494.92,88.7c6.36,6.62,14.07,8.56,22.12,9.14a9.15,9.15,0,0,0,9.13-5.18,18.4,18.4,0,0,0,1.63-12.87c-1-4.6-2.23-9.15-2.81-13.84a3.71,3.71,0,0,0-.57-1.1,12.34,12.34,0,0,0-1.84.31c-5.3,1.78-10.19.8-14.84-2.08a36.16,36.16,0,0,0-3.4-1.62c0,1.12-.07,1.83,0,2.53.18,2.51.36,5,.62,7.51a22.59,22.59,0,0,1-.78,7.89,11.86,11.86,0,0,1-6.45,8C497,87.81,496.17,88.13,494.92,88.7Zm-24.1-13c.15.35.17.54.27.62a69.13,69.13,0,0,0,15.19,8c4.4,1.75,8.38,0,12-2.4a5.84,5.84,0,0,0,2-2.8c2.93-8.29,1.41-16.24-2-24a10.31,10.31,0,0,0-1-1.47,4.65,4.65,0,0,0-4.45-2.35c-3.4.28-6.35-1-9.19-2.67-.76-.44-1.47-1-2.26-1.38a13.11,13.11,0,0,0-2-.61c.08,1.39,0,2.43.21,3.43.89,5.38,0,10.58-1.41,15.74a14.34,14.34,0,0,1-5.87,8.55A13.49,13.49,0,0,0,470.82,75.75ZM726.47,246.36c-3.91-.69-7.39-1.25-10.85-1.92a90.8,90.8,0,0,1-9.93-2.14c-7.17-2.24-14.25-4.8-21.38-7.16A76.51,76.51,0,0,1,671.6,230a10.43,10.43,0,0,0-6.35-1.28c-2.2.23-4.41.21-6.62.32-.86,0-1.71.14-2.85.24,1.62,2.59,4,3.88,6,5.48,3.83,3,7.8,6.1,12.59,7.15,6.15,1.34,11.46,4.66,17.38,6.46a3.58,3.58,0,0,1,1.11.69,2.27,2.27,0,0,1-.35,3.42,5.94,5.94,0,0,1-1.7.4c-2.77.37-5.55.68-8.32,1.06-1.39.19-2.89.13-4.44,1.65,1.5.14,2.5.29,3.49.3a23.27,23.27,0,0,1,3.08-.15c5,.75,10,.21,15,0,2.93-.11,6-.15,8.73-1.05a105.35,105.35,0,0,0,17-7.34A5.94,5.94,0,0,0,726.47,246.36Zm-92.79,53a2.5,2.5,0,0,0-1.49,2.17,12.3,12.3,0,0,1-.49,2.15,9.11,9.11,0,0,1-1.32,2.29,16.32,16.32,0,0,1-2.13,1.81,13.59,13.59,0,0,1-1.1-2.62,5.84,5.84,0,0,1,.09-2.63,7.62,7.62,0,0,0-.7-5.58,162.89,162.89,0,0,0-8-14.62,14.75,14.75,0,0,0,.57,5.48c1.51,5.6,1.53,11.38,2.22,17.08.07.58.31,1.58-.94,1.6a4.18,4.18,0,0,1-.48-1.21A64.19,64.19,0,0,0,617.1,291c-.45-1.56-.69-3.18-1.25-4.7a13,13,0,0,0-5.6-7,152.69,152.69,0,0,0,3,21,194.1,194.1,0,0,0,5,19.72c2.17,6.48,3.9,13.2,7.35,19.3.84-.77,1.39-1.67,2.14-1.88a4.54,4.54,0,0,0,3.13-3.41c1.88-5.76,3.75-11.54,3.76-17.68,0-4.27-.14-8.55-.3-12.82A42.72,42.72,0,0,0,633.69,299.34ZM594.54,120.48c-.64,8.36-2.16,16.1-7,22.69a4.22,4.22,0,0,0,.1,1c2.11,5.88,6.52,9.69,11.62,12.86a2.9,2.9,0,0,0,1.69.41c4.26-.42,8.22-1.8,10.56-5.55a30.12,30.12,0,0,0,4.88-17.23,20.64,20.64,0,0,0-2.21-8.75C605.18,125.79,605.07,125.07,594.54,120.48Zm-57.18-14.6c-.06.37-.23.72-.13.94,1.54,3.44,1.54,7.16,2.06,10.79a17,17,0,0,1-1,9.56c-1,2.13-1.94,4.24-3,6.5A32.25,32.25,0,0,0,548,141.1c4.66,1.47,8.2-.06,11.11-3.27a19.93,19.93,0,0,0,4.58-8.47,28,28,0,0,0-.68-15.69,4.31,4.31,0,0,0-3.24-3.28c-2.5,2-5.68,2.22-9,1.53A19.65,19.65,0,0,1,542,108.1C540.63,107,539.25,105.9,537.36,105.89Zm-94.84,3.21a6.11,6.11,0,0,0-.22,1.74c.86,4.51,1.57,9,.35,13.56A14.1,14.1,0,0,0,444.16,135c.62,1.17,1,2.47,1.7,3.59,2.93,4.81,6.11,9.39,11.85,11.5,3.33-1.69,6.18-3.83,7.85-7.36a20.17,20.17,0,0,0,2.07-8.94A38.6,38.6,0,0,0,465.9,123c-.74-2.44-1.3-5.14-3.36-7a28.25,28.25,0,0,1-3.18.34,11.58,11.58,0,0,1-3.88-.35A47.73,47.73,0,0,1,442.52,109.09Zm86.89,27.44a14,14,0,0,1-11-1.77L511.93,131c-1.25-.73-2.5-1.48-4.26-2.53a36,36,0,0,0,.5,4,31.29,31.29,0,0,1-3,23.89,19.19,19.19,0,0,0-1,2.46,40.28,40.28,0,0,0,8.69,4.69,15.86,15.86,0,0,0,12.8,0,9.75,9.75,0,0,0,6.07-7.07,47,47,0,0,0,1.07-6.09A21.47,21.47,0,0,0,529.41,136.54Zm92.71,70.72c2.55,1.69,4.16,2.93,5.93,3.9,3.63,2,7.33,3.77,11.63,3.93a14.86,14.86,0,0,1,4.17,1.26,1,1,0,0,1,.64,1.51c-1.33.49-2.83-.36-4.21-.09a19.94,19.94,0,0,1-12.5-1.67,6,6,0,0,0-2.6-.41c-.74,0-1.45-1.24-2.24-.11,1.7,2.24,4.12,2.85,6.62,3.31,8,1.46,16,2.79,24,4.4s15.58.53,23.29-1a11.4,11.4,0,0,0,2.54-.78q6.24-2.87,12.43-5.84c.57-.28,1.4-.55,1.23-1.51-.28-.13-.53-.34-.78-.34-6.05,0-12.1,0-18.15,0a49.48,49.48,0,0,1-5.31-.11c-5.87-.64-11.81-.88-17.5-2.65-3.52-1.09-7-2.21-10.5-3.48a16.55,16.55,0,0,0-6.91-1.3C630.32,206.52,626.79,206.86,622.12,207.26Zm-32.9,103.28c3.28-.07,3.44-.09,5.1-2.22,5-6.44,7.48-14,9.27-21.82.54-2.36-.11-5,1.49-7.15a55.7,55.7,0,0,0-.1-15.47,10.11,10.11,0,0,0-.86,1.63c-.59,2.59-1.14,5.19-1.7,7.79A5.48,5.48,0,0,1,602,275a2.52,2.52,0,0,1-1.35,1c-.29.09-.79-.26-1.08-.54a4.25,4.25,0,0,1-.72-1.11c-1.89-3.51-3.79-7-5.64-10.55a22,22,0,0,0-3.07-4.66c-.4.3-.75.42-.84.64a34.87,34.87,0,0,0-2.8,16.43C587.47,287.51,588.31,298.84,589.22,310.54ZM505.53,166.25c.39,1.17.74,2.13,1,3.1a20.89,20.89,0,0,1,1,10,20.33,20.33,0,0,1-6.47,11.3c-.72.69-1.44,1.39-2.23,2.16a27.56,27.56,0,0,0,9.39,7.48,6.81,6.81,0,0,0,2.93.68c5.42-.09,9.39-3.26,12.93-6.78,4.4-4.38,3.71-10,2.56-15.41-.76-3.54-2.35-6.9-3.57-10.34-2.1.13-4,.19-5.89.39a15.35,15.35,0,0,1-6.09-.84C509.35,167.45,507.75,166.24,505.53,166.25ZM450.93,60.5c2.56,6,5.63,7.85,9.84,10.77a8.68,8.68,0,0,0,12.51-3.09c4.12-7.67,4.54-15.75,2.11-24-.4-1.36-1-2.78-2.5-3.35-1,.45-2,.78-2.93,1.28a8.44,8.44,0,0,1-7.66.44,25.58,25.58,0,0,0-3.41-.86c-.38,2.77-.69,5.25-1.08,7.71A14.7,14.7,0,0,1,454.61,57C453.56,58.24,452.28,59.25,450.93,60.5ZM534.45,141c2.28,9.11,1.87,17.36-4.53,24.7a51.2,51.2,0,0,0,6.62,4c3.2,1.5,6.45,2.77,10.2,2.32,7.53-.89,10.32-3.23,12.22-10.61,1.35-5.25,1.08-10.53.44-15.82a6.61,6.61,0,0,0-.78-1.79c-3.05-.1-2.09,3.61-4.45,4l-.61-2.09C546.83,146.49,540.93,143.57,534.45,141Zm70.17,97.5a18.84,18.84,0,0,0,.22,3.18c1.5,6,2.81,12.1,5.53,17.7,3.16,6.5,6.62,12.85,10,19.25q3.78,7.25,7.58,14.49a13.3,13.3,0,0,0,1.44,1.69,83.76,83.76,0,0,0-2.47-31.15c-2.54-9.13-11.66-24.75-17.65-30.29,0,.5-.22,1-.09,1.3,1.92,4.94,3.91,9.86,5.83,14.81q1.68,4.33,3.18,8.72a6.54,6.54,0,0,1-.07,2.1,4.56,4.56,0,0,1-3.06-2.79,26.23,26.23,0,0,0-2.09-4.87,70.32,70.32,0,0,1-5.82-11.41A4.12,4.12,0,0,0,604.61,238.51ZM494.75,18.87c2.9,1.34,5.81,2.69,8.73,4a2.28,2.28,0,0,0,.86.21c4,.12,8,.78,11.91-.13,2.85-.66,5.85-1.37,8-3.57,3.92-4.07,3.58-7.16.13-10.25a7.65,7.65,0,0,0-2.1-1.6c-4.53-1.76-9.1-3.43-13.68-5.07a5.31,5.31,0,0,0-2.19-.18c-2.94.26-5.87.54-8.79.94a9.08,9.08,0,0,0-2.27,1C498.28,13.82,497.4,12.27,494.75,18.87ZM684.33,249.12a23.5,23.5,0,0,0-6.84-2.54,16.35,16.35,0,0,1-4.11-1.5A155.61,155.61,0,0,1,656,233c-1.38-1.1-2.88-2.05-4.27-3.15a16.18,16.18,0,0,0-7.17-3.24c-2.89-.55-5.77-1.22-8.67-1.73-1-.17-2-.7-3.12.21,2.65,3.26,5.56,6.35,7.86,9.83s4.7,7.43,5.46,12.06c5.25,1.12,10.57,2.24,15.88,3.38,6.75,1.45,13.46,1,20.16-.3A13.74,13.74,0,0,0,684.33,249.12ZM530.59,190c2.11,1,4.36,2,6.65,3a9.42,9.42,0,0,0,3,.76,65.13,65.13,0,0,0,7.93.22c3.27-.19,6.55-.78,8.57-3.78a22.65,22.65,0,0,0,2.86-5.45c1.47-4.5.19-8.57-2.39-12.46-1.44.54-2.66,1-3.9,1.45-7.1,2.38-14.08,3-20.82-1.24a6.07,6.07,0,0,0-4.37-1.31c.84,3.09,2,6,2.34,9A82.49,82.49,0,0,1,530.59,190ZM589.48,79.47a14.62,14.62,0,0,0-.45-1.84c-1.57-4-3.07-8-4.78-11.9a23.84,23.84,0,0,0-9.18-10.53c-3.09-2-6-4.24-9-6.36-.7-.49-1.41-1-2.59-1.75a47.32,47.32,0,0,1-2,22.72c2.76,1.72,5.48,3.45,8.24,5.1,2.15,1.29,4.33,2.54,6.56,3.68a17.6,17.6,0,0,0,11.17,1.77A9.47,9.47,0,0,0,589.48,79.47ZM495.14,189.85A43.23,43.23,0,0,0,498.9,187c3.63-3.39,5.66-7.48,5.12-12.59a28.26,28.26,0,0,0-3-9.65,6.2,6.2,0,0,0-5.53-3.62c-5.27-.52-10.48-1.63-15-4.65a7.6,7.6,0,0,0-1.6-.59c-.75,1.31-.34,2.42-.11,3.54.86,4.34,1.73,8.68.61,13.12a5,5,0,0,0,1.1,4.11C484.17,182.2,489.32,186.05,495.14,189.85Zm80.5,55.25c-.55.18-.72.19-.78.27a2.92,2.92,0,0,0-.44.76c-2.09,6.28-4.64,12.41-5.2,19.16s-2,13.11-3.2,19.65a90.15,90.15,0,0,1-3.41,14.17c-.69,1.95-1.31,3.92-1.9,5.9a12.22,12.22,0,0,0-.15,2.19,20.9,20.9,0,0,0,2.66-2.41c5.6-7.5,10.26-15.49,12.5-24.7a34.74,34.74,0,0,1,1.22-3.79c1.48-4,3.14-7.94,3.79-12.21.55-3.64,1.19-7.28,2-10.87a19.37,19.37,0,0,0,.28-6.59c-.31-2.76-1-5.48-.35-8.32a2,2,0,0,0-1.46-2.51c-.7,3.78-1.41,7.53-2.09,11.28a16.17,16.17,0,0,0-.51,3.5c.22,4.95-1.55,9.6-2,14.44a2.56,2.56,0,0,1-.52,1.2,1,1,0,0,1-.79.24c-.25,0-.66-.26-.68-.43a8.22,8.22,0,0,1,0-2.16A80.44,80.44,0,0,0,575.64,245.09Zm-15.06-78.52c.41.55.59,1,.93,1.23a31.09,31.09,0,0,0,13.27,4.54,6.55,6.55,0,0,0,6.61-3.54,28.46,28.46,0,0,0,3.16-21.73,5.55,5.55,0,0,0-.74-1.25c-2.39.63-4.58,2.1-7.19,1.87-2.34-.2-4.7-.2-7-.52s-4.54-1.77-7.34-2.23C562.83,152.51,563.25,159.73,560.58,166.57ZM494.3,45.18l1,.67c2.7,1.7,4,1.46,5.19-1.27a24.93,24.93,0,0,0,2-12.11c-.3-3-1.47-5.67-4.79-6.79-2.5-.84-4.91-2-7-2.81l-12,3.34a21.23,21.23,0,0,1-2.24,10.19c2.91,2.17,5.56,4.27,8.34,6.17,1.81,1.24,3.85,2.14,5.73,3.29C492,46.74,493.06,46,494.3,45.18Zm69.48,94.24a26,26,0,0,0,10.07,4,10.11,10.11,0,0,0,7.93-1.74c2.18-1.56,4.15-3.25,5.08-5.92a21.51,21.51,0,0,1,1.94-4c2.32-3.84,2.65-8,2.39-12.37a13,13,0,0,0-.59-2.25,35.63,35.63,0,0,1-3.48,1.36,22.87,22.87,0,0,1-5.55,1.2,24,24,0,0,1-11.53-2.5,25.7,25.7,0,0,0-3.09-1.15c0,4.09.34,7.94-.17,11.66S564.85,135.41,563.78,139.42Zm33,51c-3.22.65-3.22.65-4.23,3,4.85,1.78,9.64,3.74,14.56,5.3A54.82,54.82,0,0,0,632,200.9c4.52-.67,9.06-1.15,13.53-2.22a13.51,13.51,0,0,0,3.67-1.29c5.26-3,10.3-6.34,15.94-8.61A12.43,12.43,0,0,0,667.6,187a3.06,3.06,0,0,0-2.54,0,40.94,40.94,0,0,1-15,5c-4.82.66-9.7,1-14.56,1.19a23.63,23.63,0,0,1-6.58-.66A88.74,88.74,0,0,0,614,190.24c-2.35-.16-4.71,0-7-.8-.44-.16-1.21-.22-1.36.91a31.39,31.39,0,0,1,5.3,1.79c1.47.79,3.88.83,4,3.71-1.37,0-2.52,0-3.64-.1-2.05-.21-4.09-.56-6.15-.77C599.65,194.41,599.71,194.12,596.76,190.39Zm-37.11,3c-2.54,3.43-6.28,3.88-9.93,4.32a39.6,39.6,0,0,1-6.16-.15c-1.43-.05-2.89-.41-4.34.47,1.15,2.2,2.38,4.17,3.22,6.3.93,2.32-.46,4.55-.92,6.84,2.6.56,5.06,1,7.46,1.62a11.07,11.07,0,0,0,10.39-2,24.19,24.19,0,0,1,8.8-4.85c3.44-.89,4.17-3.35,2.41-6.53a7.28,7.28,0,0,0-2-2.21A26.09,26.09,0,0,0,559.65,193.42Zm24.81-22.15a31.28,31.28,0,0,0,5.16,13.2c1.32,1.94,2.68,2.11,4.45.62a17.81,17.81,0,0,0,4.67-6.35c1.71-3.74,3.48-7.46,5-11.29.94-2.42,1.82-5,.44-7.79a7.5,7.5,0,0,0-2.2.11c-1.93.72-3.46-.07-4.92-1.14-2.26-1.65-4.46-3.36-6.72-5-.51-.37-1-1.16-2.06-.33C589.35,159.71,587.22,165.63,584.46,171.27Zm20.2,122.13a10.81,10.81,0,0,0-2.26,4.41,35.08,35.08,0,0,1-7.13,12.62c-.66.79-1.34,1.57-2.08,2.29a11,11,0,0,0-3.51,8.31,59.63,59.63,0,0,0,.2,7.07,67.32,67.32,0,0,1,.25,16.32c0,.24.21.51.33.77.15,0,.35,0,.43,0A6,6,0,0,0,592,343.9c3.51-6.51,6.79-13.1,8.53-20.36.62-2.57,1.89-5,2.28-7.62.9-6,1.47-12,2.08-18A31.15,31.15,0,0,0,604.65,293.41ZM580.78,175.78c-3.54-.21-6.67-.08-9.67-.65s-5.83-1.81-9-2.84a21.12,21.12,0,0,0,.18,2.74c.5,2.44,1.5,4.87,1.5,7.3s-1,4.85-1.53,7.24c.19.25.31.59.54.7a37.68,37.68,0,0,0,14.81,3.81,6.06,6.06,0,0,0,5.06-2.25,7.71,7.71,0,0,0,1.38-8.27C583.08,180.94,581.89,178.4,580.78,175.78ZM527.18,21.12c1.32,2.54,2.45,4.75,3.61,6.95a6.58,6.58,0,0,0,3.29,2.8c2.52,1.18,5,2.53,7.48,3.74,2.25,1.08,4.52,2.15,6.83,3.08a13.84,13.84,0,0,0,6.54,1.09,8.54,8.54,0,0,0-.33-1.44,30.68,30.68,0,0,1-2.73-7.43,6,6,0,0,0-3.12-4.08,21.27,21.27,0,0,1-5-4.33,24.93,24.93,0,0,0-3.45-3.4,8.26,8.26,0,0,0-3.48-1.72,19.67,19.67,0,0,0-6.63-.31ZM601.42,269.3c.3-2.2.58-3.79.72-5.39.54-6.27-.6-12.42-2.18-18.38-1.88-7.11-4.4-14.07-7-21a55.45,55.45,0,0,0-6.92-12.7,8,8,0,0,0,0,1.81c1,3.39,2.08,6.77,3.11,10.15q2.13,7,4.24,14c.21.69.37,1.46-.7,1.71a13.28,13.28,0,0,1-3.47-6c-.72-2.4-1.57-4.77-2.42-7.13-.23-.64-.3-1.49-1.33-1.69-.09.4-.33.84-.23,1.17,1.9,6.17,3.32,12.5,6.07,18.39a6.88,6.88,0,0,1,.52,2.08,56.42,56.42,0,0,0,4.09,14.36,74.82,74.82,0,0,0,3.83,7.48C599.94,268.46,600.42,268.61,601.42,269.3Zm-44.76,2c1.67-1.77,2.64-2.67,3.46-3.69,3.33-4.16,6.49-8.38,7.24-13.93a21.07,21.07,0,0,1,2.9-7.84,26.13,26.13,0,0,0,2.5-5.14,76,76,0,0,0,3.93-22.14c0-.48.42-1.19-.68-1.48-1.24,2.79-2.29,5.71-3.79,8.39a29.17,29.17,0,0,0-3,8.27,58.94,58.94,0,0,1-1.93,6.34,1.22,1.22,0,0,1-1.52,1c-.15-.37-.55-.89-.5-1.36.16-1.46.52-2.89.75-4.34s.42-2.91.58-4.38c0-.17-.26-.38-.56-.78a6.91,6.91,0,0,0-.94,1.47c-1.47,4.8-3,9.59-4.29,14.42a21.25,21.25,0,0,0-.55,4.81,58.08,58.08,0,0,1-3,17.82C557.13,269.18,557,269.75,556.66,271.26Zm-122-200.39a3.81,3.81,0,0,1,.58,3.83,10.65,10.65,0,0,0-.61,2.58,7.63,7.63,0,0,0,6.3,8.29,4.44,4.44,0,0,0,4.86-2.3c1.66-3.17,2.83-6.6,2.27-10.19-.6-3.88-1.71-7.69-2.6-11.51l-5.83-2.84Zm31-50.25a70.25,70.25,0,0,1,7.35.2,23.27,23.27,0,0,0,12.1-1.69,32.8,32.8,0,0,0,6.3-4A4.54,4.54,0,0,0,492.73,13a9.67,9.67,0,0,0-.59-6.87,2.3,2.3,0,0,0-2.43-1.58c-2.73.38-5.58.24-8.34,1.65.95,1.65.46,3.12-.4,4.54-1.46,2.43-3.89,3.08-6.42,3.21a19.38,19.38,0,0,1-4.33-.65c-2-.36-2.8.08-3.29,1.91S466.1,18.6,465.61,20.63ZM618.87,222.22a11.61,11.61,0,0,1-6-2.71c-2.75-2.22-5.57-4.35-8.36-6.52a5.22,5.22,0,0,0-3.66-1.52,4.44,4.44,0,0,0,1.93,2.89c3.21,2.83,6.38,5.72,9.68,8.43a85.4,85.4,0,0,0,8.16,6.08c5.71,3.65,11.55,7.11,17.37,10.59a16.58,16.58,0,0,0,3,1,8.55,8.55,0,0,0-2-4.28,49.81,49.81,0,0,0-9.13-9.59,21.5,21.5,0,0,1-2.69-2.29,24.08,24.08,0,0,0-6.32-4.78,22.65,22.65,0,0,1-6.45-5.27,15.33,15.33,0,0,0-8-4.81C611.15,214.14,615.46,217.71,618.87,222.22Zm-103-17.3a18,18,0,0,0,1.48,1.73c3.57,3.06,7.81,4.59,12.35,5.65,4,.95,6.47-1.14,8.7-3.86a3.22,3.22,0,0,0,.35-3.75,18.78,18.78,0,0,0-2.16-3.34c-1.85-2.11-3.81-4.11-5.79-6.1a10,10,0,0,0-2-1.18A53.33,53.33,0,0,1,515.91,204.91ZM423.7,102.43c1.74-2.86,3.33-5.16,4.58-7.63,1.37-2.7,1.36-5.71,1.06-8.64-.27-2.69-.1-5.54-1.51-7.62h-8.7a17.67,17.67,0,0,0-2.63,7.62c-.33,2,.37,3.74,1.11,5.5.34.81.38,1.74.75,2.53,1.05,2.25,2.15,4.48,3.34,6.66C422,101.4,422.76,101.71,423.7,102.43ZM594,114c2.31,3.21,5.72,4.13,8.6,5.7a18,18,0,0,0,9.66,2.27c.69-8.67-4.1-18.4-10.81-21.94C601.5,105.84,598.34,110,594,114Zm-168.24-6.47c1.44,5.84,4.78,10.39,7.91,15a3.5,3.5,0,0,0,3.54,1.67,19.17,19.17,0,0,0,1.55-9.86c-.61-4.1-1.29-8.2-3.63-11.76a5.4,5.4,0,0,1-1.07-4.16,2.25,2.25,0,0,0-1.45-2.68c-.68,2.11-1.38,4.18-2,6.26C429.84,104.43,427.5,105.49,425.76,107.54Zm49.32,63a9.16,9.16,0,0,0,.44-6.35c-1-4.31-1.48-8.74-3.28-12.83a18.59,18.59,0,0,0-1-2.44,23.5,23.5,0,0,0-2.08-2.47c-2.13,3.45-5.57,5-8.19,7.57C463.72,161.24,467.71,167,475.08,170.57Zm.84-144.14L469,25.07c-3.89,4.36-4.41,4.53-11.64,3.78-.59,1.82-1.93,3.4-2.14,5.52a23.05,23.05,0,0,0,11.14,4.1,5.07,5.07,0,0,0,3.34-.83C473.78,35.07,475.47,31.26,475.92,26.43ZM440.75,47.52c-.39,2.61.73,4.61,2.45,6.34a6.47,6.47,0,0,0,10.24-1.22,18.75,18.75,0,0,0,2.67-10.54,3.8,3.8,0,0,0-1-2.27,25.55,25.55,0,0,0-3.3-2.35c-.65,1.14-1.2,2-1.64,2.88a4.25,4.25,0,0,1-3.35,2.53,5.24,5.24,0,0,0-2.22,1.2C443.34,45.08,442.21,46.19,440.75,47.52ZM420.39,72.67a6.48,6.48,0,0,0,7.12-.48c6.39-4.46,9.35-10.75,10.21-18.24.12-1.06.86-2.33-.52-3.32-1.88,1.08-3.58,2.14-3.94,4.76-.18,1.3-1.42,2.53-2.39,3.61a8.52,8.52,0,0,1-3.08,2.42c-1.24.46-2.73.25-4.2.33A38,38,0,0,0,420.39,72.67Zm193.47,80.61c-1.48,1.29-2.52,2.31-3.67,3.18a4.38,4.38,0,0,0-1.79,5,8.78,8.78,0,0,1-1.67,7.91,4.72,4.72,0,0,0-.87,1.53,11.12,11.12,0,0,0-.13,2.19c4-1.74,5.2-5.65,8-7.54a33,33,0,0,1,.68-5.07A10.48,10.48,0,0,0,613.86,153.28Zm-3.51,74.11c2.44,2.54,4.3,5.64,7.43,7.43,3.58,2,7.18,4.06,10.82,6q3.7,2,7.53,3.68a12.94,12.94,0,0,0,7.13,1.25c-3.76-2.9-7.87-3.82-11.36-5.93-3.65-2.2-7.51-4.06-11.28-6.06C617.07,231.85,614.14,229,610.35,227.38Zm-1.94,35.87c-1.32,5.3,1.27,9.24,1.68,13.85l2.45-1.33,2.27-1.21C612.94,270.63,611.35,266.89,608.41,263.25ZM441.86,42.69c2-1.63,2.33-3.91,3-5.94.59-1.78.29-2.12-2.19-3.61a13.08,13.08,0,0,0-4.7,5.51,4.61,4.61,0,0,0,.65,1.21C439.67,40.84,440.76,41.74,441.86,42.69Zm3.6-12.41c2.8,1.22,3.44,1.37,5.08,1.32,3-.09,4.55-1.94,4.16-4.89a1.68,1.68,0,0,0-2.57-1.38A30.46,30.46,0,0,0,445.46,30.28ZM435.14,41.06c-2.13,3-3.7,6.37-3.84,8.3,0,.34.33.77.61,1a.92.92,0,0,0,.81,0,6.82,6.82,0,0,0,3.13-4A5.28,5.28,0,0,0,435.14,41.06Zm20.61-20.52c6,.08,7.55-1.09,7.59-5C459.66,15.07,458.57,18.35,455.75,20.53ZM594.31,206l1-4.06c-1.53-.78-3-1.53-4.41-2.22-.2-.09-.53.08-1,.16C590.3,202.67,592.56,204,594.31,206Zm-13.94-8.09c-2.61-.57-4.07-1.23-5.86-.19l1.25,3.06Zm6.71-6c2-.21,2.49-.4,3.15-1.62a1.1,1.1,0,0,0-1.85-1.19A18.19,18.19,0,0,0,587.08,192Zm11.31,17.8.23.28c.06-.05.17-.14.16-.15a2.51,2.51,0,0,0-.22-.29Zm-7.88-15.41,0,.39.29-.14Zm12.15,33a1.12,1.12,0,0,0,.12.32s.17-.05.26-.08a.93.93,0,0,0-.13-.3S602.76,227.37,602.67,227.39Z" transform="translate(0 0)"/><path class="cls-1" d="M289.92,37.3a7.64,7.64,0,0,1,1,.21c1.74.62,1.74.63,2.15,2.83-.44,1.51-2.54,1.81-2.62,3.45l4.91-.32a4.32,4.32,0,0,0,1,0c3.62-1.14,7.23-.48,10.83.1,1.41.23,2.79.7,4.19,1a16.51,16.51,0,0,1,9.82,6.31c1.59,2,3.31,3.89,4.18,6.32.78,2.17,1.44,4.4,2,6.64.5,1.93.85,3.89,1.18,5.86a8.83,8.83,0,0,1-.22,5.23,2,2,0,0,0-.22,1.28c.88,2.72-.9,5.15-.83,7.79a2.78,2.78,0,0,1-.71,1.45,14.74,14.74,0,0,0-2.64,4.92,4.2,4.2,0,0,1-.6,1.18c-1.71,2.58-3.47,5.13-5.13,7.74a2.14,2.14,0,0,1-2.47,1.18l-.08,0c1.58-.92,1.74-2.74,2.54-4.13,1.72-3,3.22-6.07,4.7-9.17a11.89,11.89,0,0,0,1-3.46,22.47,22.47,0,0,1,1.69-6.41,5.39,5.39,0,0,0,.34-4.2,14,14,0,0,1-.54-4.94,8.36,8.36,0,0,0-1.08-4.79,12,12,0,0,1-.87-2.15A13,13,0,0,0,319.9,56a28.37,28.37,0,0,1-4.07-4.37,8.61,8.61,0,0,0-5.49-3.48c-3.91-.72-7.79-1.6-11.86-1.46a17.33,17.33,0,0,0-10,3.92c-.88.66-1.63,1.5-2.47,2.22-3.53,3-3.54,3-7.67,4.42a7.27,7.27,0,0,1-5.2,0c-2.51-1-4.91-2-6.23-4.63a4.27,4.27,0,0,0-3.18-2.14,27.94,27.94,0,0,1-5.35-1.81,8.67,8.67,0,0,1-5.14-5.77c-.77-3-1.44-6-1.94-9.1a12,12,0,0,1,.5-5.91,39,39,0,0,0,1-5c.69-.2,1.41-.44,2.14-.62.19,0,.42.09.63.14.78.74.31,1.67.38,2.51a17.84,17.84,0,0,0,.62,4.23,10.11,10.11,0,0,0,4.78,5.75C263.29,36,265.27,37,267.26,38c1,.48,2.16.63,3.11,1.16a18.13,18.13,0,0,1,2.51,2c.79-.27.59-.92.68-1.4a30,30,0,0,0,.05-11.26c-.39-2-.65-3.94-1-5.92a2.23,2.23,0,0,1,0-1,1.2,1.2,0,0,1,.57-.71,1.14,1.14,0,0,1,.92.09,2.41,2.41,0,0,1,.89,1c1.56,3.56,3.1,7.13,2.91,11.16-.08,1.74,0,3.48,0,5.24.24,0,.53.09.63,0,2-2,4.61-2.69,7.16-3.33,3.35-.85,5.18-3.16,6.74-5.92,0,0-.09-.17-.25-.47a37.77,37.77,0,0,1-4.79,2.63,47,47,0,0,1-6,1.42c.62-.65.82-1,1.12-1.15a9.34,9.34,0,0,1,2.2-.69c3.21-.48,5.77-2.24,8.12-4.28a10.76,10.76,0,0,0,1.79-2.74c.56-.95,1-2,1.65-2.86a1.19,1.19,0,0,1,1.12-.25,1.29,1.29,0,0,1,.67,1,22.77,22.77,0,0,1-.59,3.26c-.29,1.18-.65,2.34-1,3.5a12.35,12.35,0,0,1-3.68,6.2c-1,.85-1.92,1.83-2.87,2.75-1.81.46-3.63.88-5.43,1.4A12.13,12.13,0,0,0,282.5,40a11,11,0,0,0,5.68-.64C289,39,290,38.58,289.92,37.3ZM269.78,49.47c1.55-2,1.06-3.74.45-5.41a5.05,5.05,0,0,0-3.17-3.17C264.78,40,262.57,39,260.35,38a21.74,21.74,0,0,1-2.63-1.42c-.92-.58-1.79-1.25-3-2.07a12.17,12.17,0,0,0,0,1.52,23.41,23.41,0,0,0,2.15,6.27,2.85,2.85,0,0,0,.75,1.07c1.85,1.41,3.7,2.87,6.16,3C266.11,46.59,268.2,47.16,269.78,49.47Zm9.08.74a3.45,3.45,0,0,0,2.92-1.65C279.49,47.34,278.86,47.69,278.86,50.21Zm3.22-4.28,2.21-1.58C282.75,44.09,282.06,44.48,282.08,45.93Z" transform="translate(0 0)"/><path class="cls-1" d="M268.66,56.8c-3,0-5.42,0-7.85,0-4,0-7.94-.64-11.92-1-1.11-.09-2.22-.2-3.32-.19a4.77,4.77,0,0,0-1.91.4A33,33,0,0,0,230.93,67a15,15,0,0,0-1.46,3c-.69,1.64-1.28,3.32-2,4.94a19.65,19.65,0,0,0-1.74,9.7c.21,2.64-.17,5.34.12,8a22.11,22.11,0,0,0,5.42,12.65c1.19,1.32,2.38,2.63,3.64,3.89a9.8,9.8,0,0,0,2.09,1.63,95.58,95.58,0,0,0,18.77,8.45c3.61,1.1,7.15,2.39,10.86,3.2a38.28,38.28,0,0,0,10.57,1c4.1-.25,8.21-.41,12.11-1.89s7.86-3,11.09-5.91c.82-.73,1.83-1.26,2.69-2a68.41,68.41,0,0,0,8.89-8,5,5,0,0,1,1-.69c.48.59.09.95-.08,1.33-1.48,3.41-3.9,6.08-6.48,8.71a54.39,54.39,0,0,1-11.91,9.52,26.52,26.52,0,0,1-10.32,3.52c-2.54.27-5.09.43-7.63.63a24.52,24.52,0,0,1-7.92-.81c-5.26-1.32-10.5-2.79-15.7-4.35a48.21,48.21,0,0,1-6.15-2.53c-2.92-1.34-5.82-2.74-8.7-4.18-6.61-3.31-11.22-8.56-14.51-15.07a28.59,28.59,0,0,1-3-15.82c.22-2.43.27-4.88.45-7.31A17.83,17.83,0,0,1,222.89,72c1.44-2.87,2.59-5.9,4.72-8.38a54.42,54.42,0,0,1,5.27-6,34.67,34.67,0,0,1,8.66-5.54,7.26,7.26,0,0,1,4.9-.28c3.76,1,7.67,1.13,11.42,2.29,2.19.68,4.61.57,6.93.86a22.13,22.13,0,0,1,2.92.59C267.94,55.61,268.08,56,268.66,56.8Z" transform="translate(0 0)"/><path class="cls-1" d="M311.77,83.21l-1.7-2.59,1.87-2.09c-.06-.19-.07-.45-.21-.57-.67-.55-1.36-1.06-2-1.57L310.82,73c-1-1.06-1.7-2.21-1.05-3.84a2.28,2.28,0,0,0-.55-2.1c-1.28-.88-1.6-2.29-2.4-3.42a5.1,5.1,0,0,0-.86-.74c-1.14,0-2.36,1.36-3.73.07l.33-2.16a1.8,1.8,0,0,0-1.83-1.18c-1.31,0-2.61.18-4.32.32l-1.65-1.55c2.91-3,6.16-2.05,9.34-1.26,1.16-.59,1.34-1.77,1.85-2.72.73-1.37,1.37-2.79,2.09-4.16a1.33,1.33,0,0,1,1.72-.6,1.22,1.22,0,0,1,.92,1.23,6.86,6.86,0,0,1-.71,3.54c-.77,1.47-1.49,3-2.33,4.65l1.92,1.72c1.31-1.78,1.9-3.79,3.55-5a1.52,1.52,0,0,1,1.58,1.75,6.45,6.45,0,0,1-.63,2.2c-.52,1.1-1.2,2.13-1.73,3.23-.15.32,0,.77,0,1.51l4-2.66c2.13,1.21,2.34,2,1.09,3.61l-2.17,2.82c1.49-.47,2.4-.73,3.3-1a2,2,0,0,1,1.88.38,1.45,1.45,0,0,1,.49,2.27A55.24,55.24,0,0,1,316.67,74a23.16,23.16,0,0,0-3.18,2.72c.4.78.79.45,1.14.26A15.82,15.82,0,0,1,317,75.74a5.4,5.4,0,0,1,2.26-.13,1.24,1.24,0,0,1,.81,1.83c-.55.83-1.2,1.58-1.81,2.37,1.79,2.57,1.63,3.51-.94,5.27-.46.31-1,.56-1.44.83l-5.13,2.86a5.37,5.37,0,0,1-1.26-.65,1.68,1.68,0,0,1-.28-2.6C310,84.7,310.84,84,311.77,83.21Z" transform="translate(0 0)"/><path class="cls-1" d="M245.34,65.34a19,19,0,0,1,1.92,2.38,3.53,3.53,0,0,1,.07,3.71,31.52,31.52,0,0,0-3.23,8.32,5.75,5.75,0,0,1-.65,1.51c-1.22,2.35-2.13,2.78-4.8,2.33-.86-.15-1.73-.26-2.51-.37a5.52,5.52,0,0,1-2.17-5,19.39,19.39,0,0,1,1.44-7.11c1.18-2.85,3-4.86,6.27-5.2C242.76,65.81,243.84,65.58,245.34,65.34Zm-7.1,13.53c2.12-1.32,2.14-3.65,3.2-5.31.9-1.42,1.85-3,1.27-5a4.2,4.2,0,0,0-2.93,2.53C238.69,73.44,237.55,75.83,238.24,78.87Z" transform="translate(0 0)"/><path class="cls-1" d="M304.6,103.1a5.87,5.87,0,0,0,.26-1.54c-.28-2,.78-3.12,2.37-3.89,1.19-.57,2.46-1,3.7-1.45a4.19,4.19,0,0,1,1-.18c.72-.08,1.5.35,1.58.9a1.49,1.49,0,0,1-1,1.56c-.58.29-1.26.39-1.88.63-.91.36-1.81.77-2.72,1.16.53.45,1.18.76,1.35,1.23a1.52,1.52,0,0,1-.63,1.36c-2.12.89-2.91,3.09-4.58,4.43-1.37,1.1-2.24,1.36-3.76.37-1-.62-1-1.48-.12-2.1s2-1.33,3.07-2A9.41,9.41,0,0,1,304.6,103.1Z" transform="translate(0 0)"/><path class="cls-1" d="M308.07,95.08c-.49-.38-1.16-.67-1.41-1.17a1.81,1.81,0,0,1,.37-1.5,9.78,9.78,0,0,1,4.36-2.89,31,31,0,0,1,3.45-1.1,1.71,1.71,0,0,1,1.95.87,1.43,1.43,0,0,1-.43,1.78,8.79,8.79,0,0,1-2.44,1.62,13.89,13.89,0,0,0-3.85,1.82A6.42,6.42,0,0,1,308.07,95.08Z" transform="translate(0 0)"/><path class="cls-1" d="M298,109a3.1,3.1,0,0,1,.94.36c.89.78.91,1.56.06,2.18-.53.39-1.14.68-1.67,1.07-1,.77-2.07,1.57-3.1,2.35-.86-.09-1.34-.71-1-1.35.61-1.09.95-2.43,2.48-2.88C296.51,110.56,297.11,109.76,298,109Z" transform="translate(0 0)"/><path class="cls-1" d="M291.34,115.64c-.16,1-.82,1.44-1.46,1.23s-1-.47-1-1.14a1,1,0,0,1,1.43-.91C290.77,115,291.09,115.42,291.34,115.64Z" transform="translate(0 0)"/><path class="cls-1" d="M274.81,115.77a1.53,1.53,0,0,1,1.68,1.7c-.07.31-.6.78-.85.74a3.07,3.07,0,0,1-1.38-.75.91.91,0,0,1-.18-.84A3.62,3.62,0,0,1,274.81,115.77Z" transform="translate(0 0)"/><path class="cls-1" d="M269,113.7c-.62.37-1,.75-1.3.74a2.05,2.05,0,0,1-1.42-.52c-.21-.26,0-.91.11-1.68Z" transform="translate(0 0)"/><path class="cls-1" d="M272.08,115.28l-.4.4c-1.22.44-1.58-.47-2.29-.46.43-1.75.57-1.82,1.55-1.19a5,5,0,0,1,.77.57A3,3,0,0,1,272.08,115.28Z" transform="translate(0 0)"/><path class="cls-1" d="M284.39,117c-.33-.27-.7-.42-.71-.6s.28-.6.45-.61a.88.88,0,0,1,.64.47C284.82,116.39,284.56,116.68,284.39,117Z" transform="translate(0 0)"/><path class="cls-1" d="M315.73,100.41c0,.15,0,.3,0,.44l.22-.07-.27-.33Z" transform="translate(0 0)"/><path class="cls-1" d="M333.53,279.67l1,2.49a2.1,2.1,0,0,0,.7.15,5.79,5.79,0,0,0,4.42-3.61c1.11-2.36,2.25-4.71,3.4-7,.27-.54.51-1.25,1-1.52,3.29-1.91,5.62-4.91,8.38-7.41a113,113,0,0,1,17-12.78c3.4-2.08,6.76-4.23,10.13-6.36.42-.27.77-.73,1.22-.85,4.44-1.19,7.76-4.42,11.76-6.42,2-1,3.68-2.47,6.07-2.31a1.7,1.7,0,0,0,.71-.22c2.75-1.17,5.58-2.18,8.23-3.55,4.48-2.33,9.3-3.47,14.17-4.56a61.73,61.73,0,0,0,7.14-2.16,6.49,6.49,0,0,0,2.42-1.67c1.38-1.48,2.84-2,4.63-.83a5.91,5.91,0,0,0,3.21.77c3.71.07,7.42.25,11.42.4a19.69,19.69,0,0,1,1.43-1.78,2.84,2.84,0,0,1,4.72.5,15.58,15.58,0,0,1,1.38,2.62,5.31,5.31,0,0,0,2.74,3.36,2.36,2.36,0,0,1,.86.71c2.94,3.89,6.82,6.85,10.26,10.24a200,200,0,0,1,13.48,15,30.42,30.42,0,0,1,4.62,8.07,6.86,6.86,0,0,1-2.56,7.88c-1.11.79-2.23,1.55-3.51,2.44.33.76.62,1.55,1,2.3a7.07,7.07,0,0,1,.82,5.39,3,3,0,0,0,1.11,3.34c3,2.7,5,6.16,7.67,9.16A14.05,14.05,0,0,1,497.7,298a10.57,10.57,0,0,0,.86,2.44c1.44,3,.7,5.82-.89,8.47a56.2,56.2,0,0,1-3.4,4.89c-2.2,2.91-5.25,3.39-8.12,1.27-1.3-1-2.47-2.08-3.71-3.12s-1.74-1-2.85.69a6.43,6.43,0,0,0-.38.93c.37.58.84,1.29,1.27,2,1.22,2,2.4,4.07,3.66,6.07a5.84,5.84,0,0,1-.11,6.67,12.27,12.27,0,0,0-.85,1.67,15.43,15.43,0,0,1-5.41,6.54,26.7,26.7,0,0,0-3.52,2.77,6.74,6.74,0,0,1-5.47,1.84c-2.75-.11-3.27-.31-5.92-1.78-1.18,2-2.34,4-3.56,6-.52.85-1.26,1.56-1.72,2.43-1.36,2.52-4,3.23-6.28,4.33a4.51,4.51,0,0,1-5.47-1.17c-.65-.74-1.1-1.66-1.73-2.42s-1.19-1.17-2.41-2.34a39.44,39.44,0,0,0,1.28,4.6c1.82,4.21.17,7.55-2.65,10.51A62.73,62.73,0,0,1,435,366c-2.18,1.83-5,2.15-7.59,3a3.22,3.22,0,0,1-2.35-.79,17.8,17.8,0,0,0-3.12-2.43c-1,.21-1.18,1-1.61,1.57s-.85,1.23-1.26,1.85a11.26,11.26,0,0,1-3.71,3.62c-1,.56-1.82,1.31-2.72,2-2.81,2-5.84,3.3-9.75,2.62l-4.72-6.18c-1.56-.17-2.44.89-3.4,1.56a12.93,12.93,0,0,1-4.41,2c-2.74.68-5.18.17-7-2.21-.38-.49-.81-.95-1.24-1.4a14.61,14.61,0,0,1-4.17-10.85c0-1.72-.22-3.44-.34-5.21-.73-.1-1.21-.19-1.69-.21a3.3,3.3,0,0,1-2.72-1.69c-2-3-4.58-5.59-6.11-8.91-.13-.29-.53-.46-.87-.75-1.25.64-1.63,1.84-2.16,2.93a4.41,4.41,0,0,0,.24,1.12c1.81,3.49,2.19,7.38,3.06,11.12.59,2.54,1,5.13,1.5,7.69a4.37,4.37,0,0,0,4.95,3.46c1.52-.19,1.86-1.47,2.39-2.49,2.27-.06,2.58.29,2.3,2.09a3.5,3.5,0,0,1-2.51,2.93,9.6,9.6,0,0,1-9.31-2.24,3.2,3.2,0,0,1-1.2-2.61,4.58,4.58,0,0,0-.45-1.72c-.23-.7-.57-1.36-.73-2.07-.71-3-1.37-6.07-2.06-9.11a19.15,19.15,0,0,1-.57-2.55,16.8,16.8,0,0,1,.23-2.68c-.93.55-1.56.9-2.16,1.29a5.48,5.48,0,0,1-6-.08,9.57,9.57,0,0,1-4-4.31,54.17,54.17,0,0,1-2.39-5.87c-1.61-4.84-3-9.77-4.68-14.58-1.89-5.3-2.9-10.81-4.32-16.23-1.54-5.89-2.8-11.86-4.24-18a14.93,14.93,0,0,0-2-.51c-1.74-.22-2.55-1.42-3.12-2.87a7.43,7.43,0,0,1,2-7.5A10.54,10.54,0,0,1,333.53,279.67Zm47.28,52c-1.18.1-1.1,1.18-1.48,1.9-.24.44-.51.88-1.35.51a22.25,22.25,0,0,1,0-2.39c.09-.86.37-1.69.49-2.55s.17-2,.25-3c.07-.84.16-1.67.23-2.41l2.1-.8c-.49-.95-.85-1.71-1.27-2.43-.08-.13-.42-.11-.85-.2l-.9,3.37c-.9.3-1.53.07-1.45-.7.18-1.94.53-3.87.86-6.16-.59.23-1.16.27-1.3.54-.41.76-.56,1.65-1,2.42s-1.1.93-1.91.05c.82-2,.37-4.53,2.06-6.41-.34-.76-.44-1.77-1.72-1.5a22.62,22.62,0,0,1-1.31,2.66c-.41.63-1,.57-1.56-.16a13.79,13.79,0,0,0,.39-3.24c-.16-1.48,1.06-2,1.71-2.75a5.92,5.92,0,0,0-1.38-2.43c-1,.22-.59,1.7-2,1.3a11.79,11.79,0,0,1-.06-4.25c.19-2.37-1-4.24-2.22-6.11-1.85-.36-1.73-1.4-1-2.74a1.57,1.57,0,0,0-.14-1.08c-.54-1.38-1.12-2.74-1.68-4.09l-2.39.3c.06-1.46-.23-2.82.23-3.84.75-1.68.16-2.8-.65-4-.85.15-1.82.72-2.1-.25-.51-1.77-.71-3.62-1-5.44,1.21-3.08-.75-5.36-1.83-8.1-2.76,2-5,4.09-6.43,7.15.25.74.54,1.55.8,2.38,1.71,5.47,3.13,11,5.29,16.35a6.27,6.27,0,0,1,.35,1.07c1.2,5.74,3.29,11.21,5.1,16.77,2.59,7.92,5.79,15.65,7.63,23.82a27.88,27.88,0,0,0,1.74,5.28c1.33,3,2.84,5.82,4.31,8.71a1.19,1.19,0,0,0,1.41.79l1.42-3.53,1.7,2.23a4.92,4.92,0,0,0,2.58-3.59c1-3.66,1-7.39.93-11.13a7.13,7.13,0,0,0-.71-1.81c-.54,1.65-.92,2.8-1.29,3.95a7.82,7.82,0,0,1-.56,1.76c-.46.74-1,.48-1.6-.48.44-1.18,1-2.56,1.47-4a6,6,0,0,0,0-1.79,7.35,7.35,0,0,0,.26-6.91C380.92,327.06,380,329.36,380.81,331.69Zm20.7-93.79c.71.88,1.25,1.69,1.93,2.38,7.1,7.18,14.14,14.41,20.61,22.17,4.55,5.45,9,11,13.55,16.44,3.95,4.65,7.94,9.28,12.16,13.68,4.49,4.67,8.85,9.44,13,14.39a55.51,55.51,0,0,0,6.4,6.24c2.25,1.92,3.69,1.69,5.82-.49.52-.53,1-1.11,1.49-1.67,2.83-3.16,3.39-6.32,1.31-9.91-1.87-3.22-4.09-6.22-6.19-9.31a40.63,40.63,0,0,0-9.1-9.3c-2.36-1.82-4.58-3.84-6.81-5.81a53.92,53.92,0,0,1-4.06-3.86c-5.22-5.69-10.39-11.42-15.58-17.14q-10.3-11.34-20.61-22.67a13.94,13.94,0,0,0-1.4-1.14C410.22,234.33,405.5,235,401.51,237.9Zm4.94,65.92a3.1,3.1,0,0,1,3.49,2.82,38.43,38.43,0,0,1,.47,5.2c0,1-.5,1.94-.49,2.91,0,1.39-1.8.79-1.9,2.42,1.1,1.9,2.4,4.15,3.72,6.39.22.37.43.9,1.09.42a27.37,27.37,0,0,1-1.19-2.71,10.25,10.25,0,0,1-.59-2.9,8.54,8.54,0,0,1,.49-2.86,1.58,1.58,0,0,1,2.52-.4,4.47,4.47,0,0,1,1,1.55,17,17,0,0,1,1,7c-.15,1.62-.08,3.42-1.63,4.56l3.66,6.31-1.14-8.65a5.43,5.43,0,0,1,1.84-.88,3.16,3.16,0,0,1,2,.66,3.6,3.6,0,0,1,1.08,1.88,13.63,13.63,0,0,1-.13,6.64,3.37,3.37,0,0,1-2.36,2.54,24.36,24.36,0,0,0,5.75,8.16c1.93-.67,3.7-1.26,5.45-1.91a3.35,3.35,0,0,0,2.31-2.71,17.52,17.52,0,0,0,.4-2.2c.14-4,.18-8-1.18-11.76-.58-1.62-1.5-3.11-2.11-4.72-1.47-3.84-2.78-7.73-4.28-11.56a14.24,14.24,0,0,0-2.41-4.58c-3-3.23-5-7.13-7.53-10.67-2.75-3.84-5-8-8.08-11.65a72.83,72.83,0,0,1-5.26-7.69q-4.41-6.72-8.76-13.48-1.72-2.67-3.32-5.4c-1.39-2.36-2.67-4.78-4.09-7.12a24.36,24.36,0,0,0-2.15-2.64c-2.76,1.74-5.76,2.69-7.89,5.12a7.4,7.4,0,0,0,1.11,3.92c2,4,4,8,6,12L394.1,289.6c2.44,4.91,4.86,9.82,7.32,14.72.24.47.44,1.24,1.43.72-.11-.91-.29-1.85-.33-2.8s.07-1.88.12-2.83C405.54,299.69,405.71,299.88,406.45,303.82Zm43.81,8.4a9.89,9.89,0,0,0-.68-6,38.19,38.19,0,0,0-5.85-9.9c-3.11-3.72-6.48-7.23-9.62-10.93-3.61-4.27-7.07-8.67-10.62-13-1.26-1.54-2.66-3-3.87-4.54A146.94,146.94,0,0,0,406.57,253a104.05,104.05,0,0,1-10.59-12,3.93,3.93,0,0,0-1-.67c-1.94,1-4.17,1.53-5.17,3.62,4.63,7,9.16,13.88,13.64,20.75,2.11,3.23,4,6.62,6.23,9.76,6.29,8.84,11.74,18.21,17.79,27.2,3.61,5.36,7,10.9,11.34,15.73a35.94,35.94,0,0,0,2.42,2.83c1.74,1.57,3,2.43,4.9-.16.51-.68,1-1.35,1.48-1.93C446,313.81,446,313.81,450.26,312.21Zm-53.15,34.93c.6,0,.89.07,1.08,0,1.9-.93,3.78-1.89,5.67-2.85a2,2,0,0,0,.63-.4,4.47,4.47,0,0,0,.86-1.19,7.9,7.9,0,0,0,.82-4c-.39-3.2-.64-6.43-1-9.63a9.05,9.05,0,0,0-.56-1.78A85.11,85.11,0,0,0,399,314.69c-4.29-8.16-8.65-16.29-12.32-24.76-2.12-4.91-4.48-9.7-6.46-14.69-2.29-5.78-5-11.38-7.62-17-.4-.87-.92-1.69-1.48-2.7a31.69,31.69,0,0,0-9.29,7c.26.84.44,1.56.71,2.25,1.3,3.24,2.63,6.46,4,9.69a23.81,23.81,0,0,0,1.15,2.76c3.08,5.45,4.82,11.45,7,17.26,2.66,7.11,5.3,14.23,8.08,21.29,1.09,2.77,2.59,5.39,3.85,8.1,2.1,4.52,4.14,9.07,6.25,13.58.26.56.31,1.53,1.43,1.33,0-2.61,0-5.19,0-7.71,1.86-.58,2.13-.55,2.68.4.65,1.12.76,2.61,2.47,2.93.4.08.83,1,.91,1.52a10,10,0,0,1-1.38,6.74c-1.48-.2-2.25-2.51-4.07-1C395.15,343.59,396.34,345.22,397.11,347.14ZM433,226c-3.72.37-8.9,2.22-11,3.89,0,.12,0,.27.12.35l22.75,24.2c4.77,5.08,9.51,10.19,14.32,15.23,4.29,4.5,9.47,8,13.54,12.79,1.51,1.77,4.23,2.24,6.3-.77.17-2,1.91-3.05,3-4.54a9.29,9.29,0,0,0-.78-2.19c-1.84-2.65-3.72-5.29-5.68-7.85-1.34-1.76-2.95-3.29-3.6-5.55a7,7,0,0,0-1.93-2.69,16.24,16.24,0,0,1-4.13-5.62c-1.32.72-2.45,1-3.37-.32A31.64,31.64,0,0,0,460,249.4c-3.51-3.69-7.13-7.29-10.71-10.92-.16-.16-.45-.18-.68-.27l-1.46,1.18c-.46-.28-1-.43-1.26-.8-1.27-1.9-3.11-3.12-4.79-4.59C438.26,231.52,434.79,229.58,433,226Zm-87.42,57.4c-1.59.71-1.86,2.4-2.91,3.4-1.23,1.19-1.27,2.5-1,4.1.74,4.4,1.28,8.83,1.93,13.25.12.85.33,1.7.54,2.54.29,1.2.73,2.37.91,3.58.8,5.28,1.47,10.58,2.32,15.85.35,2.2,1,4.36,1.56,6.52.46,1.8,1,3.57,1.48,5.36a39.09,39.09,0,0,0,3.35,8.27c1,1.87,2.33,2.39,4.38,1.8,3-.85,4.35-3.18,5.13-5.9a26.63,26.63,0,0,0,.48-4.07,7.48,7.48,0,0,0-.68-4.37,76.24,76.24,0,0,1-3.31-8.71c-.42-1.17-.78-2.36-1.26-3.51C356,315.48,354,309.19,352,302.91c-1.92-6-3.75-12.11-5.64-18.16A7.13,7.13,0,0,0,345.63,283.45Zm63.45,61c-1.51,1.32-2.46,2.54-3.72,3.18-2.94,1.5-6,2.71-9.08,4.06a6.77,6.77,0,0,0,.17,1.15c1.48,4.34,2.89,8.71,4.51,13a19.91,19.91,0,0,0,4.49,7.22c1.15,1.14,1.92,1.33,3.34.58,1.64-.88,3.16-2,4.77-2.89,2.36-1.36,3.76-3.56,5.18-5.74a3,3,0,0,0,.14-3.18,9,9,0,0,0-1-1.56,43.51,43.51,0,0,1-4.77-8C411.83,349.71,410.51,347.19,409.08,344.41Zm45.36-30.56a13.68,13.68,0,0,0-.81,2.24,1,1,0,0,0,.91,1.32c.11-.06.26-.08.31-.17.35-.53.73-1.08,1.47-.85,1,.29.84,1.16.76,1.87-.13,1.08-.39,2.15-.61,3.3,1.53.31,1.6-2.21,3.21-1.22.39,1.34-.2,2.63-.44,4a2.7,2.7,0,0,0,1.22,2.73c1.32-1.38-.14-3.87,2.42-4.51a4.78,4.78,0,0,1,.8,3.81,20.81,20.81,0,0,0-.53,2.56c-.08,1.32-.43,2.77,1.08,3.88a6.59,6.59,0,0,0,.65-1.28,24,24,0,0,1,.51-2.56c.27-.72.9-1.18,2-.68-.18,2-.41,4.1-.56,6.19-.16,2.28,1.06,3.6,3.31,3.44a7.07,7.07,0,0,0,2.74-1c1.08-.59,2-1.5,3.1-2.06a8.34,8.34,0,0,0,4-4.23c.59-1.37,1.31-2.69,1.81-4.1a3.42,3.42,0,0,0,.08-2.16,27.13,27.13,0,0,0-5.22-8.15c-.7.36-1.25.63-1.79.92a7.47,7.47,0,0,1-7.16.08,25.19,25.19,0,0,1-6.59-4.14c-.13-.12-.42-.06-.66-.08l-1,1.67C457.9,314.23,456.41,313.13,454.44,313.85Zm-45.24,17.92.48,8.61c.66,0,1.25,0,1.84,0a2.23,2.23,0,0,1,2.1,1.28,41.93,41.93,0,0,1,2.93,6,39.69,39.69,0,0,0,5.89,11.19,19.58,19.58,0,0,0,5.89,5.56,13,13,0,0,0,7.13-3.13,20.22,20.22,0,0,1,2.11-1.53,6.23,6.23,0,0,0,2.9-6.4c-.38-2.88-1.6-5.48-2.44-8.2-.3-1-.81-2.15-1.72-2.19-2.18,1.29-3.94,2.43-5.79,3.4-1.32.69-2.8,1.06-4.14,1.72a4.37,4.37,0,0,1-5.46-1.08c-2.38-2.53-4.62-5.21-6.75-8C412.51,337,411.12,334.64,409.19,331.77Zm33,5a45.06,45.06,0,0,0,5.49,9.19c2.21,3,3,3.17,6.12,1.23a3.27,3.27,0,0,0,.9-.66c1.51-2,3.07-3.91,4.45-6a4.85,4.85,0,0,0,0-5.32,107.92,107.92,0,0,0-9.26-14.5c-1.27,1-2.43,1.87-3.6,2.75a4.23,4.23,0,0,1-4.87.55,20.73,20.73,0,0,0-2.09-.76c-.62-.25-1.23-.54-2.06-.92a12.51,12.51,0,0,0,1.2,4.27l2.83-.83c-.12,1.35-.23,2.31-.28,3.28,0,.19.18.38.28.57a4.67,4.67,0,0,1,.72-.1c.35,0,.69.05,1,.08C443.9,332.15,443,334.37,442.15,336.76Zm39-69.4a21.49,21.49,0,0,0,2.76-1.15,2.62,2.62,0,0,0,1.13-3.83,18.93,18.93,0,0,0-2.67-4c-2.92-3.22-6-6.3-9-9.46-3.59-3.79-7.19-7.57-10.73-11.41-2.46-2.67-4.92-5.42-8.12-7.11-3.71-2-7.7-3.4-11.58-5-.28-.12-.69.1-1.45.22,1.2,1.5,1.39,3.48,3,4.25a6.33,6.33,0,0,1,3.27,3.33,2.42,2.42,0,0,0,3.33,1.5c.17-.07.45.15.82.29a8.9,8.9,0,0,1,.86,4.24,2.08,2.08,0,0,0,1.68,2.22l1.47-2.33c2,1.67.74,4.62,2.91,6.1l2.28-1.87c3.26,1,2.75,4.26,4,6.36.27,0,.49-.07.7-.13,2.41-.66,2.87-.5,3.91,1.41.41.75.79,1.53,1.23,2.39a3.3,3.3,0,0,1,4.16,2.34c.93,2.43,1.86,4.87,2.68,7.34C478.46,264.72,479.07,266.32,481.2,267.36Zm-93.85,67.46-.43,0c.36,2.94.63,5.9,1.09,8.82.53,3.33-1,5.76-3.18,7.93a12.19,12.19,0,0,1-3,2.1,1.49,1.49,0,0,0-.94,1.76c.37,2.46.85,4.91,1,7.38.25,3.4,2.21,5.71,4.57,7.82a4.25,4.25,0,0,0,4.16,1,8.94,8.94,0,0,0,5.74-4,11.87,11.87,0,0,0-.32-2.13c-1.41-4.24-2.78-8.5-4.36-12.68-.59-1.56-1.13-2.94-.5-4.63a4.06,4.06,0,0,0,0-2.5C389.94,342.05,388.63,338.44,387.35,334.82Zm92.22-47.61c0,2.62.06,4.91.09,7.45,1.48-1.57,2.72-1.31,3.89,0l.3,2.89c1.58.28,2.31,1,2.14,2.61-.26,2.38-.76,4.62-3,6.25,1.91,1.66,3.74,3.31,5.65,4.87a9.37,9.37,0,0,0,2.05.95c1.29-1.54,2.54-2.93,3.67-4.41a5.71,5.71,0,0,0,.64-6.61,67.08,67.08,0,0,0-9.64-14.62c-.74-.81-1.43-1.75-2.79-1.92ZM407,313.71a24.46,24.46,0,0,0-.71-8.39l-2.6,3.22A12.45,12.45,0,0,0,407,313.71Zm49.91-4.7-3.24-3.15c0,2.45-.13,4.43-.07,6.41,0,.28.66.54,1.21.95C455.16,311.55,454.6,309.82,456.91,309Zm20-17.34a13.07,13.07,0,0,0,.09-1.6c0-.36-.09-.84-.32-1a3.52,3.52,0,0,0-1.24-.36,7.8,7.8,0,0,0-.27,1.71C475.26,291.2,475.65,291.8,477,291.67Z" transform="translate(0 0)"/><path class="cls-1" d="M448.31,214.65a4.36,4.36,0,0,1-1.24-.33c-1.72-1.23-3.66-2.27-5-3.8-3.94-4.36-9.14-7.23-13.09-11.6a134.93,134.93,0,0,0-10.6-10,218.6,218.6,0,0,1-17.29-17.56c-1.65-1.84-3.65-3.37-5.44-5.09-3.05-2.93-6.06-5.91-9.1-8.85-4.2-4-8.42-8.06-12.49-12-1.13.09-1.15.81-1.38,1.35-.52,1.27-1,2.56-1.53,3.82a13.52,13.52,0,0,1-3.08,5.06,17.57,17.57,0,0,0-2.08,2.64,26.67,26.67,0,0,1-5.86,5.69c-3.74,2.69-7.39,5.51-11.13,8.19A31.69,31.69,0,0,1,331.07,178a44.38,44.38,0,0,1-14.41-1.64,42.77,42.77,0,0,0-5.69-.92,30,30,0,0,0,.38,9.35c.9,4.52,1.81,9,2.8,13.54a56.47,56.47,0,0,0,1.64,5.75,78.89,78.89,0,0,1,3.1,11.54c1,5.89,2.25,11.75,3.49,17.6a19,19,0,0,0,1.51,4.19,19,19,0,0,1,1.62,5.33c.47,2.95,1.11,5.87,1.76,8.79,1.08,4.87,2.23,9.71,3.34,14.57a22.76,22.76,0,0,0,2.38,7,5.18,5.18,0,0,1,.34.67c1.32,3.09.08,4.78-3.36,4.56a11.91,11.91,0,0,1-1.66-.37A40.78,40.78,0,0,1,326,271c-1.1-5.36-2.58-10.65-3.85-16-.75-3.15-1.39-6.32-2.07-9.49a12.81,12.81,0,0,0-.42-2.19c-2.06-5-2.49-10.4-3.54-15.64-.9-4.52-1.55-9.09-2.51-13.6-.54-2.54-1.47-5-2.24-7.5a9.64,9.64,0,0,1-.49-1.41c-1-7.67-4-14.89-5.19-22.53a78.13,78.13,0,0,0-2.25-8.28c-.3-1.08-.6-2.17-.8-3.27a3.19,3.19,0,0,1,1-3c2.5-2.64,5.32-2.17,8.25-1.18a21.14,21.14,0,0,1,2.69,1.31,19.24,19.24,0,0,0,6.32,2.21,7.43,7.43,0,0,1,2.51.72,20.82,20.82,0,0,0,7.95,1.94c6.4.6,12.39-.59,17.59-4.7,3.13-2.47,6.35-4.82,9.51-7.25a13.2,13.2,0,0,0,2.23-2c2.51-3.07,5.48-5.79,7.09-9.54a10.6,10.6,0,0,0,1.16-5c-.23-3,1.09-5,3.28-5.78,1.86.42,3.21.64,4.51,1.05a7.24,7.24,0,0,1,2.27,1.24c5.43,4.36,11,8.53,16.05,13.38A320.26,320.26,0,0,1,418.17,180a9,9,0,0,0,.67.9c6.51,6,11.78,13.19,18.17,19.33,2.68,2.58,5.36,5.22,7.06,8.64a12.05,12.05,0,0,0,1.42,1.71C446.45,211.83,447.7,212.89,448.31,214.65Z" transform="translate(0 0)"/><path class="cls-1" d="M328.85,190.47c-.49,2.79-.62,5.67-1.86,8.49-.61-.08-1.33,0-1.75-.26a6,6,0,0,1-2-7,2.49,2.49,0,0,1,2.31-1.62,29.66,29.66,0,0,1,3.32.4Z" transform="translate(0 0)"/><path class="cls-1" d="M327.92,212.32a2.09,2.09,0,0,1-2.26-1.23,5.17,5.17,0,0,1-.6-3.58,5,5,0,0,1,2.64-3.91c.4.07.89.11,1.36.24,1.28.35,1.72.84,1.72,2A9,9,0,0,1,327.92,212.32Z" transform="translate(0 0)"/><path class="cls-1" d="M330.76,234.17a10.16,10.16,0,0,1,2-8.94,2.36,2.36,0,0,1,1.14-.87c.37-.08,1.11.18,1.2.45a4.27,4.27,0,0,1,.24,2.18c-.43,2.07-1,4.12-1.59,6.14a2.24,2.24,0,0,1-1.26,1.24C332,234.54,331.33,234.26,330.76,234.17Z" transform="translate(0 0)"/><path class="cls-1" d="M334.24,253c.05-3,1.78-5,3.53-7.12a8.6,8.6,0,0,1,1.61-1.48,1.1,1.1,0,0,1,1,0,1.78,1.78,0,0,1,.68,1.15,3.41,3.41,0,0,1-.43,1.78c-1,1.58-2,3.13-3.1,4.6C336.76,253,336.68,252.94,334.24,253Z" transform="translate(0 0)"/><path class="cls-1" d="M328.39,224.16A4.11,4.11,0,0,1,328,223c.2-2.58.51-5.15,2.35-7.18a1.44,1.44,0,0,1,1.25-.38,1.56,1.56,0,0,1,.78,1.09A12.85,12.85,0,0,1,331,224a2.09,2.09,0,0,1-1.49.77C329.15,224.78,328.72,224.34,328.39,224.16Z" transform="translate(0 0)"/><path class="cls-1" d="M340.45,255.88a2.94,2.94,0,0,1-.17,3.53c-.76,1.12-1.5,2.37-3,2.67a1.73,1.73,0,0,1-1.35-.35,1.47,1.47,0,0,1-.35-1.31,10.28,10.28,0,0,1,3.77-4.48C339.64,255.77,340.09,255.89,340.45,255.88Z" transform="translate(0 0)"/><path class="cls-1" d="M336.56,236.6c.85,2.78-.27,4.92-1.43,7-1.09.11-2.09-.25-1.85-1.27a29.6,29.6,0,0,1,1.9-5.11C335.31,236.92,336,236.84,336.56,236.6Z" transform="translate(0 0)"/><path class="cls-1" d="M374.45,161.69c-.24.39-.31.65-.49.78-.71.54-1.12,1.82-2.39,1.1a2.83,2.83,0,0,1-.83-3.27,2,2,0,0,1,1.54-.63C373.37,159.74,374,160.57,374.45,161.69Z" transform="translate(0 0)"/><path class="cls-1" d="M343.87,186.05c.13.37.3.61.27.83a1.43,1.43,0,0,1-.37.92,1,1,0,0,1-1,.05,12.15,12.15,0,0,1-1.85-2.19,1.28,1.28,0,0,1,.38-1.19,1.41,1.41,0,0,1,1.32-.07A8.15,8.15,0,0,1,343.87,186.05Z" transform="translate(0 0)"/><path class="cls-1" d="M363.53,173.61a12.22,12.22,0,0,1-1,1.4,1.52,1.52,0,0,1-2,.34,1.8,1.8,0,0,1-.91-2.15,1.54,1.54,0,0,1,1-.8C361.73,172.14,362.49,172.79,363.53,173.61Z" transform="translate(0 0)"/><path class="cls-1" d="M355.23,179.78a1.35,1.35,0,0,1-1.8-.68,1.51,1.51,0,0,1,1.13-1.93,1.36,1.36,0,0,1,.68,2.61Z" transform="translate(0 0)"/><path class="cls-1" d="M347.32,182.52c.12-.21.23-.66.47-.75.51-.19,1.22-.42,1.62-.21a1.43,1.43,0,0,1,.71,1.83.74.74,0,0,1-.2.3A1.88,1.88,0,0,1,347.32,182.52Z" transform="translate(0 0)"/><path class="cls-1" d="M328.85,190.47c-.65-.95-2-1.62-1.27-3.29.3.18.72.28.77.48.22.92.34,1.87.49,2.8Z" transform="translate(0 0)"/><path class="cls-1" d="M337.4,183.72c.21,0,.6.06.61.12a14.17,14.17,0,0,1,0,2s-.73.19-.85.05A1.56,1.56,0,0,1,337.4,183.72Z" transform="translate(0 0)"/><path class="cls-1" d="M368.71,166.27a5.91,5.91,0,0,1-1.17-.8c-.06-.07.27-.64.53-.82.46-.32,1.16,0,1.13.44A4.66,4.66,0,0,1,368.71,166.27Z" transform="translate(0 0)"/><path class="cls-1" d="M382.61,261.73c-3.07-.75-2.43-3.19-3-4.92a1.84,1.84,0,0,1,2.5-.37,2.25,2.25,0,0,1,1.19,2.15A23,23,0,0,1,382.61,261.73Z" transform="translate(0 0)"/><path class="cls-1" d="M399.38,296.56c-2.4-2.62-2.65-4.25-1.13-5.63C399.69,292.41,399.69,294.16,399.38,296.56Z" transform="translate(0 0)"/><path class="cls-1" d="M390.27,274.4c2,1.13,2,2.48,2.15,4.09C391.27,277.51,391.27,277.51,390.27,274.4Z" transform="translate(0 0)"/><path class="cls-1" d="M394.62,282.72c.93,1.08.93,1.08.49,2.47A2.57,2.57,0,0,1,394.62,282.72Z" transform="translate(0 0)"/><path class="cls-1" d="M388.46,323.9c-.6-.85-1.17-1.29-1.2-1.77-.14-2.09-.19-4.19-.14-6.29,0-.47.57-.93.89-1.43C391,317.15,391.11,318.45,388.46,323.9Z" transform="translate(0 0)"/><path class="cls-1" d="M392.29,321a33,33,0,0,1,.46,11.36c-1.33,0-2.1-.44-2.11-1.65,0-2.58,0-5.17.11-7.74C390.77,322.5,391.42,322.07,392.29,321Z" transform="translate(0 0)"/><path class="cls-1" d="M385.46,312.28c-1.81-1.29-.77-3.24-1.74-5,1.12-.18,1.87-.53,2.41-.32a1.6,1.6,0,0,1,1,1.83,20.72,20.72,0,0,1-.77,2.84C386.22,311.91,385.77,312.06,385.46,312.28Z" transform="translate(0 0)"/><path class="cls-1" d="M381.68,300.46a11.93,11.93,0,0,1,1.09,5.71c0,.28-.4.51-.78,1a11.37,11.37,0,0,1-1.83-5.16C380.07,301.21,380.69,300.73,381.68,300.46Z" transform="translate(0 0)"/><path class="cls-1" d="M377.59,296.68a4.86,4.86,0,0,1,.38-.53s.2.09.3.14a3.42,3.42,0,0,1-.37.49S377.7,296.72,377.59,296.68Z" transform="translate(0 0)"/><path class="cls-1" d="M426.69,355.27c-.2-1.5-.4-2.68.38-3.84.95-1.42,1.45-1.48,3.16-.08C429.34,354.65,428.82,355.27,426.69,355.27Z" transform="translate(0 0)"/><path class="cls-1" d="M320.28,382.31c1.67-1.17,3.08-2.18,4.51-3.17A6.7,6.7,0,0,1,330,378a22.64,22.64,0,0,0,4.19.78,1.36,1.36,0,0,1,1,2.31c-.69.92-1.51,1.75-2.28,2.6s-1.42,1.52-2.38,2.54c.72,0,1.06.08,1.4.09.67,0,1.34,0,2,0a35.08,35.08,0,0,1,11.52,4.36,13.39,13.39,0,0,1,5.47,7.9,16.15,16.15,0,0,0,.93,3c1.36,2.94.87,5.9,0,8.75a61.67,61.67,0,0,0-2.46,11.59,6.81,6.81,0,0,1-.44,2.25,17.24,17.24,0,0,0-1.18,4.75,51,51,0,0,1-1.27,5c-.5,1.65-1.2,3.25-1.69,4.91-.36,1.2-.5,2.46-1.65,3.26a1,1,0,0,0-.31.76c.1,1.51-1,2-2.08,2.4a9.81,9.81,0,0,1-5.4.54c-2.36-.49-4.7-1.07-7.08-1.47a182.07,182.07,0,0,1-20.48-5,12.76,12.76,0,0,0-1.71-.31c-5.15-.75-10.29-1.57-15.37-2.76A77.15,77.15,0,0,0,277.61,434a13.31,13.31,0,0,1-5.36-2c-1.33-.72-3-3.76-3-5.34,0-3,.19-6,0-9s.46-5.93.66-8.89.56-6,.86-8.93c0-.19.1-.38.11-.57.12-2.13,1.25-3.18,3.32-3.74A151.5,151.5,0,0,1,294,391.24c1-.14,2.09-.33,3.14-.49l8.35-1.27s.18-.2.14-.33c-.85-2.89.69-5.05,2.32-7.08a3.84,3.84,0,0,1,4.66-1.36,4.73,4.73,0,0,0,2.53.1A5.57,5.57,0,0,1,320.28,382.31Zm28.65,24.09c-.85-2.48-1.6-4.77-2.43-7s-1.79-4.09-3.85-5.25c-2.43-1.37-4.9-2.67-7.37-4-1.76-.92-3.5-.31-5.57.06.88.92,1.47,1.66,2.18,2.27a13.58,13.58,0,0,1,2.79,4,2.2,2.2,0,0,1,.1,2.45c-3,.29-5.67-.76-8.39-1.69a3.83,3.83,0,0,0-.64.68,2.15,2.15,0,0,1-3.13,1.06,3.06,3.06,0,0,0-3.26.44,10.59,10.59,0,0,1-1,.62c-2,1.19-4,1.44-5.95,0-.39-.28-.81-.5-1.18-.73-1,.3-1.89.63-2.82.83a3.41,3.41,0,0,1-3.78-1.48,9.89,9.89,0,0,1-1-2c-.37-1-.64-2-1-3.14-5.88,1.43-11.82,1.92-17.73,2.56a52.88,52.88,0,0,0-7.6,1.66,5.3,5.3,0,0,0-1,.53,4.75,4.75,0,0,0,2.92,1.29c2.93.55,5.86,1,8.77,1.75s6.05,1,9.05,1.81c2.79.71,5.69,1,8.55,1.39l16,2.43c1.24.19,2.46.46,3.7.65q5.14.75,10.3,1.46c1.81.24,3.63.49,5.46.61a14.62,14.62,0,0,0,5.13-.58A3.53,3.53,0,0,0,348.93,406.4Zm-75.7,13.82c-.08,1.36-.19,2.6-.22,3.85a18.38,18.38,0,0,0,0,4.14c5.37,1,10.66,2,16,3s10.43,1.91,15.66,2.84c2.56.45,5.14.84,7.71,1.26.57.09,1.14.22,1.71.32l6.25,1.18,4.56.82c3.32.59,6.64,1.15,10,1.77a10.2,10.2,0,0,0,5.35-.84,1.51,1.51,0,0,0,1.1-1.23c.2-1.59.95-3.09.82-4.9-.7-.1-1.35-.21-2-.27a27.7,27.7,0,0,1-2.88-.22c-6-1.19-11.91-2.42-17.86-3.64-2.36-.49-4.71-1-7.07-1.49a44.46,44.46,0,0,1-5.37-1.17,41.91,41.91,0,0,0-9.65-1.77,96.07,96.07,0,0,1-10.34-1.2c-4.24-.9-8.61-1.15-12.75-2.56C274,420.07,273.79,420.16,273.23,420.22Zm.84-11.49a12.09,12.09,0,0,0,1.29.35c3,.43,5.93.82,8.89,1.25a86,86,0,0,1,8.85,1.42,99,99,0,0,0,10.83,1.85c4.68.66,9.4,1,14.07,1.75,6.39,1,12.76,2.07,19.12,3.2,2,.35,3.92,1,5.88,1.44.71.17,1.45.21,2.34.33.31-1.78.61-3.38.86-5a5.35,5.35,0,0,0-.1-1.19c-1.62,0-3.16.05-4.67-.13-5.55-.68-11.1-1.36-16.63-2.22-6.19-1-12.36-2.08-18.53-3.17q-5-.88-9.94-1.87c-1.51-.3-3-.9-4.49-1.09a67,67,0,0,1-10.39-2.52l-6.5-1.94A43.61,43.61,0,0,0,274.07,408.73Zm41.43-11.17a17.38,17.38,0,0,1,.21-2.26,2.46,2.46,0,0,0-1.7-3.13c-.82.59-1.62,1.1-2.35,1.69a1.17,1.17,0,0,0,.06,1.94,27.31,27.31,0,0,0,2.37,1.55A4.48,4.48,0,0,0,315.49,397.56Zm-3.15,25.88,3.71.51,3.39-4.55c-.89-.44-1.66-.87-2.33-.31C315.6,420.36,314.19,421.74,312.34,423.44Zm9.4-32.27a5.07,5.07,0,0,0,.67-1c.57-1.52,0-2.46-1.58-2.58a17.34,17.34,0,0,0-2,0,1.43,1.43,0,0,0-1.51,1.36,1.57,1.57,0,0,0,1.36,1.59c.46.1.95.09,1.42.19S321.16,391,321.74,391.17Zm-19,30.65c.64-.92,1.13-1.63,1.64-2.32s1.5-1.16,1.69-2.33c-.49-.07-.91-.26-1.2-.14a10.3,10.3,0,0,0-4.75,4.44Zm8.36-38.43a4.84,4.84,0,0,0-2.41,2.72,1.08,1.08,0,0,0,.74,1.35,4.93,4.93,0,0,0,3.1-.27,1.31,1.31,0,0,0,.43-2.14C312.43,384.49,311.82,384,311.09,383.39Zm-15.22,37.67,3.93-4.89c-1.66-.52-1.78-.58-2.24-.06-1.33,1.48-3,2.66-4,4.64Zm-5.26-.64a10.36,10.36,0,0,1,2.68-5c.08-.1,0-.35,0-.65l-1.14-.33c-1.2,1.94-3.18,3.27-4,5.66Zm-9-1.79,2.93.4,3.63-5.54C285.31,414.65,283.66,416.41,281.65,418.63ZM322.29,385c3.1,0,5.27-.75,7-2.59.32-.34.29-.65-.21-1C326.79,382,324.39,382.52,322.29,385Zm-13.83,37.77c.72-.8,1.4-1.59,2.12-2.35a9.2,9.2,0,0,0,2.31-2.68c-.64,0-1.1-.08-1.33.09-1.69,1.25-3.51,2.34-4.77,4.09-.08.11,0,.34.06.63Zm34.25,1c-.87,1.23-1.59,2.22-2.28,3.24-.08.12,0,.36,0,.66a5,5,0,0,0,3.28.31l.8-3.43Zm-12-28.23c-1.29-2.62-2.48-3.5-4.67-3.53-.35,0-.71.38-1.06.58C326.18,395,328.28,395.21,330.68,395.59Zm-47.15,17.09c-.92-.13-1.45-.35-1.62-.2q-2.29,2.16-4.45,4.46c-.16.17,0,.65.06,1,.36,0,.84,0,1-.16C280.13,416.24,281.63,414.65,283.53,412.68Zm41.59,7.78a1.07,1.07,0,0,0-1.55-.32,10.68,10.68,0,0,0-3.87,4.11c1.54.52,1.82.56,2.18.13C323,423.09,324.05,421.76,325.12,420.46Zm6.49,6.13,3.67-4.77c-.8.13-1.35.06-1.61.29-1.12,1-2.18,2.09-3.22,3.19a3.62,3.62,0,0,0-.44,1.07Zm-23.23-33.38c-.83.15-1.43.29-1.74,1a2.13,2.13,0,0,0,.53,2.26l2-.37Zm-34.5,23.95,4.31-5.26c-.5,0-1-.23-1.16-.07a14.17,14.17,0,0,0-3.48,4.47C273.49,416.47,273.72,416.76,273.89,417.17Zm61.7,9.79c.72.57,1.33.61,1.83,0,.76-1,1.47-2,2.17-3a5,5,0,0,0,.3-1.13A30.83,30.83,0,0,0,335.58,427Zm-8.24-3.27c-.94.11-1.91.33-1.66,1.81ZM316.91,384l-.45.18a4.37,4.37,0,0,0-.27,1c0,.08.44.18.68.27a2.27,2.27,0,0,0,.25-.69A2.76,2.76,0,0,0,316.91,384Zm11.79,38.23c.23-.28.44-.54.64-.81,0,0-.11-.13-.17-.2-.25.23-.5.47-.75.71Z" transform="translate(0 0)"/><path class="cls-1" d="M338.78,396.58c3.69.58,5.28,2.4,5.09,5.57a2.41,2.41,0,0,1-.38,1,1,1,0,0,1-1.5.09,1.72,1.72,0,0,1-.46-.7,5.5,5.5,0,0,0-1.85-3.72C339.19,398.45,339.13,397.53,338.78,396.58Z" transform="translate(0 0)"/><path class="cls-1" d="M286.32,425.26a1.18,1.18,0,0,1,1,1.14,1.44,1.44,0,0,1-1.35,1.51c-.53.08-1-.44-1-1.11A1.43,1.43,0,0,1,286.32,425.26Z" transform="translate(0 0)"/><path class="cls-1" d="M280.12,427.25c-.2-.13-.41-.2-.5-.34a1.62,1.62,0,0,1,.15-2.08,1.74,1.74,0,0,1,1.25-.34.82.82,0,0,1,.6,1.1,4.34,4.34,0,0,1-.76,1.44C280.73,427.21,280.35,427.19,280.12,427.25Z" transform="translate(0 0)"/><path class="cls-1" d="M298.74,426.94c.15.24.57.59.59,1a1.36,1.36,0,0,1-1.75,1.29.88.88,0,0,1-.64-1.09A1.37,1.37,0,0,1,298.74,426.94Z" transform="translate(0 0)"/><path class="cls-1" d="M310.71,432a1.07,1.07,0,0,1-.83-1.26,1.23,1.23,0,0,1,1.07-1.14,1.31,1.31,0,0,1,1.18,1.34A1.23,1.23,0,0,1,310.71,432Z" transform="translate(0 0)"/><path class="cls-1" d="M304.82,428.77c.14.21.53.54.56.9a1.25,1.25,0,0,1-1.34,1.15c-.56,0-.76-.45-.73-1C303.34,429.11,303.86,428.66,304.82,428.77Z" transform="translate(0 0)"/><path class="cls-1" d="M276.44,424.55c-.19,1-.74,1.44-1.37,1.3s-1.07-.69-.89-1.16a1.26,1.26,0,0,1,1.52-.88C276,423.91,276.27,424.36,276.44,424.55Z" transform="translate(0 0)"/><path class="cls-1" d="M291,427.71c.2-.9.81-1.32,1.51-1.15a.64.64,0,0,1,.48.86c-.17.77-.81,1.23-1.4,1C291.35,428.23,291.18,427.87,291,427.71Z" transform="translate(0 0)"/><path class="cls-1" d="M316.86,432a9.2,9.2,0,0,1,.38,1.39.92.92,0,0,1-.66.29.69.69,0,0,1-.5-1.09C316.19,432.36,316.48,432.26,316.86,432Z" transform="translate(0 0)"/><path class="cls-1" d="M324.07,436c-.28-.64-.58-1-.5-1.23a1.13,1.13,0,0,1,.78-.65c.52-.06.55.47.47.8S324.47,435.46,324.07,436Z" transform="translate(0 0)"/><path class="cls-1" d="M166,146c7.93-3,7.91-3,16.39-.14a67.58,67.58,0,0,0,10.49,2.82,31.33,31.33,0,0,1,14.9,6.93c9.11,7.38,17.62,15.31,24.48,24.67a266.19,266.19,0,0,1,15.15,22.23c1.26,2.14,2.91,4.09,4.4,6.12,6.87,9.41,11,19.95,15.66,30.31,4.38,9.84,6.77,20.14,9.45,30.35,1.81,6.87,2.83,13.88,4.11,20.84s.77,14-.31,20.9c-1.45,9.21-2.84,18.42-4.35,27.61-.4,2.44,1.25,3.64,3.69,5-1.64.93-3.09,1.33-3.8,2.27s-.69,2.67-1.33,3.85-2,1.25-3.57.28L271,345.6l-3.61-3.17c.39-2.54,2.64-1.66,4-2.32,1.28-1.43,1.23-3.2.73-5a31.74,31.74,0,0,0-1.5-4.67c-4.11-9.23-8.11-18.47-13.6-27.17a248.8,248.8,0,0,0-19.12-25.73,56,56,0,0,0-5.26-5.49c-6.25-5.74-12.63-11.35-18.87-17.1-2.49-2.29-4.59-5-7.14-7.21-6.72-5.85-13.48-11.68-20.44-17.27a121.68,121.68,0,0,1-27.91-32.38c-.65-1.07-1.13-2.22-1.73-3.31a36.14,36.14,0,0,1-2.89-30.34c.62-1.87,1-3.81,1.53-5.73a4.84,4.84,0,0,0,0-.84,19.15,19.15,0,0,0-6.54-6.46c-8.22-5.35-15.89-11.51-24.79-15.85a31.13,31.13,0,0,0-3.39-1.77c-7.66-2.61-15.23-5.6-23.67-6.88-1.58,1.24-3.39,2.49-5,4-11.76,10.79-26.21,13.32-42.36,9.8-7.78-1.7-13-7.12-16.87-13.53-1.47-2.44-2.43-5.32-.69-8l-9.82-11A38.37,38.37,0,0,1,16,98c-2.16-4.84-2.17-9.57.79-13.75a98,98,0,0,1,7.68-9A34.51,34.51,0,0,1,28.38,72a52.55,52.55,0,0,0-.44-5.31c-1.48-8.23,2.48-12.94,10.45-16.81,5.84-2.84,12.55-2.9,19.06-.72a21.9,21.9,0,0,1,11.71,9.35c.44.7.81,1.45,1.29,2.32a21.33,21.33,0,0,0,4.14-2.36,15.29,15.29,0,0,1,13.61-4.14c.89-1.94,1.52-3.61,2.37-5.16,4.58-8.28,15.79-10.76,24.17-4.32,1.68,1.29,3.21,2.76,4.82,4.15,2.07,1.79,3.94,3.74,7.06,4,1.32.09,2.72,1.17,3.91,2a15.41,15.41,0,0,1,6.08,7.85C139.55,72.7,139.27,82,132,89.73c-4.91,5.21-9.64,10.56-15.12,15.27-2.34,2-2.45,3.3-.84,5.76,2.06,3.14,4.37,6.19,7.7,8.25,5.62,3.47,11.35,6.77,17,10.17,5.49,3.29,11,6.49,16.41,10C160.15,141.1,162.84,143.54,166,146ZM273,324.35A87.33,87.33,0,0,0,274.58,307c.33-15.33-3.15-30.4-7.06-45.36a172.37,172.37,0,0,0-14-35.47c-1.23-2.38-2.34-4.83-3.74-7.12-3.7-6-7.79-11.86-11.26-18-7.77-13.74-18.12-25.52-30-36.26a50.33,50.33,0,0,0-20.34-11.64,31.18,31.18,0,0,0-20.29,1c-2.7,1-5,2.71-5.55,5.77a3.4,3.4,0,0,1-1,2c-3,2.26-3.51,5.61-3.87,9a32.48,32.48,0,0,0,2,14.87c2.75,7.44,7.45,13.87,12.41,20.1,5.65,7.09,15.57,16.42,24.09,23,6,4.68,12.2,9.16,17.38,14.82,4.68,5.11,10.57,9.19,14.37,15.08a6.72,6.72,0,0,0,1.36,1.33c7.19,6.1,12.54,13.62,18.18,20.9,9.54,12.33,17.65,25.36,23.42,39.55A30.48,30.48,0,0,0,273,324.35ZM39.07,71.31c-.74,3.69-3.41,4.39-5.94,5.3A17.84,17.84,0,0,0,21.5,94.21a19.38,19.38,0,0,0,5.86,13.22,91.38,91.38,0,0,0,7.59,6.72c3.49,2.67,3.78,2.83,2.2,6.34a5.6,5.6,0,0,0,.11,5.13,19,19,0,0,0,14.56,11.16c13.75,2.27,26.37.47,36.87-8.39,5.82-4.91,5.32-7.82,17.81-3.38,1.48.53,3.22,1.5,5.23.74-2.75-2.31-6.44-2.19-8.51-4.71.27-1.72,1.42-2.08,2.77-1.57,2.8,1,5.53,2.27,8.29,3.42a25.58,25.58,0,0,0,2.36,1c.9.27,1.79,1.26,3.05.16-1.34-1.57-2.69-3.12-4-4.7a47.74,47.74,0,0,1-3.5-4.44c-4-6.28-3.83-9,1.69-13.51s9.86-9.84,14.91-14.65a10.66,10.66,0,0,0,3.4-8,38.1,38.1,0,0,0,.07-6,39.83,39.83,0,0,0-2.19-9.39c-1.86-4.47-3.78-5.28-8.88-5-2.87.16-3.95-.24-4.58-3.06-.51-2.29-1.94-3.56-3.6-4.83a34.3,34.3,0,0,0-4.31-2.76c-5.14-2.81-9.46-1.86-12.37,2.71a20,20,0,0,0-2.49,7.86c-.33,2.12-3,3.5-5.23,3-.82-.19-1.58-.65-2.39-.91-4.15-1.38-7.7-.21-9.33,3.42A17.89,17.89,0,0,0,75,70.59c-.15,9.92,2.74,19.22,9.94,27,6.16,6.66,12.84,12.88,21.74,16.3a13.35,13.35,0,0,1,4.13,2.84c.53.49.38,1.63.59,2.68-23-6.87-41.11-26.79-43.72-48-2.5-1.78-5.16-3.54-7.67-5.49-2.27-1.76-4.59-3-7.56-2.79a3.84,3.84,0,0,1-4.14-2.48A6,6,0,0,1,53,58.4c1.95-.18,3.95-.06,6-.08-.3-.76-.33-1.24-.6-1.47-5.83-5-16.3-5.1-21.33-.08a5.85,5.85,0,0,0-1.83,3.58C35.15,64.3,34.95,68.43,39.07,71.31Zm120.5,78.31c-2.08-3.64-4.9-5-7.68-6.42C153.74,145.66,155.58,148.12,159.56,149.62ZM63.86,59.2c.21,1.55.08,2.24.38,2.53a26.44,26.44,0,0,0,3.38,2.69c.36.24,1,.09,1.52.12-.06-.71.16-1.72-.25-2.06A51.64,51.64,0,0,0,63.86,59.2Z" transform="translate(0 0)"/><path class="cls-1" d="M196.1,187.5c-.37,1.87-.26,2.75-.68,3.22-2.47,2.79-5.05,5.49-7.62,8.21-.26.27-.67.62-1,.59a4.92,4.92,0,0,1-2.21-.6,1.55,1.55,0,0,1-.22-1.56C187.58,194,190.34,190.14,196.1,187.5Z" transform="translate(0 0)"/><path class="cls-1" d="M177.74,171a14.77,14.77,0,0,1,5.2-4.58,1.87,1.87,0,0,1,2.73.46,2.13,2.13,0,0,1-.26,2.08,38,38,0,0,1-4.14,3.4C180.59,172.9,180.13,172.69,177.74,171Z" transform="translate(0 0)"/><path class="cls-1" d="M218.35,213.25c2,3,0,4.08-1.53,5.27s-2.82,2.38-5.12.25C213.31,216.23,215.75,214.82,218.35,213.25Z" transform="translate(0 0)"/><path class="cls-1" d="M199,179.4c.91-.81,1.39-1.64,2-1.75a19.14,19.14,0,0,1,4.92-.13c.55.06,1.25,1,1.5,1.62a1.54,1.54,0,0,1-.75,1.42A7.23,7.23,0,0,1,199,179.4Z" transform="translate(0 0)"/><path class="cls-1" d="M232.31,232.65c.12,3.33-1.84,4.38-4.06,5-.53.15-1.52-.51-2.06-1-.23-.22,0-1.19.31-1.53A7.36,7.36,0,0,1,232.31,232.65Z" transform="translate(0 0)"/><path class="cls-1" d="M200.76,208.38c1.62-2.45,3.21-4.29,6.5-4,.1,3.14-1.87,4.38-4.34,5C202.41,209.56,201.58,208.8,200.76,208.38Z" transform="translate(0 0)"/><path class="cls-1" d="M245.74,257.81c.67-.59,1.07-1,1.54-1.34,1.15-.81,2.43-1.59,3.83-.46.38.31.36,1.54,0,2.08-1.1,1.88-2.43,2.15-4.53,1.1C246.33,259,246.2,258.55,245.74,257.81Z" transform="translate(0 0)"/><path class="cls-1" d="M239.17,246.32c.55-.65.74-1,1.06-1.22,1.55-1,3.5-1,4.5,0a2.06,2.06,0,0,1,.24,2,3.56,3.56,0,0,1-4.88.75C239.58,247.59,239.41,246.75,239.17,246.32Z" transform="translate(0 0)"/><path class="cls-1" d="M253.73,268.77c1.55-.29,2.73-.88,3.68-.6,1.11.33,1.15,1.57.63,2.54a1.9,1.9,0,0,1-3.09.44A9.08,9.08,0,0,1,253.73,268.77Z" transform="translate(0 0)"/><path class="cls-1" d="M175.8,183.58c-.48,3.06-2.21,3.67-4.45,4C171.91,185.21,171.9,185.2,175.8,183.58Z" transform="translate(0 0)"/><path class="cls-1" d="M121.72,67.43c1.57.68,4.48.21,3.94,2.83-.38,1.85-2.63,1.3-4.32.88a16.22,16.22,0,0,0-1.61-.21c0,.75.13,1.45.12,2.15,0,2.94,1.57,4.45,4.58,4.83a4.62,4.62,0,0,1,1.82.49c.48.3,1.16,1.13,1,1.32-.35.6-1,1.4-1.61,1.42a53.19,53.19,0,0,1-5.64-.38c-1.51,1.67-2.87,3.35-4.42,4.84-2.44,2.35-5.2,2.92-8.46.17.36-.36.7-1,1.06-1,3.52.09,5.21-2,6.36-4.63a15.4,15.4,0,0,0,.74-11c-.33-1.09-.68-2.17-1-3.25,2.68-.71,2.71,1.89,4.55,2.67l3.06-1.14Z" transform="translate(0 0)"/><path class="cls-1" d="M65.13,76.2c.48,1,.83,1.39.79,1.72-.91,7.74,1.52,14.57,7.26,20.54a49.83,49.83,0,0,1,3.7,4.27,5.92,5.92,0,0,1,.56,2.12c-.82,0-1.36.1-1.6-.1-6.12-5.1-10.91-11-13.25-18.46a26.87,26.87,0,0,1-.87-4.74C61.4,79,62.69,77.47,65.13,76.2Z" transform="translate(0 0)"/><path class="cls-1" d="M55.28,80.71c2.5,5.7,3.65,11,7.7,14.88,3.75,3.63,7.52,7.25,11.41,11-.44.29-.87.8-1.35.82a3.06,3.06,0,0,1-1.74-.62C65,102.28,59.56,97.07,56,90.39A22.72,22.72,0,0,1,54.06,84C53.91,83.28,54.62,82.41,55.28,80.71Z" transform="translate(0 0)"/><path class="cls-1" d="M50.15,92.07c2.62,4.18,4.68,7.78,8.08,10.47a3.1,3.1,0,0,1,.83,1.61,1.09,1.09,0,0,1-.37,1,1.31,1.31,0,0,1-1.16.08c-3.74-2.61-6.8-5.75-8.16-10C49.14,94.48,49.75,93.55,50.15,92.07Z" transform="translate(0 0)"/><path class="cls-1" d="M121.93,67.36l-4.84-2.21c1.7-.48,2.51-.94,3.33-.9,2.06.11,2.32.84,1.31,3.17Z" transform="translate(0 0)"/><path class="cls-1" d="M566.54,490.27c-.7-3.68,1-6.86,2.73-10.36a142.62,142.62,0,0,0,7.3-19.1c1.57-4.82-.47-9-3.94-12.33a84.07,84.07,0,0,0-7.76-6.09,47,47,0,0,1-16.62-23.86c-4-12.42-.85-23.45,7.21-33.26a43.07,43.07,0,0,1,7.53-7.41c4.29-3.15,10.89-2.17,14.45,1.89a3.84,3.84,0,0,1,.43,3.44c-3.26,6.53-5.47,13.64-10.34,19.3-3.52,4.09-3.91,8.63-1.83,13.46a36.18,36.18,0,0,0,3.3,6.81q7.71,10.81,15.83,21.32c2.06,2.67,3.65,2.81,6.64,1.39a14.73,14.73,0,0,0,3.21-2c5.2-4.43,10.57-8.7,15.42-13.48a29.22,29.22,0,0,1,10.61-7.07,25.45,25.45,0,0,0,8.41-4.91c10.05-8.88,21.83-10.9,34.71-8.13a69.42,69.42,0,0,1,16.38,5.82c5.44,2.7,11.08,5,16.55,7.62a48.58,48.58,0,0,1,17.31,13.3c3.61,4.54,7.64,8.72,10.27,14.05,6.06,12.25,8.33,24.74,4.17,38.13-2,6.34-4.06,12.37-8.87,17.34a26.68,26.68,0,0,1-7.44,5.24c.23,1.68.46,3.15.64,4.63,1.41,11.56.18,22.66-5.22,33.21-2.69,5.26-6.34,9-12.18,10.49-1.44.36-2.83.93-4.49,1.49.19,3.71,3.53,6,4.16,10.13-1.53,1.85-4,3.69-3.54,7.22.47,3.33-1.73,5.69-4.27,7.57a124.26,124.26,0,0,1-22.85,13.41,40.06,40.06,0,0,1-6.55,1.82,28.61,28.61,0,0,1-18.6-1.28,6.85,6.85,0,0,0-7.1.56c-6.44,4.2-13.81,6.2-21.1,8.35a11.54,11.54,0,0,1-3.72.63c-5.31-.27-10.75,0-15.88-1.17-20.07-4.46-35.68-15.28-44.76-34.1A43,43,0,0,1,542.78,559c-1.1-15.55.65-30.79,6.58-45.42C553,504.67,559.79,498.2,566.54,490.27Zm7.76-7.86,3.59-4.22c3.38-6,9.24-7.19,15.64-7.41.88-3.19,1.54-6.14,2.5-9,3-8.88,7.31-16.67,16.8-20.25,2.46-.93,2.38-2-.16-5.52l-17.42,13.25c1.19,4.88-2.06,8.62-2.92,12.7l-6.49,3.25a8.61,8.61,0,0,0-1.19-1.1,17.4,17.4,0,0,0-1.82-.87c-3.35,4.47-5.33,8.71-5.95,13.07-.08.55.65,1.22,1,1.84-.78.48-1.58.93-2.32,1.46-1,.69-1.77,1.5-1,2.83l-1.45,1.18.78.49ZM639.73,590c1.8,3.74,2,4,4.9,4.86a22.49,22.49,0,0,0,14.17,0c8.21-2.78,15.32-7.7,22.71-12.06a6.81,6.81,0,0,0,3.32-4.87c1-5.66.58-11.13-2.71-16-7.64-11.35-15.87-22.22-25.88-31.64-3.68-3.47-7.48-6.85-10.83-10.62-7.9-8.91-16.8-16.77-25.5-24.85a58.37,58.37,0,0,0-6.57-5.13c-4.54-3.14-9.41-5.78-13.66-9.4-1.68-1.43-4-2.14-6-3.1-3.67-1.71-7-.84-9.75,1.83a62.33,62.33,0,0,0-5.49,6.27,17.55,17.55,0,0,0-3.65,14.89c2.26,12.22,5.53,23.9,11.15,35.21a163.33,163.33,0,0,0,24.43,36.27,77.52,77.52,0,0,0,20.35,16.79C634.88,590.71,634.87,590.72,639.73,590Zm49.84-30.54c3.57-1.95,6.26-3.7,8-6.62,9.1-15,9.35-36.87-2.06-50.75-9.13-11.1-17.59-22.74-28.54-32.36-6.87-6-13.75-11.88-21.78-16.22-5.77-3.12-11.52-6.44-18-7.79-5.9-1.23-11.91-1.07-16.51,3.17a34.42,34.42,0,0,0-10.8,18.76,25.66,25.66,0,0,0,0,5.06c2.36,1.21,4.43,2.13,6.35,3.29a199.1,199.1,0,0,1,45.1,36.65c.68.75,1.41,1.45,2.12,2.17,6.57,6.65,13.41,13.06,19.63,20,5.34,6,10.65,12.13,13.33,20C686.91,556.42,688.33,557.71,689.57,559.46ZM620.25,439.08a7.85,7.85,0,0,0,2.28.78c6.22-.2,12,1.67,17.69,3.84,22.08,8.46,39.75,22.88,54.38,41.14,4.88,6.09,9,12.83,13.43,19.25a5.67,5.67,0,0,0,1.34,1c.83-.24,1.78-.5,2.72-.79s1.85-.59,2.83-.9c1.59-3.93,3.15-7.66,4.61-11.43a39.3,39.3,0,0,0,2.25-20.11c-1.34-9.5-4.53-18.11-10.8-25.47-2.3-2.7-4.5-5.47-6.86-8.11a37.26,37.26,0,0,0-13.37-9.71c-4.18-1.77-8.14-4.06-12.24-6a78.37,78.37,0,0,0-20.88-6.68,20.43,20.43,0,0,0-13.25,1.95,64.93,64.93,0,0,0-7.69,4.81A67.18,67.18,0,0,0,620.25,439.08Zm-53.12,59c-.86.16-1.51.08-1.74.35A54.9,54.9,0,0,0,555.12,516c-4.2,12.21-4.35,24.78-3.69,37.49.73,14,7.43,24.86,17,34.48,7.19,7.23,16.09,11.28,25.48,14.46a24.13,24.13,0,0,0,7.49.85c3,0,6.06-.33,9.08-.58a33.51,33.51,0,0,0,18.2-7,113.92,113.92,0,0,1-23.25-18.07,144.57,144.57,0,0,1-18.77-23.82c-5.2-8.33-10.25-16.76-13.37-26.28S568.65,508.05,567.13,498.12Zm.8-107.29a54.3,54.3,0,0,1-6.58-.22c-4-.64-6.48,1.3-7.71,4.65-3.66,9.89-4.29,19.66,1.59,29.14a54.13,54.13,0,0,0,14.08,15.69c4.9,3.57,9.8,7.16,12,12.79a45.39,45.39,0,0,1,5.39,1.17c2.31.81,3.26-.38,4-2.23-10.22-2.51-7-.78-13.78-9.11-3.34-4.1-5.93-8.81-9.15-13a48.21,48.21,0,0,1-7-13.34c-2.23-6.23-1.7-11.81,2.74-17C565.32,397.1,567.59,394.87,567.93,390.82ZM562.07,386a8.44,8.44,0,0,0,9-2.91,1.44,1.44,0,0,0-.12-1.39c-.46-.5-1.27-1.2-1.76-1.09C566.24,381.33,563.55,382.46,562.07,386Z" transform="translate(0 0)"/><path class="cls-1" d="M574.3,482.41l-.44,1.71-.78-.49,1.46-1.17Z" transform="translate(0 0)"/><path class="cls-1" d="M616.6,568.86A41.05,41.05,0,0,1,620.55,555c.9,1.18,1.73,1.81,1.92,2.59a17.76,17.76,0,0,1-.44,9.68c-.28.86-1.05,2-1.79,2.18C619.18,569.65,617.95,569.1,616.6,568.86Z" transform="translate(0 0)"/><path class="cls-1" d="M598.16,529.86c.39.65.89,1.1.86,1.5a62.93,62.93,0,0,1-.88,7.48c-.17.84-1.13,1.63-1.91,2.22-1.45,1.12-4,0-4-1.83a12.82,12.82,0,0,1,4.05-9.43C596.63,529.47,597.62,529.82,598.16,529.86Z" transform="translate(0 0)"/><path class="cls-1" d="M592.45,518.56c2.42,4.65.83,8-1.23,11.16-.41.63-1.72.86-2.64.91a1.6,1.6,0,0,1-1.8-1.86A19,19,0,0,1,592.45,518.56Z" transform="translate(0 0)"/><path class="cls-1" d="M629.47,566a15.12,15.12,0,0,1,1,7.91,3.58,3.58,0,0,1-2.76,3.13c-1.25.3-2.84-.49-2.8-1.62a15,15,0,0,1,3-8.91C628.14,566.17,628.79,566.17,629.47,566Z" transform="translate(0 0)"/><path class="cls-1" d="M612.61,547a15.86,15.86,0,0,1,1,8.77,4.85,4.85,0,0,1-1.2,2.67,3.29,3.29,0,0,1-2.64.78c-.66-.18-1.25-1.31-1.48-2.12a3.52,3.52,0,0,1,.42-2.16C609.74,552.7,610.86,550.52,612.61,547Z" transform="translate(0 0)"/><path class="cls-1" d="M603.62,542.82c1.41.63,2.1.72,2.25,1,1.31,3,.73,5.86-.76,8.61a2.15,2.15,0,0,1-3.18.8,2.84,2.84,0,0,1-1.17-2.39C601.47,548.27,602.54,545.76,603.62,542.82Z" transform="translate(0 0)"/><path class="cls-1" d="M585.59,516.88c-.54,0-1.74.31-2.27-.15a2.75,2.75,0,0,1-.64-2.57,12,12,0,0,1,2.9-3.26c.21-.18,1.55.38,1.73.84C588,513.58,587.33,515.17,585.59,516.88Z" transform="translate(0 0)"/><path class="cls-1" d="M638.66,575.69c.17.12.44.21.5.38.6,1.68,1.19,3.45-.86,4.54a2,2,0,0,1-1.92-.48C635.47,578.81,636.1,577.74,638.66,575.69Z" transform="translate(0 0)"/><path class="cls-1" d="M648,575.42c-.18.61-.2,1.38-.6,1.77-.21.21-1.08-.25-1.65-.41a12.56,12.56,0,0,1,.81-1.86A7.24,7.24,0,0,1,648,575.42Z" transform="translate(0 0)"/><path class="cls-1" d="M627.48,470.8c.69,2.84,1.17,5-.44,7-.85,1-2.16,1.55-3.28.63a3,3,0,0,1-.85-2.5C623.5,473.8,624.22,471.6,627.48,470.8Z" transform="translate(0 0)"/><path class="cls-1" d="M645.75,490.43c.48,0,1.27-.21,1.38,0,.68,1.21,1.62,2.51,1.63,3.78,0,.9-1.24,1.93-2.14,2.63-.33.25-1.54-.1-1.9-.54C643.4,494.66,644,491.65,645.75,490.43Z" transform="translate(0 0)"/><path class="cls-1" d="M616.65,475.38a3.75,3.75,0,0,1-.3-.89,5.09,5.09,0,0,1,2.93-4.79,1.41,1.41,0,0,1,1.34.33c1.08,1.71,0,4.8-2,5.66C618.09,475.93,617.26,475.49,616.65,475.38Z" transform="translate(0 0)"/><path class="cls-1" d="M632.69,481.18c-.54-.16-1.74-.15-2.22-.73-1-1.17-.29-3.14,1.23-4.63a1.68,1.68,0,0,1,2.54.45C635.15,478.09,634.76,479.74,632.69,481.18Z" transform="translate(0 0)"/><path class="cls-1" d="M640.6,485.39c-1.25.06-2.09.35-2.63.07s-.78-1.11-1.08-1.74c-.08-.17.08-.48.15-.72.64-2.41,1.75-3.53,3.33-3.23.43.08,1.17.56,1.15.77C641.3,482.17,640.93,483.77,640.6,485.39Z" transform="translate(0 0)"/><path class="cls-1" d="M656.69,501l-.78,1.69-1.61-.87a9.16,9.16,0,0,1,1.17-1.46C655.57,500.23,656.14,500.67,656.69,501Z" transform="translate(0 0)"/><path class="cls-1" d="M663.9,511.9l-1,1.92-1.09-.68a4,4,0,0,1,.73-1.09C662.74,511.86,663.19,512,663.9,511.9Z" transform="translate(0 0)"/><path class="cls-1" d="M647.18,427c.61.22.95.24,1,.38,1.33,3.19,0,5.87-1.87,8.29a2.13,2.13,0,0,1-3.82-1.66A9,9,0,0,1,647.18,427Z" transform="translate(0 0)"/><path class="cls-1" d="M659.74,437.2a9.79,9.79,0,0,1-.32,7c-.47,1-2.25,1.69-3.13.93a3.28,3.28,0,0,1-1.21-2.37C655.5,440.33,656.45,438.07,659.74,437.2Z" transform="translate(0 0)"/><path class="cls-1" d="M653.31,433.34a6,6,0,0,1,.67,5.79c-.29.86-1.77,1.55-2.84,1.82s-1.78-1.66-1.25-2.91C650.64,436.27,651.44,434.5,653.31,433.34Z" transform="translate(0 0)"/><path class="cls-1" d="M676.74,452c1.09,2,.73,4.09-.82,4.87a2.61,2.61,0,0,1-2.43-.51,2.72,2.72,0,0,1,1-4.27C675.11,451.73,676.12,452,676.74,452Z" transform="translate(0 0)"/><path class="cls-1" d="M668.83,451.81c-1.31-1-2.37-1.36-2.56-2a4.26,4.26,0,0,1,.44-2.78,1.53,1.53,0,0,1,2.91.71A23.3,23.3,0,0,1,668.83,451.81Z" transform="translate(0 0)"/><path class="cls-1" d="M685,455.64a10.1,10.1,0,0,1-1.26,2.65c-.28.29-1.16,0-1.76,0a9.39,9.39,0,0,1,.51-2.55C682.65,455.47,683.7,455.66,685,455.64Z" transform="translate(0 0)"/><path class="cls-1" d="M690,460.81l-1.52.59,0-2.46c.42,0,1.15-.1,1.2,0A8.55,8.55,0,0,1,690,460.81Z" transform="translate(0 0)"/><path class="cls-1" d="M573.13,576.51c-1.73-.38-3.29-.28-3.78-1a3.24,3.24,0,0,1,.42-3.11,2,2,0,0,1,3.22.32C573.46,573.59,573.11,574.87,573.13,576.51Z" transform="translate(0 0)"/><path class="cls-1" d="M587.44,585.43c-.13,1.46.1,2.63-.37,3.12a3.1,3.1,0,0,1-2.56.53c-1.15-.29-1.41-2.51-.37-3.09C584.88,585.56,585.92,585.66,587.44,585.43Z" transform="translate(0 0)"/><path class="cls-1" d="M601,588.24l-.23.63-.84-.58c.19-.13.38-.32.58-.35S600.81,588.13,601,588.24Z" transform="translate(0 0)"/><path class="cls-1" d="M23.84,201.41c3.46.37,8.64,2,13.7,4,6.62,2.62,13.31,5.1,19.82,8a306.64,306.64,0,0,1,31.93,15.74c9.66,5.66,18.85,12.08,26.72,20.19a68.18,68.18,0,0,0,5.92,5.56c7.1,5.76,10.09,13.42,10.57,22.28.11,2,.21,4.06.22,6.09,0,3.83-1.43,6.12-5,7.42a41.18,41.18,0,0,1-8.32,2.29A11.9,11.9,0,0,1,114,292a35.61,35.61,0,0,1-15.72-11.7q-2.86-3.59-5.65-7.22a52.73,52.73,0,0,0-12.18-11.42,110.78,110.78,0,0,0-28.74-13.93c-5.15-1.68-10.4-3-15.56-4.67a109.89,109.89,0,0,1-11.77-4.77,68.37,68.37,0,0,1-14.89-8.73,48.94,48.94,0,0,1-6.15-6,16.25,16.25,0,0,1-2-4,17.5,17.5,0,0,1-1.07-9.89c.61-4.24,3.35-6.94,7.47-8.11C12.4,200.17,17.13,200.47,23.84,201.41Zm94.9,89.14,6-2.3a3.86,3.86,0,0,0,2.88-3.73,39.93,39.93,0,0,0-1.76-14.06,19.27,19.27,0,0,0-4.64-7.83c-4.5-4.38-9-8.78-13.6-13a108.08,108.08,0,0,0-20.84-14.5A440.6,440.6,0,0,0,30.53,209c-5.73-2.18-11.6-3.89-17.8-3.93a16.19,16.19,0,0,0-5,.65C3.9,207,2.38,209.52,3,213.55a16.47,16.47,0,0,0,4.13,8.61A40.83,40.83,0,0,0,20,231.94,113.71,113.71,0,0,0,41.37,240c7.73,1.91,15.31,4.43,22.93,6.75A41.42,41.42,0,0,1,69,248.7c5,2.21,9.48,5.21,14.12,8A34.78,34.78,0,0,1,94.46,267.4c2.15,3.26,4.36,6.48,6.66,9.62,3.55,4.86,7.68,9,13.46,11.29A38.63,38.63,0,0,1,118.74,290.55Z" transform="translate(0 0)"/><path class="cls-1" d="M4.24,170.27c-.4-1.49.45-3,1.3-4.48,3.83-6.5,9.1-10.88,17-11.22a9,9,0,0,1,4.92.94c1.92,1.06,4.07,1.86,5.73,3.24a61.65,61.65,0,0,0,16.72,9.56c7.75,3.09,15,7.14,22.32,11,3,1.59,6,3.24,9,4.82a32.77,32.77,0,0,0,4.59,2.18,107.84,107.84,0,0,1,25.36,12.77c5.49,3.68,11.15,7.2,16.18,11.45s8,10,7.26,17.08a9.35,9.35,0,0,1-10.08,8.67,20.5,20.5,0,0,1-5.46-1.09c-10.63-3.65-20.52-8.85-30.28-14.39C79.5,215.55,71,209,61.13,204.69A195.14,195.14,0,0,0,33,194.28c-1.14-.31-2.23-.8-3.36-1.11-.63-.17-1.57-.45-1.94-.15-1.8,1.44-3.53.39-5.29.08a29.3,29.3,0,0,1-10.64-4.66A13.27,13.27,0,0,1,7,183.28,22.84,22.84,0,0,1,4.24,170.27ZM25,159.76c-7.14-1.19-11.58,1.57-15,6.19a6.59,6.59,0,0,0-1,3.8A20.08,20.08,0,0,0,14.4,183.6c2.16,2.29,4.74,4.23,8.4,4,1.79-.12,3.67.59,5.46,1.08a242.52,242.52,0,0,1,27.09,8.69,144.93,144.93,0,0,1,24.08,12c8.13,5.19,16.61,9.85,25,14.58,5.94,3.34,12.4,5.48,18.88,7.51a9,9,0,0,0,2.49.45c2.87,0,4.51-1.4,4.61-4.24.22-5.86-2.4-10.54-6.74-14.14a143.38,143.38,0,0,0-25.79-17.17c-3-1.55-6.14-2.86-9.25-4.18-2.8-1.19-5.74-2.09-8.47-3.43-4.26-2.08-8.47-4.3-12.56-6.69A163.5,163.5,0,0,0,48,172.47a68.78,68.78,0,0,1-16-8.78,36.81,36.81,0,0,0-4.74-3A14.64,14.64,0,0,0,25,159.76Z" transform="translate(0 0)"/><path class="cls-1" d="M13.6,218.49a17.33,17.33,0,0,1,3.09,1.23,99.06,99.06,0,0,0,18.53,9.42c2.53.94,5.15,1.66,7.67,2.63C54,236,65.06,240.19,76.06,244.6a77.36,77.36,0,0,1,32.2,24.1c3,3.83,6,7.73,9,11.6-.36,1.36-1.44,1.44-2.39,1a14.2,14.2,0,0,1-5.43-4.48c-2.58-3.36-5.06-6.83-7.93-9.95a77.63,77.63,0,0,0-30.46-20.61c-5.87-2.18-11.77-4.27-17.6-6.56-2.67-1.05-5.14-2.62-7.78-3.73-6.08-2.57-12.32-4.78-18.29-7.57-4.58-2.14-8.87-4.93-13.24-7.5-.51-.3-.76-1-1.13-1.56Z" transform="translate(0 0)"/><path class="cls-1" d="M121.75,271.76a11.55,11.55,0,0,1-2.35-.32,3.36,3.36,0,0,1-1.11-1A154.62,154.62,0,0,0,97,250.84c-5.05-4-10.62-7.27-16-10.77a94.6,94.6,0,0,0-16.53-8.91c-4.25-1.68-8.58-3.15-12.89-4.67-7.67-2.71-15.39-5.28-23-8.14a96.28,96.28,0,0,1-9.61-4.6c-.86-.43-1.86-1-1.37-2.64a10.34,10.34,0,0,1,2.73.51c13.15,6.41,27,11,40.84,15.51a101,101,0,0,1,21.58,10.1c5.93,3.63,11.87,7.2,17.43,11.4a123.27,123.27,0,0,1,18.4,16.74A10.91,10.91,0,0,1,121.75,271.76Z" transform="translate(0 0)"/><path class="cls-1" d="M115.95,222.18c-.83-.42-1.89-.94-2.94-1.48-5.27-2.72-10.57-5.4-15.81-8.18-2.84-1.51-5.68-3.06-8.38-4.8C79.67,201.81,69.95,197,60.2,192.2c-7.63-3.73-15.81-6.11-23.89-8.73-2.9-.94-5.73-2.06-8.58-3.14a14.19,14.19,0,0,1-2.25-1.17c-.77-.46-1.33-1.15-1-2.08s1.33-.89,2.11-.52c7.54,3.56,15.73,5.26,23.49,8.21,2.05.78,4.09,1.63,6.08,2.57,8.58,4.06,17.21,8,25.69,12.3,4.53,2.28,8.72,5.24,13.19,7.67,6,3.24,12.05,6.24,18.06,9.39a47.84,47.84,0,0,1,4.8,2.88,2.1,2.1,0,0,1,.81,1.64c-.14,1.09-1.18,1-2,1C116.57,222.23,116.4,222.2,115.95,222.18Z" transform="translate(0 0)"/><path class="cls-1" d="M86.59,196.62a7.48,7.48,0,0,1-2.39-.33c-11.72-6.18-24.08-10.85-36.47-15.46-5.4-2-10.75-4.15-16.14-6.21A8.44,8.44,0,0,1,27,170.94a7.83,7.83,0,0,1,2.23-.2c2.28.64,4.54,1.36,6.79,2.11,6.58,2.22,13.25,4.2,19.68,6.78,9.72,3.91,19.31,8.17,28.1,14a22.79,22.79,0,0,1,2.4,1.84C86.43,195.64,86.42,196.07,86.59,196.62Z" transform="translate(0 0)"/><path class="cls-1" d="M450.83,405a59.5,59.5,0,0,1,13.43,1.53,40.15,40.15,0,0,1,8.68,3.16A66.91,66.91,0,0,1,484,416.13a47.1,47.1,0,0,1,7.09,6.28c2.29,2.62,4.46,5.35,6.65,8.06a9.1,9.1,0,0,1,1.58,2.89,7.3,7.3,0,0,0,2.17,3.57,3.45,3.45,0,0,1,.87,1.12c1.53,3,3.64,5.76,4.8,9a44.92,44.92,0,0,1,2.44,9.16c.4,2.9,1,5.77,1.5,8.65a9.19,9.19,0,0,1,.2,1.41c.05,3.33.09,6.65.13,10a2.21,2.21,0,0,1,0,.47c-.72,3.44-.38,7-.78,10.41a7.83,7.83,0,0,0-.05,1.42,13.54,13.54,0,0,1-.89,5.59,29.76,29.76,0,0,1-4.85,8.92A98.68,98.68,0,0,1,492.59,515a39,39,0,0,1-8.64,5.35c-3.52,1.71-7.28,2.66-11,3.85-2.64.85-5.29,1.65-7.92,2.53a67.83,67.83,0,0,1-8.81,1.91,33.64,33.64,0,0,1-10.87.08,38.09,38.09,0,0,1-4.62-1.07c-1.68-.44-3.35-.93-5-1.43-1.13-.35-2.25-.74-3.36-1.16-1.7-.64-3.39-1.32-5.07-2a12.09,12.09,0,0,1-1.72-.81c-2.17-1.31-4.32-2.64-6.47-4-.27-.17-.51-.38-.78-.53a35.59,35.59,0,0,1-9.37-7.56c-1.41-1.5-2.87-3-4.19-4.54-1.82-2.18-3.55-4.45-5.29-6.7a5.23,5.23,0,0,1-.66-1.26,29.93,29.93,0,0,0-2.33-4.12,65.21,65.21,0,0,1-4.08-7.46c-1.42-3.26-1.7-6.73-2.5-10.1-.26-1.08-.45-2.17-.68-3.25a11.69,11.69,0,0,1-.2-4c.07-.47.26-1,.07-1.4-1.11-2.17,0-4.14.44-6.17a12.51,12.51,0,0,0,.38-2.79,12.1,12.1,0,0,1,.54-4c1.37-4.13,2.61-8.31,4.12-12.39a25.81,25.81,0,0,1,2.85-5.19c1.84-2.77,3.81-5.45,5.77-8.14a51.39,51.39,0,0,1,12.91-12.13,44.78,44.78,0,0,1,6.9-4.18,90.44,90.44,0,0,1,11.73-4.52,71,71,0,0,1,11.11-2.47C447.51,405.12,449.17,405.09,450.83,405Zm1.26,3.24a61.45,61.45,0,0,0-13.88,1.54c-6.31,1.62-12.46,3.68-18,7.15-2.28,1.42-4.45,3-6.61,4.61a29.21,29.21,0,0,0-5.27,4.77,115.08,115.08,0,0,0-8.91,12,34.74,34.74,0,0,0-4,8c-1.27,4-2.7,7.94-4,11.91a7.33,7.33,0,0,0-.38,2.55c0,1.33.31,2.62.43,3.93.23,2.6.34,5.2.5,7.81,0,.39.07.79.13,1.18.33,2.18.69,4.36,1,6.54.47,3.39,1.11,6.73,3.25,9.56a3,3,0,0,1,.33.63c1.08,2.55,3,4.63,3.94,7.28,1.76,2.34,3.44,4.74,5.3,7,1.45,1.77,3.13,3.35,4.68,5a35.21,35.21,0,0,0,7.19,5.78,93.65,93.65,0,0,0,8.45,4.8,47,47,0,0,0,9.18,3.84c1.53.4,3.08.74,4.61,1.13a31.56,31.56,0,0,0,11.76,1c1.1-.14,2.21-.2,3.31-.3a38.91,38.91,0,0,0,9.27-2c5.53-1.92,11-3.9,16.58-5.81a35.68,35.68,0,0,0,10.72-6c1.9-1.53,3.7-3.2,5.47-4.89s3.55-3.4,5.16-5.24a22.64,22.64,0,0,0,3.55-5.32,33.46,33.46,0,0,0,2.91-12.15c.11-1.74.15-3.48.35-5.21a25.85,25.85,0,0,0,.19-6.87,4.23,4.23,0,0,1,0-1.18,22,22,0,0,0-.32-6.15c-.34-2.34-.67-4.7-.83-7.06a29,29,0,0,0-4-13.27,69.6,69.6,0,0,1-3.8-7.88,24.71,24.71,0,0,0-2.71-5c-1.86-2.45-4-4.71-6-7a32.46,32.46,0,0,0-2.84-2.87c-1.55-1.35-3.16-2.63-4.77-3.91a25.19,25.19,0,0,0-5.76-3.74c-2.69-1.14-5.39-2.27-8.12-3.31a29.52,29.52,0,0,0-5.87-1.86C460.16,408.7,456.18,407.8,452.1,408.23Z" transform="translate(0 0)"/><path class="cls-1" d="M484.31,523.31l-.56.43a37.4,37.4,0,0,1-6.88,4.15,19.53,19.53,0,0,1-8.85,2.32,11.59,11.59,0,0,0-4.17.71,18.08,18.08,0,0,1-10.06.37.66.66,0,0,1-.4-.49.63.63,0,0,1,.41-.47c1.34-.07,2.69-.13,4-.1a18.43,18.43,0,0,0,6.56-.84,8.5,8.5,0,0,1,2.81-.27,21.56,21.56,0,0,0,8.3-1.81,64,64,0,0,0,6.31-3.24A4.56,4.56,0,0,1,484.31,523.31Z" transform="translate(0 0)"/><path class="cls-1" d="M400.91,474.51c.43-.39.92-.69,1-1.44a27.76,27.76,0,0,0,.17-6.86,20.37,20.37,0,0,1,1-8.86,24.71,24.71,0,0,0,1.23-5.06A32.4,32.4,0,0,1,407.74,442c.48-1,.92-2,1.38-3a8.24,8.24,0,0,1,2.1-3.38,2.5,2.5,0,0,0,.57-.76,26,26,0,0,1,5.61-6.72,41.94,41.94,0,0,1,4.83-3.83,89.28,89.28,0,0,1,11.89-6.44,34.82,34.82,0,0,1,11.68-2.91,74.57,74.57,0,0,1,12.33.18,45.25,45.25,0,0,1,13.51,3.56c3,1.25,6,2.6,8.84,4.07a35.56,35.56,0,0,1,4.79,3.07,10.94,10.94,0,0,1,3.06,3.28c.2.34.41.82.72.92,1.77.56,2.31,2.23,3.32,3.48.6.73,1.27,1.4,1.93,2.09a25.3,25.3,0,0,1,5.22,8.43,5.45,5.45,0,0,1,.13,1.39,17.05,17.05,0,0,0,.27,2.34c.45,1.84.89,3.7,1.51,5.49a55.67,55.67,0,0,1,1.69,7.63c.35,1.78.62,3.58.86,5.38a36,36,0,0,1,0,9.7c-.33,2.39-.92,4.83-.24,7.3a3.35,3.35,0,0,1-.2,1.85,44,44,0,0,1-1.81,4.63,44.76,44.76,0,0,1-7,11,23.68,23.68,0,0,1-3.25,3.1c-3.56,2.65-7.19,5.2-10.8,7.77a8.09,8.09,0,0,1-3,1.4,38.08,38.08,0,0,0-7.73,3,31.27,31.27,0,0,1-7.94,2.37c-2.65.45-5.31.91-8,1.17a41.67,41.67,0,0,1-9.24-.43c-1.33-.17-2.68-.26-4-.47a12.46,12.46,0,0,1-3-.73,66.76,66.76,0,0,1-13.29-7.31,17,17,0,0,1-4.21-3.74,2.88,2.88,0,0,0-1.06-.92,15,15,0,0,1-4.77-4.18,28.52,28.52,0,0,0-2.81-2.88,30.11,30.11,0,0,1-6-7,32,32,0,0,1-4.1-9.82,14.91,14.91,0,0,1-.45-4.92A11.2,11.2,0,0,0,400.91,474.51Zm42.17,12.74c-.36.7-.68,1.42-1.09,2.09-1.35,2.23-2.85,4.35-4,6.7a30,30,0,0,1-4.84,7.27,13.63,13.63,0,0,0-1.46,1.86c-.74,1.14-.62,1.92.51,2.62a53.79,53.79,0,0,1,6.91,5.38,7.69,7.69,0,0,0,2.25,1.26,8.31,8.31,0,0,0,4,.2,8.65,8.65,0,0,0,4.49-1.95,3.39,3.39,0,0,0,1.47-2.8c.06-3.24.25-6.48.39-9.71a6.55,6.55,0,0,1,.46-2.78,3.84,3.84,0,0,0,.22-2.79,13.77,13.77,0,0,1-.33-6.56,18.42,18.42,0,0,0,.08-1.89c.09-1,.24-2,.31-3a17.55,17.55,0,0,0,.24-3.5A13.89,13.89,0,0,1,451,480c-.54.05-.72-.87-1.59-.52-1.56,2.56-4.11,4.55-5.67,7.34-.13.24-.49.36-.75.54,0-.16,0-.34.06-.46,1.41-2.19,2.85-4.37,4.26-6.56a11.23,11.23,0,0,0,1-1.86c.17-.42-.13-.77-.55-.89a1.53,1.53,0,0,0-.92-.07c-.9.38-1.66-.11-2.4-.45-.81.59-1.54,1.06-2.21,1.61a48.18,48.18,0,0,1-9.16,5.89c-1.69.86-3.45,1.57-5.13,2.44a33.24,33.24,0,0,1-5.43,2.37c-1.06.33-2.09.74-3.12,1.14a9.47,9.47,0,0,0-3.83,2.72,1.86,1.86,0,0,0-.3,2.39,6.14,6.14,0,0,1,.59,1.55,3.66,3.66,0,0,0,3,2.69c3.56.88,4.48,1.81,5.82,5.42a.87.87,0,0,0,.2.4,15.54,15.54,0,0,0,1.76,1.2c.51.28,1,.81,1.77.55a3.91,3.91,0,0,0,.23-.9,6.81,6.81,0,0,1,2-4.45,23.61,23.61,0,0,1,2.19-2.17,8.61,8.61,0,0,0,1.84-2.14,19.38,19.38,0,0,1,1.4-1.9c1-1.39,2.09-2.78,3.15-4.15A26.43,26.43,0,0,1,443.08,487.25Zm5.45-65.77.66-3.57h-1.64a7.31,7.31,0,0,0,1,3.61c-.69-.16-1.45-.23-1.72-1-.46-1.38-1.54-1.58-2.81-1.68a17.2,17.2,0,0,0-10.38,2.72c-2.43,1.46-4.73,3.15-7.1,4.71a3.29,3.29,0,0,0-1.31,1.9c-.38,1.22-.28,1.64.75,2.4a3.6,3.6,0,0,1,1.4,1.53,19.07,19.07,0,0,0,5.09,7,41.51,41.51,0,0,1,7,8,22.08,22.08,0,0,0,2.2,2.77c1.23,1.33,2.59,2.55,3.82,3.89,1.54,1.67,2.7,3.71,4.74,4.91a2,2,0,0,1,.46.54c.18.24.33.54.73.26a10.19,10.19,0,0,1-.1-2.56,20,20,0,0,0,0-4.72,49.14,49.14,0,0,0-.3-5.44,36.74,36.74,0,0,0-1.53-7.9,5.2,5.2,0,0,1-.21-1.16c-.35-2.82-.67-5.65-1-8.47A22,22,0,0,1,448.53,421.48Zm-.69,37.87a46.85,46.85,0,0,0-7.18-8.39,16.08,16.08,0,0,1-3-3.36,28.77,28.77,0,0,0-5.7-6.91,37.2,37.2,0,0,1-4.86-5.49c-.71-.94-1.24-2-2.52-2.32-.95-1.29-2.31-1.2-3.67-1.06-.63.06-1.24.28-1.87.31a3.2,3.2,0,0,0-3,2.22,49.16,49.16,0,0,1-4.09,7.47,6.13,6.13,0,0,0-.81,2,9.15,9.15,0,0,1-1.46,3.21,7.54,7.54,0,0,0-1.42,4,2.21,2.21,0,0,0,.93,2,15.22,15.22,0,0,0,4.41,2.25,10.55,10.55,0,0,1,2.54,1.2,23.39,23.39,0,0,0,7.05,3.3c3.45.87,6.87,1.89,10.37,2.47a47.46,47.46,0,0,1,8.49,2.1,7.87,7.87,0,0,0,2.31.5,2.34,2.34,0,0,0,2.54-3.07c-.11-.44-.26-.87-.47-1.53Zm8.5-2.15c.68.65,1.3,1.26,1.93,1.85,1,1,1.74,1,2.89.07.68-.55,1.29-1.17,2-1.71a43.91,43.91,0,0,1,4.14-3.15c2.56-1.57,5.19-3,7.85-4.41a9.83,9.83,0,0,0,3.24-2.71,16.32,16.32,0,0,1,4.1-3.9,47.91,47.91,0,0,0,7.29-5.56,22.53,22.53,0,0,1-.46-2.8c-.08-2,0-2.05-2.07-2.3a3.17,3.17,0,0,1-2.88-2.08,5.34,5.34,0,0,1-.3-.64,4.57,4.57,0,0,0-2.16-2.71c-.65-.44-1.27-.94-1.92-1.38a4.14,4.14,0,0,0-1-.56,7.18,7.18,0,0,0-7.43,2.39c-1.47,2-2.89,4-4.28,6a9.36,9.36,0,0,0-1.35,2.49c-.72,2.39-2.13,4.4-3.3,6.55a48.42,48.42,0,0,0-2.35,4.64C458.88,450.45,457.68,453.71,456.34,457.19Zm28.77,31.66a10.33,10.33,0,0,0-.14,1,2.32,2.32,0,0,0,.08,1.12,10.47,10.47,0,0,0,1.52,2.11c1,1,2.18,2,3.28,3a3.55,3.55,0,0,0,5.11,0,8.54,8.54,0,0,0,2.6-4.44A14.46,14.46,0,0,1,500,486a6,6,0,0,0,1-4.07,2.07,2.07,0,0,0-.87-1.6,10.34,10.34,0,0,0-4.09-1.81,49.7,49.7,0,0,1-6.6-1.91c-1.92-.74-3.78-1.66-5.75-2.22-3.35-1-6.66-2-10-3.1a2.47,2.47,0,0,0-1.17-.14c-1.77.34-3.47-.16-5.17-.43a25.24,25.24,0,0,0-4.2-.32l-1.57,1.8c1,1.24,2,2.37,3,3.55a18.37,18.37,0,0,0,4,3.7c1.83,1.26,3.61,2.58,5.37,3.91a17.87,17.87,0,0,0,6,3.35,4.44,4.44,0,0,1,1.47.74A5.75,5.75,0,0,0,485.11,488.85Zm-80.59-15.1a2.94,2.94,0,0,0,3,1.34,78.57,78.57,0,0,1,9.92-.86,31.43,31.43,0,0,1,3.8-.14,45.37,45.37,0,0,0,9-.6c2.74-.4,5.46-.91,8.18-1.38,1-.18,2-.37,3-.59s1.31-1.56,2.3-2a1.93,1.93,0,0,0,.68-.65c.22-.29.38-.62.67-1.11-2-.82-3.72-1.69-5.56-2.28a41.48,41.48,0,0,0-4.65-.89c-1.55-.3-3.11-.58-4.63-1-2.6-.67-5.18-1.42-7.77-2.14-1.06-.29-2.13-.56-3.18-.88a19.21,19.21,0,0,1-4.43-2.25,8.38,8.38,0,0,0-7.08-.9,3.38,3.38,0,0,0-2.72,3.44,25.21,25.21,0,0,1-.09,2.84,8.8,8.8,0,0,0,.42,4.67,4.77,4.77,0,0,1-.29,4.12C404.92,472.89,404.76,473.25,404.52,473.75ZM452,459c.61-.08,1,0,1.3-.2a5.11,5.11,0,0,0,2.14-2.75c.55-1.73,1.22-3.43,1.83-5.14.16-.45.24-.92.41-1.36a1.16,1.16,0,0,0-.34-1.48c-.14-.12-.14-.4-.23-.67.56-.38,1.11-.7,1.59-1.09a1.15,1.15,0,0,0,.43-1.45c-.55-1.29.22-2.09,1.14-2.8.48-.37,1.25-.36,1.44-1.22l-1.36-1.19c.18-.75.3-1.43,1.15-1.6l1,1.54c.56-1.24,1-2.24,1.46-3.25a36.57,36.57,0,0,1,2.42-5.14,31.21,31.21,0,0,0,3.51-7.24c.32-1.06.72-2.1.16-3l-4-1.39a5.9,5.9,0,0,0-.89-.32,67,67,0,0,0-10.56-1.44c-1.79,0-3.33.73-3.46,3s-.38,4.57-.56,6.86a41.82,41.82,0,0,0,1.19,12.94,16.89,16.89,0,0,1,.46,2.32c.22,2.44.34,4.9.56,7.34a14.59,14.59,0,0,1-.49,6.31A14.72,14.72,0,0,0,452,459Zm47.72-4.62c-.77-3.7-1.3-7.13-3.13-10.18a12.7,12.7,0,0,1-1.42-2.72,2.71,2.71,0,0,0-2.45-1.92,3.53,3.53,0,0,0-2.86.85c-1.83,1.38-3.71,2.69-5.6,4a8.93,8.93,0,0,0-1.87,1.76c-1.55,1.89-3.06,3.84-5.28,5.06s-4.1,2.37-6.15,3.56c-.34.2-.69.38-1,.61l-7.4,5.36c-.1.95-.22,1.73-.24,2.5a1.3,1.3,0,0,0,1.47,1.44,64.22,64.22,0,0,0,6.6-.61,46.64,46.64,0,0,0,9.83-2.68c2.12-.85,4.29-1.58,6.41-2.44a36.86,36.86,0,0,0,6-2.75A10.22,10.22,0,0,1,499.7,454.41ZM487.83,503a8.4,8.4,0,0,0-3.93-7.47c-.4-.26-.81-.49-1.2-.77a21.7,21.7,0,0,1-2.28-1.71c-2.65-2.5-5.6-4.66-8.14-7.27-3.25-3.35-6.84-6.37-9.88-9.93a3.73,3.73,0,0,0-.73-.52l-.86,1.74c-.42.84-1.41,0-2,.7.5,1.28,1.11,2.56,1.5,3.91a36.08,36.08,0,0,0,2.45,5.91,58.71,58.71,0,0,1,3.22,7.13,55.24,55.24,0,0,0,4.68,10.09,18.28,18.28,0,0,0,3.47,4.2,2.88,2.88,0,0,0,2.85.72,6.1,6.1,0,0,0,1.32-.51A78.18,78.18,0,0,0,487.83,503ZM464,468.67c1.18.22,2.17.46,3.18.59,2.43.31,4.86.57,7.29.85a13.77,13.77,0,0,1,4.53,1.21,11.5,11.5,0,0,0,3.62,1,26,26,0,0,1,7.29,2c2.79,1.25,5.78,1.53,8.75,1.88a4.61,4.61,0,0,0,1.4-.11c1.36-.27,1.71-.65,1.87-2a29.63,29.63,0,0,0-.39-8.5,16.49,16.49,0,0,1-.3-3.52,7.36,7.36,0,0,0-1.57-5,4.24,4.24,0,0,0-3.51.6,20.62,20.62,0,0,1-5.65,2.38,38.31,38.31,0,0,1-6.58,1.93,20.89,20.89,0,0,0-5.62,1.75,13.91,13.91,0,0,1-3.19.9c-2.56.45-5.14.81-7.71,1.2l-3,.48ZM454.34,478c-.19.64-.44,1.29-.58,2a86,86,0,0,0-1.13,10.15,9.76,9.76,0,0,0,.25,2.58,19.66,19.66,0,0,1,.32,5.66,40.09,40.09,0,0,0,0,5.21c.06,1.82.19,3.63.29,5.44,0,.47,0,1,.07,1.42a3.06,3.06,0,0,0,2.26,2.76,9.23,9.23,0,0,0,4.92.24c1.31-.29,2.62-.6,3.91-.94a9.39,9.39,0,0,0,5.25-3,2.15,2.15,0,0,0,.46-1.76,8.1,8.1,0,0,0-1-2.65c-.85-1.61-1.9-3.12-2.62-4.78-1.68-3.85-3.59-7.58-5.5-11.31a51,51,0,0,1-3.5-8.3c-.25-.82-.55-1.63-.8-2.39Zm-42,15.54a5.64,5.64,0,0,0,.67-.86,10,10,0,0,1,6-4.75,90,90,0,0,0,10.14-4,11.56,11.56,0,0,1,2-.8c5.1-1.45,9.12-4.64,13-8a2.11,2.11,0,0,0,.92-1.88,3.58,3.58,0,0,0-.92-.07c-3.5.65-7,1.35-10.49,2-3.27.59-6.55,1.12-9.83,1.67a6.83,6.83,0,0,1-.95,0c-3.48.08-7,.12-10.44.28a21.63,21.63,0,0,0-3.74.61,5.36,5.36,0,0,0-3.42,2.37,1.88,1.88,0,0,0-.31,1.57,26.52,26.52,0,0,0,2.9,7,2.85,2.85,0,0,0,.77.89,9.37,9.37,0,0,1,3.39,3.83C412,493.4,412.14,493.42,412.32,493.5Zm33.42-23a13.36,13.36,0,0,1,1.79,2.25,14.1,14.1,0,0,1,.7,2.76l3.52,2.05,2.1-1.42a3.51,3.51,0,0,0,1.84-.1c.8-.29,1.63-.52,2.6-.83.09-.21.39-.58.36-.92a7.6,7.6,0,0,1,.74-4.28c-.48-1.54.45-2.52,1.45-3.39-.51-1.29-.94-2.48-1.46-3.63a4.49,4.49,0,0,0-1.07-1.52c-.77-.66-1.65-1.19-2.6-1.85a16.8,16.8,0,0,1-2.71,1.77,21.72,21.72,0,0,1-3.5.85,7,7,0,0,1-2.82,4.27C446.9,468,447,469.4,445.74,470.54Zm7.79,45.2c-.55-.86-.92-1.45-1.31-2-.2-.3-.43-.58-.67-.9-.51.46-.93.8-1.31,1.19s-1,.68-1,1.52A9,9,0,0,0,453.53,515.74Zm18.67-94.3a3,3,0,0,0-.53,2.53A6.74,6.74,0,0,0,475,422.4,5.36,5.36,0,0,0,472.2,421.44Zm17.2,77.16a4,4,0,0,0-.11.84c.08.64-.47,1.53.44,1.86.66.24,1.08-.46,1.52-.88a2.11,2.11,0,0,0,.31-.64A3.2,3.2,0,0,0,489.39,498.6Zm-67.07,5.31c-.95-1.67-.95-1.67-2.4-2.28-.4-.17-.79-.58-1.26.09A7.39,7.39,0,0,0,422.32,503.91Zm59.39-12c0-1.41-.43-1.81-2.95-2.71C480,490.21,480.45,491.44,481.72,491.91ZM420.91,429l.19.45,1.64-.21a1.79,1.79,0,0,0,0-1.78Zm71.29,8.44c.1-.1.28-.21.27-.31a1.87,1.87,0,0,0-1.44-1.54.41.41,0,0,0-.31.25A1.43,1.43,0,0,0,492.2,437.47Zm-22.55,74.88a3.21,3.21,0,0,0,3-1.27C471.32,510.74,470.74,511.65,469.65,512.35Zm-64.8-35.86c-.28-.22-.49-.48-.59-.45a1.29,1.29,0,0,0-.61.5c-.06.09.15.35.24.53Zm1.43-21.41c.2-.09.44-.14.45-.22a2,2,0,0,0-.09-.59c-.17.06-.46.1-.49.2S406.22,454.87,406.28,455.08Zm94.84,23.36c.06,0,.14,0,.16-.06a.64.64,0,0,0,0-.22l-.3.09Z" transform="translate(0 0)"/><path class="cls-1" d="M478,417.43c-2.83-1.28-5.18-2.36-7.56-3.4a15.72,15.72,0,0,0-2-.66c-1.52-.43-3-.89-4.58-1.26a39.84,39.84,0,0,0-8.94-1.11,12.35,12.35,0,0,0-3,.46c-1.82.46-3.62,1-5.6,1.57a6.78,6.78,0,0,1,4.3-2.82,15.15,15.15,0,0,1,6.81-.59c1.64.29,3.31.37,4.95.65,1.16.2,2.3.58,3.44.89.38.11.73.33,1.12.4,2.93.52,5.52,1.93,8.15,3.19a16.37,16.37,0,0,1,2.4,1.52C477.6,416.42,477.66,416.78,478,417.43Z" transform="translate(0 0)"/><path class="cls-1" d="M397.41,461.78a2.66,2.66,0,0,1-.15,2.22,9.65,9.65,0,0,0-.77,5.1,83.45,83.45,0,0,0,.71,9.21,11.31,11.31,0,0,0,.26,1.4,25.65,25.65,0,0,1,1,5.83,7.11,7.11,0,0,0,.78,2.71,12.27,12.27,0,0,1,1.45,4.76c-.28-.1-.48-.11-.52-.19-1.39-3.1-2.85-6.18-2.9-9.68a7.69,7.69,0,0,0-.25-1.39,36.18,36.18,0,0,1-1.08-7.48,52.84,52.84,0,0,0-.54-6.37,5.1,5.1,0,0,1,.47-3.22c.38-.69.57-1.47.9-2.19A3.32,3.32,0,0,1,397.41,461.78Z" transform="translate(0 0)"/><path class="cls-1" d="M446.77,523.28c-4.59.54-8.45-.41-11.1-2.76a1.81,1.81,0,0,1,1.52.07c1.8.57,3.6,1.17,5.41,1.67a30.09,30.09,0,0,0,3,.55A2.19,2.19,0,0,1,446.77,523.28Z" transform="translate(0 0)"/><path class="cls-1" d="M501.11,478.44l-.1-.2.3-.09a.64.64,0,0,1,0,.22S501.17,478.42,501.11,478.44Z" transform="translate(0 0)"/><path class="cls-1" d="M416.07,446.85a4.91,4.91,0,0,0-2.68,2.08c-.07.13-.55,0-1,0l.32-2.45C414.81,445.55,414.81,445.55,416.07,446.85Z" transform="translate(0 0)"/><path class="cls-1" d="M417.05,437.32c.92-.82,2-.56,3.12-.69-.1,1.17-.27,1.37-1.27,1.57S417.61,438.3,417.05,437.32Z" transform="translate(0 0)"/><path class="cls-1" d="M414.74,441.57c-.15-.63,0-1,.5-1,.83,0,1.67.13,2.84.24C416.83,441.47,415.92,442,414.74,441.57Z" transform="translate(0 0)"/><path class="cls-1" d="M417.06,443.35c-1.13.4-1.7.63-2.29.81a1.55,1.55,0,0,1-.69,0c-.13,0-.34-.19-.33-.27s.16-.53.26-.53C414.86,443.35,415.71,443.36,417.06,443.35Z" transform="translate(0 0)"/><path class="cls-1" d="M435,449.25l1.73.81c-.42.19-.62.36-.81.35C435.27,450.38,435.07,449.9,435,449.25Z" transform="translate(0 0)"/><path class="cls-1" d="M446.29,431.38c-.56-.93-1-1.63-1.4-2.38s-.31-.74.83-1.67c.32,1.22.63,2.39.92,3.57C446.65,430.94,446.56,431,446.29,431.38Z" transform="translate(0 0)"/><path class="cls-1" d="M448,441.65c.92.94,1,1,.73,1.6a.73.73,0,0,1-.52.38.69.69,0,0,1-.55-.32A1.25,1.25,0,0,1,448,441.65Z" transform="translate(0 0)"/><path class="cls-1" d="M448.38,447.37c-.07-.52.24-.93.62-.86a.7.7,0,0,1,.44.44.56.56,0,0,1-.6.75C448.65,447.67,448.49,447.46,448.38,447.37Z" transform="translate(0 0)"/><path class="cls-1" d="M447.42,438.22a.78.78,0,0,1-.81-.83c0-.19.18-.39.29-.59.17.11.46.19.49.32A5.59,5.59,0,0,1,447.42,438.22Z" transform="translate(0 0)"/><path class="cls-1" d="M483.86,438.18a2.37,2.37,0,0,1-.86,2.28c-.84,1-1.64,1.24-1.9.71-.4-.84.32-1.29.8-1.73S482.93,438.26,483.86,438.18Z" transform="translate(0 0)"/><path class="cls-1" d="M475.35,445l1.3-1C476.48,444.84,476.48,444.84,475.35,445Z" transform="translate(0 0)"/><path class="cls-1" d="M488.66,491.63c1.29-.29,2.29.61,3.22-.11a1.84,1.84,0,0,0,2-.62c.38-.42.76-.18,1.5.82L494,492l-.63,1-2-.41c-.29-.06-.64-.24-.85-.13C489.54,493,489.38,492.17,488.66,491.63Z" transform="translate(0 0)"/><path class="cls-1" d="M495.36,487c0-1,1.14-1.26.79-2.13a.68.68,0,0,1,.37-.21.69.69,0,0,1,.37.23c-.37.83.37,1.24.74,2-.3.17-.61.47-.92.48A5.26,5.26,0,0,1,495.36,487Z" transform="translate(0 0)"/><path class="cls-1" d="M495.8,490.27c-.27-.28-.56-.45-.64-.69-.13-.4.42-.87.89-.82s.83.53.66.77A4.5,4.5,0,0,1,495.8,490.27Z" transform="translate(0 0)"/><path class="cls-1" d="M414.38,461.74a.93.93,0,0,1-1.35.47,1.33,1.33,0,0,1-1-1.2c0-.14.29-.42.43-.41C413.29,460.65,413.34,460.71,414.38,461.74Z" transform="translate(0 0)"/><path class="cls-1" d="M419.31,464a7.72,7.72,0,0,1-1.53.08c-.19,0-.41-.43-.47-.69s.47-.7.8-.55.88.51,1.32.77Z" transform="translate(0 0)"/><path class="cls-1" d="M422.86,464.74c-.32.07-.56.2-.67.13s-.14-.34-.2-.53c.13,0,.3-.15.38-.11S422.64,464.5,422.86,464.74Z" transform="translate(0 0)"/><path class="cls-1" d="M426.76,466c-.21-.09-.44-.15-.44-.19a2.55,2.55,0,0,1,.17-.52c.13.06.35.1.36.18A1.52,1.52,0,0,1,426.76,466Z" transform="translate(0 0)"/><path class="cls-1" d="M446.49,490.14c.31.86-.24,1.61-.47,2.4,0,.12-.41.24-.6.2s-.51-.27-.5-.41c.06-.94.21-1.86,1.24-2.28C446.22,490,446.31,490.09,446.49,490.14Z" transform="translate(0 0)"/><path class="cls-1" d="M465.21,425.37c.6.91.36,1.93.32,2.91,0,.14-.32.3-.52.37a.46.46,0,0,1-.41-.14,2.45,2.45,0,0,1,.1-3C464.78,425.41,465,425.43,465.21,425.37Z" transform="translate(0 0)"/><path class="cls-1" d="M462.64,436.3c-1-1-.53-1.75-.26-2.45a1,1,0,0,1,1.06-.75c.37,0,.5.57.22,1.19S463,435.52,462.64,436.3Z" transform="translate(0 0)"/><path class="cls-1" d="M494.65,452.28c-.28.61-.34,1-.54,1.12a16.29,16.29,0,0,1-2,1.19.64.64,0,0,1-.59-.21.66.66,0,0,1,.07-.62A5.05,5.05,0,0,1,494.65,452.28Z" transform="translate(0 0)"/><path class="cls-1" d="M485.59,456.25a2,2,0,0,1-2,1.66c-.36-1.09-.32-1.34.32-1.49A13.41,13.41,0,0,1,485.59,456.25Z" transform="translate(0 0)"/><path class="cls-1" d="M479,459.73a2.6,2.6,0,0,1,.57-.21s.21.31.19.34a3.49,3.49,0,0,1-.52.34Z" transform="translate(0 0)"/><path class="cls-1" d="M474.87,504.53c.21-.24.32-.5.48-.52s.44.2.44.32a.61.61,0,0,1-.33.47C475.33,504.85,475.12,504.66,474.87,504.53Z" transform="translate(0 0)"/><path class="cls-1" d="M470.87,499.62c-.11-.18-.28-.35-.29-.53s.26-.22.4-.33a3.66,3.66,0,0,1,.31.59S471.06,499.5,470.87,499.62Z" transform="translate(0 0)"/><path class="cls-1" d="M499.3,472.57c-.46.45-.69.84-.87.81a22.67,22.67,0,0,1-2.94-.59c-.19-.05-.28-.49-.49-.89C496.5,471.58,497.71,472.06,499.3,472.57Z" transform="translate(0 0)"/><path class="cls-1" d="M489,470.77c-.17.34-.24.72-.43.81a2.18,2.18,0,0,1-1.11.13c-.67-.08-1-.63-.82-1.12s.73-.44,1.18-.28S488.55,470.58,489,470.77Z" transform="translate(0 0)"/><path class="cls-1" d="M437.31,484c.3-1.34,1.35-1.44,2.11-2.09A2.14,2.14,0,0,1,437.31,484Z" transform="translate(0 0)"/><path class="cls-1" d="M434,486.4c-.1,1.42-.85,1.61-1.83,2C432.36,487.24,433.06,487,434,486.4Z" transform="translate(0 0)"/><path class="cls-1" d="M456.08,486.24c.29,1.11.58,2,0,2.85C454.62,488.23,454.59,487.69,456.08,486.24Z" transform="translate(0 0)"/><path class="cls-1" d="M456.27,506c.3.5.54,1-.25,1.27a.54.54,0,0,1-.72-.39C455.15,506.38,455.33,506.21,456.27,506Z" transform="translate(0 0)"/><path class="cls-1" d="M454.75,498.17a10,10,0,0,1,.84-.7c.06,0,.35.1.35.16a1.78,1.78,0,0,1-.13.81.65.65,0,0,1-.55.24C455.11,498.65,455,498.42,454.75,498.17Z" transform="translate(0 0)"/><path class="cls-1" d="M427.51,478.72c-.45.2-.83.38-1.22.52-.07,0-.29-.15-.31-.26a.46.46,0,0,1,.16-.39A.94.94,0,0,1,427.51,478.72Z" transform="translate(0 0)"/><path class="cls-1" d="M516.22,375.19c0,6.92-9.09,13.54-16,13.54s-12.53-7.2-12.53-14.12a12.53,12.53,0,0,1,12.53-12.53C507.13,362.07,516.22,368.27,516.22,375.19Z" transform="translate(0 0)"/><path class="cls-1" d="M361.81,109c0,4.35-5.44,8.81-9.79,8.81a7.87,7.87,0,0,1-7.87-7.87c0-4.35,4.23-9.69,8.58-9.69S361.81,104.69,361.81,109Z" transform="translate(0 0)"/><path class="cls-1" d="M668.28,396.64a4.46,4.46,0,0,1-4.46,4.46c-2.46,0-6.83-2-6.83-4.46s4.37-4.46,6.83-4.46A4.46,4.46,0,0,1,668.28,396.64Z" transform="translate(0 0)"/></g></g></svg>