<svg xmlns="http://www.w3.org/2000/svg" viewBox="0 0 80.74 98.51"><defs><style>.cls-1{fill:#f9834e;}</style></defs><title>macaorange</title><g id="Layer_2" data-name="Layer 2"><g id="Layer_1-2" data-name="Layer 1"><path class="cls-1" d="M59.65,31.94a1.92,1.92,0,1,0,1.92,1.92A1.92,1.92,0,0,0,59.65,31.94Z"/><path class="cls-1" d="M67.63,36.77a1.92,1.92,0,1,0-3,2.45c2.84,3.45,4.54,8.72,4.54,14.1a1.92,1.92,0,0,0,3.85,0C73,47.07,71,40.88,67.63,36.77Z"/><path class="cls-1" d="M74.78,33.47c-4.16-5.94-9.87-9.2-16.07-9.2-6,0-10.05,4.8-12.53,6.33V24.35a20.38,20.38,0,0,1,6-14.5A5.77,5.77,0,1,0,44,1.69,31.83,31.83,0,0,0,35.3,17.82,25,25,0,0,0,13.47,5H9.59A1.93,1.93,0,0,0,7.7,6.93v3.85A24.8,24.8,0,0,0,13.34,26.6a24.12,24.12,0,0,0-9.12,9.69A36.06,36.06,0,0,0,0,53.31C0,61.91,3.11,73.15,7.93,82c5.85,10.68,13.29,16.56,21,16.56,1.41,0,5.87-1.67,7.31-2.62a6.69,6.69,0,0,1,4.38-1,5.94,5.94,0,0,1,3.94,1c1.43.95,5.89,2.62,7.31,2.62,7.68,0,15.13-5.88,21-16.56,4.82-8.8,7.93-20,7.93-28.64A35.25,35.25,0,0,0,74.78,33.47Zm-28-29.06a1.92,1.92,0,1,1,2.72,2.72,24.2,24.2,0,0,0-7.13,17.22v7.58a12.09,12.09,0,0,1-3.85,0c0-2.29,0-5.3,0-7.59A28,28,0,0,1,46.74,4.41ZM11.56,11.59l8.24,8.24a1.92,1.92,0,1,0,2.72-2.72L14.28,8.87A21.19,21.19,0,0,1,34.63,30v.63C31.05,28.51,26.72,22.1,17.05,25A21,21,0,0,1,11.56,11.59ZM69.43,80.11c-3,5.43-9.2,14.52-17.55,14.56a22.64,22.64,0,0,1-5.23-2,9.8,9.8,0,0,0-6.28-1.6,9.82,9.82,0,0,0-6.28,1.6,22.64,22.64,0,0,1-5.23,2c-8.35,0-14.58-9.13-17.55-14.56-4.53-8.28-7.46-18.79-7.46-26.8C3.85,42.21,9.46,32,17.2,29h0A13.61,13.61,0,0,1,22,28.12h0c4.7,0,8.12,4.62,11.09,6.11a16,16,0,0,0,14.42,0c3-1.49,6.42-6.11,11.13-6.11,4.91,0,9.5,2.69,12.92,7.57a31.32,31.32,0,0,1,5.26,17.63C76.89,61.31,74,71.83,69.43,80.11Z"/></g></g></svg>