<svg xmlns="http://www.w3.org/2000/svg" viewBox="0 0 120.73 92.26"><defs><style>.cls-1{fill:#ffcf57;}</style></defs><title>Ref</title><g id="Layer_2" data-name="Layer 2"><g id="Layer_1-2" data-name="Layer 1"><path class="cls-1" d="M60.44,13.76A35.73,35.73,0,1,0,96.17,49.49,35.77,35.77,0,0,0,60.44,13.76Zm0,66.75a31,31,0,1,1,31-31A31.05,31.05,0,0,1,60.44,80.51Z"/><path class="cls-1" d="M81.59,38a2.36,2.36,0,0,0-3.2-.94l-.11.07a2.36,2.36,0,0,0-.83,3.13,19.34,19.34,0,1,1-14-9.86,2.35,2.35,0,0,0,2.67-1.83s0-.08,0-.13a2.36,2.36,0,0,0-2-2.7A24.08,24.08,0,1,0,81.59,38Z"/><path class="cls-1" d="M75.5,29.79a2.26,2.26,0,0,0-.36-.29,2.33,2.33,0,0,0-.41-.22,2.38,2.38,0,0,0-.44-.13,2.33,2.33,0,0,0-.92,0,2.44,2.44,0,0,0-.44.13,2.32,2.32,0,0,0-1.06.87,2.33,2.33,0,0,0-.22.41,2.27,2.27,0,0,0-.09.28c0,.05,0,.11,0,.17a2.39,2.39,0,0,0,0,.92,2.43,2.43,0,0,0,.13.44,2.39,2.39,0,0,0,.51.76,2.56,2.56,0,0,0,.36.29,2.39,2.39,0,0,0,.41.22,2.44,2.44,0,0,0,.44.13,2.35,2.35,0,0,0,1.36-.13,2.32,2.32,0,0,0,.35-.18l.06,0a2.41,2.41,0,0,0,.36-.29,2.26,2.26,0,0,0,.29-.36,2.39,2.39,0,0,0,.22-.41,2.49,2.49,0,0,0,.13-.44,2.35,2.35,0,0,0,0-.46A2.38,2.38,0,0,0,75.5,29.79Z"/><path class="cls-1" d="M120.67,83.27,113,21a33.05,33.05,0,0,0-8.82-18.71L104,2.05a5.2,5.2,0,0,0-8.93,4.21l9.69,79q0,.38.13.75a8,8,0,0,0,14.78,2.25q.19-.33.35-.69t.28-.72A8,8,0,0,0,120.67,83.27ZM99.75,5.69a.44.44,0,0,1,.27-.5.53.53,0,0,1,.23-.06.44.44,0,0,1,.33.16l.21.22a28.34,28.34,0,0,1,7.56,16l4.08,33.2-6.55.8Zm16,79.76a3.3,3.3,0,0,1-6.34-.8l-3-24.41,6.55-.8,3,24.41A3.28,3.28,0,0,1,115.79,85.45Z"/><path class="cls-1" d="M29.08,2.68a2.36,2.36,0,0,0-2.63,2.05L24.31,22.2a5.62,5.62,0,0,1-5.26,4.94l-1.56-.19L20.31,4a2.36,2.36,0,1,0-4.68-.57l-2.82,23-1.56-.19a5.62,5.62,0,0,1-3.9-6.07L9.48,2.65A2.36,2.36,0,1,0,4.8,2.07L2.66,19.54A10.31,10.31,0,0,0,8.11,30L.09,81.6v0A8.21,8.21,0,0,0,7.21,91h0a8.37,8.37,0,0,0,1,.06,8.21,8.21,0,0,0,8.16-7.47l4.74-52A10.31,10.31,0,0,0,29,22.77L31.13,5.3A2.36,2.36,0,0,0,29.08,2.68ZM11.73,83.14a3.49,3.49,0,0,1-3.9,3.15h0a3.49,3.49,0,0,1-3-4l8-51.2,1.86.23h0l1.86.23Z"/></g></g></svg>