<svg xmlns="http://www.w3.org/2000/svg" viewBox="0 0 83.59 83.59"><defs><style>.cls-1{fill:#2e9cff;}</style></defs><title>salad</title><g id="Layer_2" data-name="Layer 2"><g id="Layer_1-2" data-name="Layer 1"><path class="cls-1" d="M82.19,52.94H1.39A1.39,1.39,0,0,0,0,54.34,29.29,29.29,0,0,0,29.25,83.59H54.33A29.29,29.29,0,0,0,83.59,54.34,1.39,1.39,0,0,0,82.19,52.94ZM54.33,80.8H29.25A26.5,26.5,0,0,1,2.82,55.73H80.76A26.5,26.5,0,0,1,54.33,80.8Z"/><path class="cls-1" d="M71.05,19.52c0-.1,0-.2,0-.36a5.78,5.78,0,0,0-3.9-4.92l1.58-1.58a7.46,7.46,0,0,0,.62-10,7.32,7.32,0,0,0-10.3-1c-.18.15-.35.3-.52.47L56.81,3.89a5.81,5.81,0,0,0-5-3.88A5.57,5.57,0,0,0,46,5.28c0,.1,0,.2,0,.3V7.71A5.54,5.54,0,0,0,43.19,7h-.36a5.77,5.77,0,0,0-5.22,5.8v1.89a5.55,5.55,0,0,0-2.78-.74h-.36a5.77,5.77,0,0,0-5.22,5.8V40.41a1.39,1.39,0,0,0,1.39,1.39H54.33a5.57,5.57,0,0,0,4.82-8.36H61a5.77,5.77,0,0,0,5.83-5.28A5.54,5.54,0,0,0,66.11,25a5.57,5.57,0,0,0,4.95-5.53Zm-3.6,2a2.77,2.77,0,0,1-2,.81H61.3a1.39,1.39,0,0,0,0,2.79h.15A2.78,2.78,0,0,1,64.09,28a3,3,0,0,1-3,2.69H54.33a1.39,1.39,0,0,0,0,2.79,2.79,2.79,0,1,1,0,5.57H32V19.72a3,3,0,0,1,2.64-3h.15a2.79,2.79,0,0,1,2.78,2.78h0A1.39,1.39,0,0,0,39,20.9h0a1.39,1.39,0,0,0,1.39-1.39h0V12.76a3,3,0,0,1,2.64-3h.15A2.79,2.79,0,0,1,46,12.54h0a1.39,1.39,0,0,0,1.39,1.39h0a1.39,1.39,0,0,0,1.39-1.39h0V5.42a2.76,2.76,0,0,1,2.88-2.64,3,3,0,0,1,2.69,3V7a1.39,1.39,0,0,0,2.38,1l3.78-3.84.32-.29a4.53,4.53,0,0,1,6.36.6,4.68,4.68,0,0,1-.41,6.26L63.1,14.35a1.39,1.39,0,0,0,1,2.38h1.23a3,3,0,0,1,3,2.64v.15A2.77,2.77,0,0,1,67.45,21.48Z"/><rect class="cls-1" x="14.21" y="27.86" width="55.16" height="2.79" transform="translate(-8.45 38.12) rotate(-45)"/><rect class="cls-1" x="51.54" y="11.16" width="2.79" height="6.97"/><rect class="cls-1" x="43.18" y="18.12" width="2.79" height="8.36"/><rect class="cls-1" x="34.82" y="25.08" width="2.79" height="9.75"/><rect class="cls-1" x="52.93" y="16.73" width="6.97" height="2.79"/><rect class="cls-1" x="44.58" y="25.08" width="8.36" height="2.79"/><rect class="cls-1" x="36.22" y="33.43" width="9.75" height="2.79"/><path class="cls-1" d="M26,6.44h0a6.43,6.43,0,0,0-8.9-1.78l-.29.2-.5.38-.48-.35a6.41,6.41,0,1,0-7.64,10.2L9.36,16v.71a7,7,0,1,0,13.93,0V16l1.23-1A6.41,6.41,0,0,0,26,6.44Zm-3.18,6.4L21,14.23a1.39,1.39,0,0,0-.54,1.1v1.39a4.18,4.18,0,1,1-8.36,0V15.33a1.39,1.39,0,0,0-.54-1.1L9.83,12.84l-.17-.11A3.62,3.62,0,1,1,14,7l.15.13,1.39,1a1.39,1.39,0,0,0,1.66,0L18.64,7a3.6,3.6,0,0,1,4.19,5.86Z"/><rect class="cls-1" x="30.65" y="1.39" width="2.79" height="2.79"/><rect class="cls-1" x="39" y="45.97" width="2.79" height="2.79"/><path class="cls-1" d="M75.23,8.37v2.79a2.79,2.79,0,1,1,0,5.57v2.79a5.57,5.57,0,1,0,0-11.14Z"/><rect class="cls-1" x="2.78" y="20.91" width="2.79" height="2.79"/><rect class="cls-1" y="15.34" width="2.79" height="2.79"/><path class="cls-1" d="M54.33,44.58a5.58,5.58,0,0,0-5.57,5.57h2.79a2.79,2.79,0,1,1,5.57,0H59.9A5.58,5.58,0,0,0,54.33,44.58Z"/><path class="cls-1" d="M16.72,32h-.18A5.57,5.57,0,0,0,5.75,32H5.57a5.57,5.57,0,1,0,0,11.14H16.72a5.57,5.57,0,0,0,0-11.14Zm0,8.36H5.57a2.79,2.79,0,1,1,0-5.57H7a1.39,1.39,0,0,0,1.39-1.39,2.79,2.79,0,0,1,5.57,0,1.39,1.39,0,0,0,1.39,1.39h1.39a2.79,2.79,0,1,1,0,5.57Z"/><path class="cls-1" d="M13.93,40.41H8.36A1.39,1.39,0,0,0,7,41.8v5.57a1.39,1.39,0,0,0,1.39,1.39h5.57a1.39,1.39,0,0,0,1.39-1.39V41.8A1.39,1.39,0,0,0,13.93,40.41ZM12.54,46H9.75V43.19h2.79V46Z"/><path class="cls-1" d="M73.83,36.23A4.18,4.18,0,1,0,78,40.41,4.18,4.18,0,0,0,73.83,36.23Zm0,5.57a1.39,1.39,0,1,1,1.39-1.39A1.39,1.39,0,0,1,73.83,41.8Z"/><path class="cls-1" d="M73.83,30.65a9.75,9.75,0,1,0,9.75,9.75A9.76,9.76,0,0,0,73.83,30.65Zm0,16.72a7,7,0,1,1,7-7A7,7,0,0,1,73.83,47.37Z"/></g></g></svg>