<svg xmlns="http://www.w3.org/2000/svg" viewBox="0 0 102.49 87.63"><defs><style>.cls-1{fill:#ff334c;}</style></defs><title>suco</title><g id="Layer_2" data-name="Layer 2"><g id="Layer_1-2" data-name="Layer 1"><path class="cls-1" d="M100.78,46.63H76.53l2-26.26a1.36,1.36,0,0,0-.46-1.1,2,2,0,0,0-1.25-.46l-3.42,0,0,2.93h1.58L74.65,27l-5,2.36A21.68,21.68,0,0,1,53,30V21.84l10.26,0,0-2.93L53,18.91V12.29L71,2.48,69.12,0,50.33,10.25a1.43,1.43,0,0,0-.79,1.24v7.44L25.64,19a1.6,1.6,0,0,0-1.7,1.47s0,.06,0,.09L25.85,45a23.19,23.19,0,0,0-2.39,4.9c-3-4.6-8.66-7.45-14.8-7.45a1.6,1.6,0,0,0-1.71,1.46,13,13,0,0,0,2.8,8,9.7,9.7,0,0,0-2,1.17l-.5.37C1.18,58-1.34,65.09.7,71.74l1,3.46a18.58,18.58,0,0,0,8.8,10.6,13.67,13.67,0,0,0,12.55.42l-.1-.15a47.85,47.85,0,0,0,9.83,1.42l1,0v.12H56.38c25.45,0,46.09-17.65,46.12-39.47v-.07A1.6,1.6,0,0,0,100.78,46.63ZM75.88,50.36v-.8h17C92.23,61.43,83.81,72,71.14,76.78a41,41,0,0,1-9.94,2.39A36.5,36.5,0,0,0,75.88,50.36ZM49.54,21.86v7.08a25.57,25.57,0,0,0-16.68,1.67l-4.55,2.17L27.48,22ZM31,43.62l.21-.23L29,41.94,28.57,36l5.95-2.84a21.67,21.67,0,0,1,16.88-.59,25.58,25.58,0,0,0,20-.69l3-1.44-.77,9.85a6,6,0,0,0-1.24-.62l-2.55-.91A5.57,5.57,0,0,0,65.6,39a4.33,4.33,0,0,0-2.5,3c-1.81,9-7.28,17.15-15.43,23a17.47,17.47,0,0,0-7-11.52l-.5-.37A10.49,10.49,0,0,0,28,53l-2.15,1.54A20.37,20.37,0,0,1,31,43.62ZM22.09,55.46c-6-.71-10.77-4.78-11.6-9.95C16.52,46.23,21.26,50.29,22.09,55.46Zm-9.66,27.9A15.6,15.6,0,0,1,5,74.46L4,71c-1.71-5.59.41-11.52,5.47-15.33h0l.5-.37a6.28,6.28,0,0,1,2.07-1,18.46,18.46,0,0,0,11.88,4.17l.32-.06a5.09,5.09,0,0,0,2.65-.9l3.27-2.34a6.65,6.65,0,0,1,7.71.1l.5.37a14.38,14.38,0,0,1,6,11.44A50.06,50.06,0,0,1,21.87,74l-7.56.49A1.58,1.58,0,0,0,12.73,76V81.3a1.44,1.44,0,0,0,.85,1.26l.24.12a44.64,44.64,0,0,0,4.32,1.87A9.72,9.72,0,0,1,12.43,83.36ZM33,84.56h0a43.18,43.18,0,0,1-16.82-4.12V77.32l6-.39c22.24-1.43,40.5-15.62,44.33-34.46a1.34,1.34,0,0,1,.78-.94,1.64,1.64,0,0,1,1.25-.06l2.55.91a2,2,0,0,1,1.42,1.82v6.15A33.17,33.17,0,0,1,65.09,71C57.91,80.06,45.72,85.21,33,84.56Zm23.4.14H50.93a41.9,41.9,0,0,0,5.44-2.46v.14a45.32,45.32,0,0,0,16.15-2.92c13.91-5.29,23.12-16.87,23.78-29.9H99C98.15,69.2,79.3,84.72,56.38,84.7Z"/><rect class="cls-1" x="65.92" y="18.84" width="4.29" height="3.06"/><rect class="cls-1" x="77.82" y="53.21" width="3.84" height="2.84"/><rect class="cls-1" x="81.83" y="58.54" width="3.84" height="2.84"/><rect class="cls-1" x="77.08" y="62.8" width="3.84" height="2.84"/></g></g></svg>