<svg xmlns="http://www.w3.org/2000/svg" xmlns:xlink="http://www.w3.org/1999/xlink" viewBox="0 0 62.88 79.55"><defs><style>.cls-1{fill:url(#linear-gradient);}.cls-2{fill:url(#linear-gradient-2);}.cls-3{fill:url(#linear-gradient-3);}.cls-4{fill:url(#linear-gradient-4);}</style><linearGradient id="linear-gradient" y1="39.77" x2="62.88" y2="39.77" gradientUnits="userSpaceOnUse"><stop offset="0" stop-color="#6058d8"/><stop offset="1" stop-color="#4931d8"/></linearGradient><linearGradient id="linear-gradient-2" x1="40.47" y1="49.84" x2="45.44" y2="49.84" xlink:href="#linear-gradient"/><linearGradient id="linear-gradient-3" x1="29" y1="49.84" x2="33.97" y2="49.84" xlink:href="#linear-gradient"/><linearGradient id="linear-gradient-4" x1="17.52" y1="49.84" x2="22.5" y2="49.84" xlink:href="#linear-gradient"/></defs><title>trash</title><g id="Layer_2" data-name="Layer 2"><g id="Layer_1-2" data-name="Layer 1"><path class="cls-1" d="M57.45,9.37H46.83V2.46A2.47,2.47,0,0,0,44.32,0a.38.38,0,0,0-.27.09A.34.34,0,0,0,43.87,0H18.55a2.43,2.43,0,0,0-2.46,2.46v6.9H5.42A5.36,5.36,0,0,0,0,14.79v8.87H4.71V74.17a5.28,5.28,0,0,0,5.38,5.38H52.79a5.32,5.32,0,0,0,5.42-5.38V23.66h4.66V14.79A5.36,5.36,0,0,0,57.45,9.37ZM21,4.93H41.86V9.37H21ZM53.24,74.17c0,.31-.13.45-.45.45H10.08c-.31,0-.45-.13-.45-.45V23.66H53.24ZM57.9,18.73H5V14.79c0-.31.13-.49.45-.49h52c.31,0,.45.18.45.49v3.94Z"/><rect class="cls-2" x="40.47" y="29.44" width="4.97" height="40.78"/><rect class="cls-3" x="29" y="29.44" width="4.97" height="40.78"/><rect class="cls-4" x="17.52" y="29.44" width="4.97" height="40.78"/></g></g></svg>